<svg xmlns="http://www.w3.org/2000/svg" width="64" height="64" viewBox="0 0 64 64" version="1.1"><path d="" stroke="none" fill="#ffc945" fill-rule="evenodd"/><path d="" stroke="none" fill="#ffae47" fill-rule="evenodd"/><path d="M 32.928 46.500 C 31.798 48.478, 31.921 53.479, 33.072 52.328 C 33.669 51.731, 34.009 49.951, 33.828 48.372 C 33.648 46.792, 33.243 45.950, 32.928 46.500" stroke="none" fill="#f0ab40" fill-rule="evenodd"/><path d="" stroke="none" fill="#f1a540" fill-rule="evenodd"/><path d="M 38.500 12.483 L 34.500 15.936 38.461 13.968 C 43.944 11.244, 46 11.396, 46 14.525 C 46 17.874, 42.165 19.416, 37.226 18.052 C 35.013 17.441, 34.031 17.431, 34.626 18.026 C 38.866 22.266, 49 20.086, 49 14.934 C 49 8.401, 44.457 7.340, 38.500 12.483 M 17.219 11.559 C 12.082 15.158, 15.848 19.183, 24.075 18.886 C 31.344 18.623, 32.364 16.906, 27.221 13.592 C 21.983 10.217, 19.776 9.768, 17.219 11.559 M 20.250 13.031 C 16.925 14.368, 17.503 15.771, 21.925 17.096 C 27.912 18.890, 30.306 17.550, 26.694 14.427 C 23.607 11.756, 23.486 11.730, 20.250 13.031 M 28.440 23.385 C 28.078 24.826, 26.446 27.130, 24.814 28.503 C 23.182 29.876, 22.270 31, 22.787 31 C 25.329 31, 31.129 22.796, 29.640 21.307 C 29.342 21.008, 28.801 21.943, 28.440 23.385 M 34.500 22.816 C 35.600 23.902, 37.625 25.119, 39 25.520 C 42.061 26.412, 41.641 26.006, 36.500 23.102 C 32.970 21.107, 32.735 21.074, 34.500 22.816 M 32.701 35.632 C 32.316 36.018, 32 37.383, 32 38.667 C 32 41.567, 31.312 41.606, 29.066 38.833 C 27.956 37.462, 26.703 36.900, 25.656 37.302 C 22.909 38.356, 23.724 40.995, 27 41.650 C 30.551 42.360, 30.572 42.428, 28.023 44.977 C 25.909 47.091, 26.276 50, 28.655 50 C 29.448 50, 30.674 48.626, 31.381 46.946 C 32.505 44.271, 32.825 44.085, 33.955 45.446 C 35.519 47.331, 39 47.506, 39 45.700 C 39 43.786, 36.882 42, 34.611 42 C 32.708 42, 32.718 41.911, 34.865 39.911 C 36.098 38.762, 36.933 37.300, 36.721 36.661 C 36.264 35.288, 33.701 34.632, 32.701 35.632" stroke="none" fill="#ffe443" fill-rule="evenodd"/><path d="" stroke="none" fill="#ffd045" fill-rule="evenodd"/><path d="M 19.571 2.885 C 18.717 4.267, 21.047 10, 22.463 10 C 23.160 10, 24.874 10.900, 26.273 12 C 31.337 15.983, 41.214 12.757, 42.564 6.678 C 43.398 2.924, 42.559 2.325, 38.712 3.930 C 32.841 6.379, 28.090 6.443, 24.941 4.115 C 21.846 1.826, 20.426 1.501, 19.571 2.885 M 23.286 19.799 C 13.096 20.555, 2.160 41.865, 5.997 53.489 C 9.270 63.408, 49.716 65.480, 57.145 56.109 C 65.103 46.071, 42.934 10.794, 34.150 19.519 C 33.328 20.336, 35.491 22.307, 38.662 23.632 C 42.709 25.323, 42.291 27.439, 38.215 25.895 C 36.722 25.330, 34.550 23.977, 33.389 22.890 C 31.279 20.913, 31.279 20.913, 30.029 23.931 C 28.724 27.080, 24.355 32, 22.864 32 C 21.190 32, 22.028 29.766, 24.400 27.900 C 26.814 26.001, 29.477 20.285, 28.190 19.765 C 27.811 19.611, 25.604 19.627, 23.286 19.799 M 32.200 35.200 C 31.540 35.860, 31 36.995, 31 37.723 C 31 38.728, 30.385 38.643, 28.440 37.369 C 26.182 35.889, 25.706 35.866, 24.403 37.168 C 22.589 38.982, 23.492 41.704, 26.193 42.561 C 27.654 43.025, 27.902 43.498, 27.101 44.299 C 25.514 45.886, 25.747 49.689, 27.471 50.351 C 28.280 50.661, 29.630 50.227, 30.471 49.386 C 31.843 48.014, 32 48.230, 32 51.488 C 32 53.653, 32.403 54.869, 33 54.500 C 33.550 54.160, 34 52.428, 34 50.652 C 34 47.785, 34.309 47.426, 36.750 47.461 C 40.158 47.509, 40.608 44.111, 37.405 42.515 C 35.700 41.664, 35.491 41.066, 36.284 39.290 C 38.090 35.243, 35.126 32.274, 32.200 35.200" stroke="none" fill="" fill-rule="evenodd"/><path d="" stroke="none" fill="#fadd41" fill-rule="evenodd"/><path d="" stroke="none" fill="#f9d843" fill-rule="evenodd"/><path d="" stroke="none" fill="#fc4c4c" fill-rule="evenodd"/></svg>