<svg xmlns="http://www.w3.org/2000/svg" width="64" height="64" viewBox="0 0 64 64" version="1.1"><path d="M 22.500 23 C 22.104 23.641, 25.509 24, 32 24 C 38.491 24, 41.896 23.641, 41.500 23 C 41.160 22.450, 36.885 22, 32 22 C 27.115 22, 22.840 22.450, 22.500 23" stroke="none" fill="#75452e" fill-rule="evenodd"/><path d="M 29.318 39.772 C 25.629 42.692, 27.155 46.545, 32 46.545 C 35.320 46.545, 35.924 46.196, 36.359 44.023 C 36.806 41.793, 34.073 38.044, 32 38.044 C 31.725 38.044, 30.518 38.822, 29.318 39.772" stroke="none" fill="#ffd33a" fill-rule="evenodd"/><path d="M 21.786 3.937 C 20.356 5.608, 19.711 5.717, 17.102 4.732 C 12.049 2.825, 12.314 11.766, 17.489 17.782 L 19.738 20.396 15.112 22.540 C 9.152 25.301, 4 31.095, 4 35.035 C 4 38.766, 5.748 38.910, 6.610 35.250 C 7.392 31.930, 11.424 27.383, 15.449 25.282 L 18.399 23.742 16.569 26.535 C 0.628 50.864, 5.474 62, 32 62 C 53.471 62, 55 61.350, 55 52.229 C 55 41.778, 53.024 35.071, 47.431 26.535 L 45.601 23.742 48.551 25.282 C 52.576 27.383, 56.608 31.930, 57.390 35.250 C 58.252 38.910, 60 38.766, 60 35.035 C 60 31.095, 54.848 25.301, 48.888 22.540 L 44.262 20.396 46.511 17.782 C 51.686 11.766, 51.951 2.825, 46.898 4.732 C 44.289 5.717, 43.644 5.608, 42.214 3.937 C 40.246 1.639, 35.184 1.357, 34.362 3.500 C 34.045 4.325, 32.982 5, 32 5 C 31.018 5, 29.955 4.325, 29.638 3.500 C 28.816 1.357, 23.754 1.639, 21.786 3.937 M 23.428 6.080 C 22.057 7.594, 20.793 8.009, 18.773 7.605 C 15.537 6.957, 15.234 8.232, 17.394 13.401 C 19.559 18.583, 25.886 22.460, 23.975 17.435 C 22.773 14.273, 22.769 14, 23.921 14 C 24.427 14, 25.138 15.350, 25.500 17 C 26.464 21.390, 31 21.390, 31 17 C 31 15.350, 31.450 14, 32 14 C 32.550 14, 33 15.350, 33 17 C 33 21.390, 37.536 21.390, 38.500 17 C 38.862 15.350, 39.573 14, 40.079 14 C 41.231 14, 41.227 14.273, 40.025 17.435 C 38.114 22.460, 44.441 18.583, 46.606 13.401 C 48.747 8.275, 48.461 6.846, 45.445 7.603 C 43.562 8.076, 42.246 7.640, 40.445 5.948 L 38 3.651 35.686 5.826 C 32.808 8.529, 30.832 8.577, 28.500 6 C 26.236 3.499, 25.757 3.506, 23.428 6.080 M 22.500 23 C 22.104 23.641, 25.509 24, 32 24 C 38.491 24, 41.896 23.641, 41.500 23 C 41.160 22.450, 36.885 22, 32 22 C 27.115 22, 22.840 22.450, 22.500 23 M 17.003 30.154 C 11.487 37.769, 9.222 53.478, 13.052 57.555 C 16.631 61.365, 47.369 61.365, 50.948 57.555 C 54.778 53.478, 52.513 37.769, 46.997 30.154 L 43.987 26 32 26 L 20.013 26 17.003 30.154 M 26.062 31.827 C 17.050 36.660, 17.050 49.340, 26.062 54.173 C 37.170 60.130, 49.130 48.170, 43.173 37.062 C 41.159 33.306, 35.928 30, 32 30 C 30.608 30, 27.936 30.822, 26.062 31.827 M 27.500 32.894 C 16.824 37.537, 20.310 53.500, 32 53.500 C 45.565 53.500, 46.872 33.863, 33.403 32.438 C 31.256 32.210, 28.600 32.416, 27.500 32.894 M 29.981 36.036 C 29.382 37.156, 27.566 38.337, 25.946 38.661 C 22.606 39.329, 22.467 39.711, 24.561 42.481 C 25.535 43.770, 25.835 45.475, 25.420 47.366 C 24.805 50.163, 24.888 50.242, 27.641 49.486 C 31.228 48.500, 32.772 48.500, 36.359 49.486 C 39.112 50.242, 39.195 50.163, 38.580 47.366 C 38.165 45.475, 38.465 43.770, 39.439 42.481 C 41.476 39.787, 41.365 39, 38.952 39 C 37.826 39, 35.862 37.875, 34.588 36.500 C 31.783 33.474, 31.374 33.432, 29.981 36.036 M 30 38.500 C 29.315 39.325, 28.135 40, 27.378 40 C 25.777 40, 25.539 41.597, 27.004 42.502 C 27.556 42.843, 27.730 44.228, 27.391 45.579 C 26.813 47.880, 26.941 47.973, 29.387 47.043 C 31.118 46.385, 32.882 46.385, 34.613 47.043 C 37.059 47.973, 37.187 47.880, 36.609 45.579 C 36.270 44.228, 36.444 42.843, 36.996 42.502 C 38.461 41.597, 38.223 40, 36.622 40 C 35.865 40, 34.685 39.325, 34 38.500 C 33.315 37.675, 32.415 37, 32 37 C 31.585 37, 30.685 37.675, 30 38.500" stroke="none" fill="#0b0806" fill-rule="evenodd"/><path d="M 23.428 6.080 C 22.130 7.514, 20.680 8.033, 18.759 7.751 C 14.960 7.194, 16.586 13.452, 21.406 17.936 L 24.024 20.371 23.387 17.186 C 22.554 13.022, 24.713 12.877, 26.150 17 C 26.818 18.915, 27.883 20, 29.098 20 C 30.545 20, 31 19.282, 31 17 C 31 15.350, 31.450 14, 32 14 C 32.550 14, 33 15.350, 33 17 C 33 21.168, 36.397 21.168, 37.850 17 C 39.287 12.877, 41.446 13.022, 40.613 17.186 L 39.976 20.371 42.594 17.936 C 47.243 13.610, 49.095 7.068, 45.474 7.760 C 43.684 8.102, 42.150 7.550, 40.449 5.952 L 38 3.651 35.686 5.826 C 32.808 8.529, 30.832 8.577, 28.500 6 C 26.236 3.499, 25.757 3.506, 23.428 6.080 M 18.343 28.750 C 14.551 33.879, 13.241 37.481, 12.129 45.834 C 10.330 59.356, 11.232 60, 32 60 C 52.768 60, 53.670 59.356, 51.871 45.834 C 50.759 37.481, 49.449 33.879, 45.657 28.750 C 42.489 24.465, 21.511 24.465, 18.343 28.750 M 26.500 30.954 C 20.518 33.429, 17.135 43.135, 20.222 48.970 C 24.857 57.730, 37.891 58.148, 43.040 49.701 C 49.560 39.010, 38.187 26.120, 26.500 30.954 M 24.923 35.923 C 18.482 42.365, 22.889 53, 32 53 C 37.847 53, 42 48.847, 42 43 C 42 37.153, 37.847 33, 32 33 C 28.742 33, 27.216 33.631, 24.923 35.923 M 29.232 36 C 28.545 37.100, 27.073 38, 25.960 38 C 23.562 38, 22.258 40.658, 23.867 42.267 C 24.490 42.890, 25 44.792, 25 46.494 L 25 49.588 32 49.588 L 39 49.588 39 46.494 C 39 44.792, 39.510 42.890, 40.133 42.267 C 41.742 40.658, 40.438 38, 38.040 38 C 36.927 38, 35.455 37.100, 34.768 36 C 34.081 34.900, 32.835 34, 32 34 C 31.165 34, 29.919 34.900, 29.232 36" stroke="none" fill="" fill-rule="evenodd"/></svg>