<svg xmlns="http://www.w3.org/2000/svg" width="64" height="64" viewBox="0 0 64 64" version="1.1"><path d="M 21.750 62.746 C 27.388 62.924, 36.612 62.924, 42.250 62.746 C 47.888 62.568, 43.275 62.422, 32 62.422 C 20.725 62.422, 16.112 62.568, 21.750 62.746" stroke="none" fill="#bc8274" fill-rule="evenodd"/><path d="M 20.501 56.998 C 20.066 57.703, 18.182 58.037, 15.883 57.817 C 12.401 57.485, 12 57.682, 12 59.724 L 12 62 32 62 L 52 62 52 59.673 C 52 57.643, 51.607 57.404, 48.919 57.799 C 47.224 58.047, 44.781 57.686, 43.491 56.995 C 42.038 56.218, 40.069 56.024, 38.322 56.487 C 34.916 57.389, 29.781 57.386, 24.868 56.479 C 22.484 56.039, 20.984 56.217, 20.501 56.998" stroke="none" fill="#ffcd69" fill-rule="evenodd"/><path d="" stroke="none" fill="#dea86e" fill-rule="evenodd"/><path d="" stroke="none" fill="#c19291" fill-rule="evenodd"/><path d="" stroke="none" fill="#b37876" fill-rule="evenodd"/><path d="M 29.432 4.110 C 29.035 4.752, 27.358 4.995, 25.460 4.687 L 22.174 4.154 23.681 8.577 L 25.188 13 32 13 L 38.812 13 40.319 8.577 L 41.826 4.154 38.540 4.687 C 36.642 4.995, 34.965 4.752, 34.568 4.110 C 33.681 2.675, 30.319 2.675, 29.432 4.110 M 17.913 29.750 C 7.395 47.838, 8.296 57.863, 20.089 53.971 C 23.299 52.911, 24.717 52.917, 28 54 C 31.313 55.093, 32.687 55.093, 36 54 C 39.283 52.917, 40.701 52.911, 43.911 53.971 C 55.704 57.863, 56.605 47.838, 46.087 29.750 L 39.836 19 32 19 L 24.164 19 17.913 29.750 M 25.672 34.043 C 20.521 38.095, 21.335 47.571, 27.091 50.547 C 35.028 54.652, 43.240 48.423, 41.577 39.560 C 40.283 32.663, 31.361 29.569, 25.672 34.043" stroke="none" fill="#ff7d97" fill-rule="evenodd"/><path d="M 26.750 14.737 C 29.638 14.939, 34.362 14.939, 37.250 14.737 C 40.138 14.535, 37.775 14.370, 32 14.370 C 26.225 14.370, 23.862 14.535, 26.750 14.737" stroke="none" fill="#b47b79" fill-rule="evenodd"/><path d="M 26.750 15.737 C 29.638 15.939, 34.362 15.939, 37.250 15.737 C 40.138 15.535, 37.775 15.370, 32 15.370 C 26.225 15.370, 23.862 15.535, 26.750 15.737" stroke="none" fill="#caa2a1" fill-rule="evenodd"/><path d="M 26.655 36.829 C 22.653 41.251, 26.056 49, 32 49 C 38.048 49, 41.557 40.624, 37.171 36.655 C 34.700 34.418, 28.747 34.517, 26.655 36.829 M 29.565 38.928 C 26.237 42.606, 30.411 48.748, 34.019 45.483 C 36.491 43.245, 36.546 40.804, 34.171 38.655 C 31.872 36.574, 31.686 36.585, 29.565 38.928" stroke="none" fill="#faf7f5" fill-rule="evenodd"/><path d="" stroke="none" fill="#eadcd9" fill-rule="evenodd"/><path d="" stroke="none" fill="#b27877" fill-rule="evenodd"/><path d="" stroke="none" fill="#e0c8c6" fill-rule="evenodd"/><path d="" stroke="none" fill="#e2cdca" fill-rule="evenodd"/><path d="" stroke="none" fill="#e6b06d" fill-rule="evenodd"/><path d="M 28.962 1.546 C 28.257 2.396, 27.077 2.860, 26.340 2.577 C 25.603 2.294, 25 2.499, 25 3.031 C 25 4.575, 28.173 4.154, 30.171 2.345 C 31.874 0.804, 32.131 0.808, 33.900 2.409 C 35.323 3.698, 36.701 3.959, 39.400 3.453 C 41.380 3.081, 43 2.972, 43 3.211 C 43 3.449, 42.283 5.749, 41.406 8.322 L 39.812 13 32 13 L 24.188 13 22.594 8.322 C 20.663 2.654, 20.669 3, 22.500 3 C 23.325 3, 24 2.550, 24 2 C 24 0.548, 21.432 0.775, 20.131 2.342 C 19.519 3.080, 19.351 4.018, 19.759 4.425 C 20.166 4.833, 20.517 5.467, 20.538 5.833 C 20.559 6.200, 20.916 7.781, 21.331 9.346 C 21.801 11.116, 21.647 12.720, 20.925 13.590 C 20.286 14.360, 20.022 15.978, 20.338 17.186 C 20.921 19.414, 18.638 25.411, 16.288 27.821 C 15.580 28.548, 15 29.786, 15 30.571 C 15 31.357, 14.580 32, 14.067 32 C 13.035 32, 11.543 35.876, 12.288 36.622 C 12.547 36.880, 15.176 32.797, 18.130 27.546 L 23.500 18.001 32 18.001 L 40.500 18.001 45.844 27.500 C 48.784 32.725, 51.606 37, 52.115 37 C 53.135 37, 49.822 30.007, 47.783 27.854 C 46.654 26.662, 43 19.558, 43 18.555 C 43 17.963, 45.363 18.471, 46.809 19.373 C 47.642 19.894, 47.898 21.187, 47.514 22.936 C 46.788 26.244, 48.945 28.470, 51.952 27.515 C 55.211 26.481, 54.572 22.530, 50.750 20.082 C 44.190 15.881, 43.746 15.344, 44.956 13.082 C 46.440 10.308, 47.646 10.454, 48.411 13.500 C 49.362 17.289, 55 16.262, 55 12.300 C 55 10.209, 53.284 10.806, 52.683 13.105 C 52.380 14.263, 51.568 15.023, 50.879 14.793 C 48.466 13.989, 48.862 12.002, 51.669 10.832 L 54.500 9.653 51 9.018 C 47.183 8.326, 44.199 9.318, 43.337 11.565 C 43.034 12.354, 42.391 13, 41.908 13 C 41.424 13, 41.901 10.787, 42.967 8.083 C 45.189 2.445, 44.076 0.170, 39.798 1.606 C 35.964 2.894, 35.161 2.862, 34.601 1.401 C 33.883 -0.467, 30.562 -0.383, 28.962 1.546 M 21.699 14.634 C 19.807 16.526, 21.888 17, 32.083 17 C 40.504 17, 43.067 16.700, 42.752 15.750 C 42.299 14.384, 22.974 13.359, 21.699 14.634 M 49 24 C 49 25.506, 49.522 26.046, 50.750 25.810 C 51.712 25.624, 52.500 24.810, 52.500 24 C 52.500 23.190, 51.712 22.376, 50.750 22.190 C 49.522 21.954, 49 22.494, 49 24 M 9.477 40.250 C 8.458 44.342, 9.415 63.309, 10.662 63.723 C 11.466 63.989, 11.666 62.927, 11.310 60.275 L 10.796 56.441 15.148 56.236 C 19.239 56.044, 22.358 56, 32 56 C 41.642 56, 44.761 56.044, 48.852 56.236 L 53.204 56.441 52.707 60.149 C 52.319 63.042, 52.516 63.739, 53.605 63.321 C 55.935 62.427, 55.490 38.006, 53.143 37.998 C 52.789 37.996, 52.645 41.805, 52.822 46.460 C 53.194 56.212, 51.776 57.566, 43.911 54.971 C 40.701 53.911, 39.283 53.917, 36 55 C 32.687 56.093, 31.313 56.093, 28 55 C 24.717 53.917, 23.299 53.911, 20.089 54.971 C 12.224 57.566, 10.806 56.212, 11.178 46.460 C 11.485 38.383, 10.678 35.433, 9.477 40.250 M 22.250 63.746 C 27.612 63.925, 36.387 63.925, 41.750 63.746 C 47.112 63.566, 42.725 63.419, 32 63.419 C 21.275 63.419, 16.887 63.566, 22.250 63.746" stroke="none" fill="#b27776" fill-rule="evenodd"/><path d="M 20.501 56.998 C 20.066 57.703, 18.182 58.037, 15.883 57.817 C 12.401 57.485, 12 57.682, 12 59.724 L 12 62 32 62 L 52 62 52 59.673 C 52 57.643, 51.607 57.404, 48.919 57.799 C 47.224 58.047, 44.781 57.686, 43.491 56.995 C 42.038 56.218, 40.069 56.024, 38.322 56.487 C 34.916 57.389, 29.781 57.386, 24.868 56.479 C 22.484 56.039, 20.984 56.217, 20.501 56.998" stroke="none" fill="#ffcd69" fill-rule="evenodd"/><path d="" stroke="none" fill="#b27575" fill-rule="evenodd"/><path d="M 29.432 4.110 C 29.035 4.752, 27.358 4.995, 25.460 4.687 L 22.174 4.154 23.681 8.577 L 25.188 13 32 13 L 38.812 13 40.319 8.577 L 41.826 4.154 38.540 4.687 C 36.642 4.995, 34.965 4.752, 34.568 4.110 C 33.681 2.675, 30.319 2.675, 29.432 4.110 M 17.913 29.750 C 7.395 47.838, 8.296 57.863, 20.089 53.971 C 23.299 52.911, 24.717 52.917, 28 54 C 31.313 55.093, 32.687 55.093, 36 54 C 39.283 52.917, 40.701 52.911, 43.911 53.971 C 55.704 57.863, 56.605 47.838, 46.087 29.750 L 39.836 19 32 19 L 24.164 19 17.913 29.750 M 25.672 34.043 C 20.521 38.095, 21.335 47.571, 27.091 50.547 C 35.028 54.652, 43.240 48.423, 41.577 39.560 C 40.283 32.663, 31.361 29.569, 25.672 34.043" stroke="none" fill="#ff7d97" fill-rule="evenodd"/><path d="" stroke="none" fill="#808080" fill-rule="evenodd"/><path d="" stroke="none" fill="#b17878" fill-rule="evenodd"/><path d="M 27.750 18.732 C 30.087 18.943, 33.912 18.943, 36.250 18.732 C 38.587 18.522, 36.675 18.349, 32 18.349 C 27.325 18.349, 25.412 18.522, 27.750 18.732" stroke="none" fill="#d67985" fill-rule="evenodd"/><path d="M 26.750 16.737 C 29.638 16.939, 34.362 16.939, 37.250 16.737 C 40.138 16.535, 37.775 16.370, 32 16.370 C 26.225 16.370, 23.862 16.535, 26.750 16.737" stroke="none" fill="#c69390" fill-rule="evenodd"/><path d="" stroke="none" fill="#f27c91" fill-rule="evenodd"/><path d="M 28.962 1.546 C 28.257 2.396, 27.077 2.860, 26.340 2.577 C 25.603 2.294, 25 2.499, 25 3.031 C 25 4.575, 28.173 4.154, 30.171 2.345 C 31.874 0.804, 32.131 0.808, 33.900 2.409 C 35.323 3.698, 36.701 3.959, 39.400 3.453 C 41.380 3.081, 43 2.972, 43 3.211 C 43 3.449, 42.283 5.749, 41.406 8.322 L 39.812 13 32 13 L 24.188 13 22.594 8.322 C 20.663 2.654, 20.669 3, 22.500 3 C 23.325 3, 24 2.550, 24 2 C 24 0.548, 21.432 0.775, 20.131 2.342 C 19.519 3.080, 19.351 4.018, 19.759 4.425 C 20.166 4.833, 20.517 5.467, 20.538 5.833 C 20.559 6.200, 20.916 7.781, 21.331 9.346 C 21.801 11.116, 21.647 12.720, 20.925 13.590 C 20.286 14.360, 20.022 15.978, 20.338 17.186 C 20.921 19.414, 18.638 25.411, 16.288 27.821 C 15.580 28.548, 15 29.786, 15 30.571 C 15 31.357, 14.580 32, 14.067 32 C 13.035 32, 11.543 35.876, 12.288 36.622 C 12.547 36.880, 15.176 32.797, 18.130 27.546 L 23.500 18.001 32 18.001 L 40.500 18.001 45.844 27.500 C 48.784 32.725, 51.606 37, 52.115 37 C 53.135 37, 49.822 30.007, 47.783 27.854 C 46.654 26.662, 43 19.558, 43 18.555 C 43 17.963, 45.363 18.471, 46.809 19.373 C 47.642 19.894, 47.898 21.187, 47.514 22.936 C 46.788 26.244, 48.945 28.470, 51.952 27.515 C 55.211 26.481, 54.572 22.530, 50.750 20.082 C 44.190 15.881, 43.746 15.344, 44.956 13.082 C 46.440 10.308, 47.646 10.454, 48.411 13.500 C 49.362 17.289, 55 16.262, 55 12.300 C 55 10.209, 53.284 10.806, 52.683 13.105 C 52.380 14.263, 51.568 15.023, 50.879 14.793 C 48.466 13.989, 48.862 12.002, 51.669 10.832 L 54.500 9.653 51 9.018 C 47.183 8.326, 44.199 9.318, 43.337 11.565 C 43.034 12.354, 42.391 13, 41.908 13 C 41.424 13, 41.901 10.787, 42.967 8.083 C 45.189 2.445, 44.076 0.170, 39.798 1.606 C 35.964 2.894, 35.161 2.862, 34.601 1.401 C 33.883 -0.467, 30.562 -0.383, 28.962 1.546 M 21.699 14.634 C 19.807 16.526, 21.888 17, 32.083 17 C 40.504 17, 43.067 16.700, 42.752 15.750 C 42.299 14.384, 22.974 13.359, 21.699 14.634 M 49 24 C 49 25.506, 49.522 26.046, 50.750 25.810 C 51.712 25.624, 52.500 24.810, 52.500 24 C 52.500 23.190, 51.712 22.376, 50.750 22.190 C 49.522 21.954, 49 22.494, 49 24 M 9.477 40.250 C 8.458 44.342, 9.415 63.309, 10.662 63.723 C 11.466 63.989, 11.666 62.927, 11.310 60.275 L 10.796 56.441 15.148 56.236 C 19.239 56.044, 22.358 56, 32 56 C 41.642 56, 44.761 56.044, 48.852 56.236 L 53.204 56.441 52.707 60.149 C 52.319 63.042, 52.516 63.739, 53.605 63.321 C 55.935 62.427, 55.490 38.006, 53.143 37.998 C 52.789 37.996, 52.645 41.805, 52.822 46.460 C 53.194 56.212, 51.776 57.566, 43.911 54.971 C 40.701 53.911, 39.283 53.917, 36 55 C 32.687 56.093, 31.313 56.093, 28 55 C 24.717 53.917, 23.299 53.911, 20.089 54.971 C 12.224 57.566, 10.806 56.212, 11.178 46.460 C 11.485 38.383, 10.678 35.433, 9.477 40.250 M 22.250 63.746 C 27.612 63.925, 36.387 63.925, 41.750 63.746 C 47.112 63.566, 42.725 63.419, 32 63.419 C 21.275 63.419, 16.887 63.566, 22.250 63.746" stroke="none" fill="#b27776" fill-rule="evenodd"/><path d="M 29.432 4.110 C 29.035 4.752, 27.358 4.995, 25.460 4.687 L 22.174 4.154 23.681 8.577 L 25.188 13 32 13 L 38.812 13 40.319 8.577 L 41.826 4.154 38.540 4.687 C 36.642 4.995, 34.965 4.752, 34.568 4.110 C 33.681 2.675, 30.319 2.675, 29.432 4.110 M 17.913 29.750 C 7.395 47.838, 8.296 57.863, 20.089 53.971 C 23.299 52.911, 24.717 52.917, 28 54 C 31.313 55.093, 32.687 55.093, 36 54 C 39.283 52.917, 40.701 52.911, 43.911 53.971 C 55.704 57.863, 56.605 47.838, 46.087 29.750 L 39.836 19 32 19 L 24.164 19 17.913 29.750 M 25.672 34.043 C 20.521 38.095, 21.335 47.571, 27.091 50.547 C 35.028 54.652, 43.240 48.423, 41.577 39.560 C 40.283 32.663, 31.361 29.569, 25.672 34.043" stroke="none" fill="" fill-rule="evenodd"/><path d="" stroke="none" fill="#facb6f" fill-rule="evenodd"/><path d="" stroke="none" fill="#e07d89" fill-rule="evenodd"/></svg>