<svg xmlns="http://www.w3.org/2000/svg" width="64" height="64" viewBox="0 0 64 64" version="1.1"><path d="M 25.370 51 C 25.370 56.775, 25.535 59.138, 25.737 56.250 C 25.939 53.362, 25.939 48.638, 25.737 45.750 C 25.535 42.862, 25.370 45.225, 25.370 51 M 38.370 51 C 38.370 56.775, 38.535 59.138, 38.737 56.250 C 38.939 53.362, 38.939 48.638, 38.737 45.750 C 38.535 42.862, 38.370 45.225, 38.370 51 M 27.443 51.748 C 27.500 61.500, 27.500 61.500, 32 61.500 C 36.500 61.500, 36.500 61.500, 36.557 51.748 L 36.615 41.995 36.271 51.498 C 35.928 61, 35.928 61, 32 61 C 28.072 61, 28.072 61, 27.729 51.498 L 27.385 41.995 27.443 51.748" stroke="none" fill="#1b150d" fill-rule="evenodd"/><path d="M 18.694 0.639 C 17.541 1.792, 17.982 7.339, 19.435 9.964 C 20.717 12.279, 20.551 12.670, 16.707 16.400 C 14.121 18.910, 13.087 20.529, 13.899 20.800 C 14.605 21.035, 16.848 19.601, 18.883 17.614 C 26.029 10.636, 31 12.230, 31 21.500 C 31 25.833, 31.422 29, 32 29 C 32.550 29, 33 26.509, 33 23.465 C 33 16.826, 36.004 16.992, 37.792 23.729 C 38.793 27.500, 38.793 27.500, 38.897 24.160 C 38.975 21.625, 38.277 20.185, 36 18.187 C 31.989 14.667, 32.206 14, 37.363 14 C 42.493 14, 48.915 19.900, 53.273 28.617 C 58.831 39.735, 60.336 39, 32 39 C 4.591 39, 5.328 39.238, 9.231 31.643 C 10.192 29.772, 8.758 26.947, 7.718 28.663 C -3.904 47.831, 7.017 63.500, 32 63.500 C 62.675 63.500, 70.473 39.445, 47.240 16.489 C 43.331 12.627, 43.251 12.415, 44.662 9.688 C 48.643 1.989, 46.756 0.527, 32.444 0.222 C 25.264 0.070, 19.076 0.257, 18.694 0.639 M 20.406 3.383 C 19.591 5.507, 22.682 12, 24.508 12 C 25.394 12, 25.828 11.530, 25.473 10.956 C 24.186 8.874, 27.066 7.231, 32 7.231 C 36.934 7.231, 39.814 8.874, 38.527 10.956 C 38.172 11.530, 38.606 12, 39.492 12 C 41.318 12, 44.409 5.507, 43.594 3.383 C 42.824 1.378, 21.176 1.378, 20.406 3.383 M 6 46.100 C 6 50.567, 6.422 51.622, 9.400 54.600 C 14.449 59.649, 15 59.148, 15 49.500 C 15 41, 15 41, 10.500 41 C 6 41, 6 41, 6 46.100 M 17 50.025 C 17 58.792, 17.073 59.077, 19.565 60.025 C 25.716 62.363, 26 61.965, 26 51 C 26 41, 26 41, 21.500 41 C 17 41, 17 41, 17 50.025 M 27 51.500 C 27 62, 27 62, 32 62 C 37 62, 37 62, 37 51.500 C 37 41, 37 41, 32 41 C 27 41, 27 41, 27 51.500 M 38 51 C 38 61.965, 38.284 62.363, 44.435 60.025 C 49.859 57.963, 48.134 41, 42.500 41 C 38 41, 38 41, 38 51 M 49 49.500 C 49 59.148, 49.551 59.649, 54.600 54.600 C 60.333 48.867, 59.697 41, 53.500 41 C 49 41, 49 41, 49 49.500" stroke="none" fill="#000000" fill-rule="evenodd"/><path d="M 28 51 C 28 61, 28 61, 32 61 C 36 61, 36 61, 36 51 C 36 41, 36 41, 32 41 C 28 41, 28 41, 28 51" stroke="none" fill="#9bc6ff" fill-rule="evenodd"/><path d="M 26.750 2.737 C 29.638 2.939, 34.362 2.939, 37.250 2.737 C 40.138 2.535, 37.775 2.370, 32 2.370 C 26.225 2.370, 23.862 2.535, 26.750 2.737 M 17.667 41.667 C 14.607 44.726, 17.199 58.807, 21 59.772 C 25 60.787, 25 60.787, 25 50.894 C 25 41.213, 21.954 37.380, 17.667 41.667 M 39 50.833 C 39 60.787, 39 60.787, 43.037 59.763 C 49.151 58.211, 48.896 41.698, 42.750 41.190 C 39 40.879, 39 40.879, 39 50.833" stroke="none" fill="#f5737f" fill-rule="evenodd"/><path d="M 7 46.017 C 7 51.154, 10.707 57, 13.965 57 C 17.668 57, 14.516 41.501, 10.750 41.190 C 7 40.879, 7 40.879, 7 46.017 M 49.667 41.667 C 48.519 42.814, 48.899 57, 50.077 57 C 53.276 57, 57 51.125, 57 46.077 C 57 41.119, 52.763 38.571, 49.667 41.667" stroke="none" fill="#91d9b9" fill-rule="evenodd"/><path d="M 21 4.032 C 21 5.605, 23.815 12, 24.508 12 C 24.844 12, 24.846 11.559, 24.513 11.021 C 22.768 8.197, 26.045 6, 32 6 C 37.955 6, 41.232 8.197, 39.487 11.021 C 39.154 11.559, 39.156 12, 39.492 12 C 40.185 12, 43 5.605, 43 4.032 C 43 3.385, 38.895 3, 32 3 C 25.105 3, 21 3.385, 21 4.032" stroke="none" fill="#ffe6c0" fill-rule="evenodd"/><path d="M 19.132 18.500 C 17.001 20.425, 14.781 22, 14.198 22 C 13.616 22, 12.985 23.012, 12.796 24.250 C 12.604 25.508, 11.856 26.371, 11.098 26.207 C 10.171 26.007, 9.918 26.578, 10.295 28.020 C 10.598 29.178, 10.205 31.658, 9.423 33.531 C 8.640 35.403, 8 37.175, 8 37.468 C 8 37.761, 18.830 38, 32.067 38 C 59.438 38, 57.457 38.903, 52.354 28.750 C 48.398 20.880, 42.075 15, 37.566 15 C 33.788 15, 33.788 15, 36.894 17.901 C 40.313 21.095, 41.355 27, 38.500 27 C 37.587 27, 37 26.069, 37 24.622 C 37 19.452, 34.138 19.500, 33.808 24.676 C 33.278 32.972, 30.567 31.145, 30.206 22.250 C 29.844 13.305, 26.235 12.083, 19.132 18.500" stroke="none" fill="" fill-rule="evenodd"/><path d="" stroke="none" fill="#090a09" fill-rule="evenodd"/><path d="M 19.750 38.747 C 26.487 38.920, 37.512 38.920, 44.250 38.747 C 50.987 38.574, 45.475 38.432, 32 38.432 C 18.525 38.432, 13.012 38.574, 19.750 38.747" stroke="none" fill="#d6aa7b" fill-rule="evenodd"/></svg>