<svg xmlns="http://www.w3.org/2000/svg" width="64" height="64" viewBox="0 0 64 64" version="1.1"><path d="" stroke="none" fill="#7f6740" fill-rule="evenodd"/><path d="" stroke="none" fill="#be9a5f" fill-rule="evenodd"/><path d="M 27.803 8.750 C 27.584 11.363, 27.764 13.650, 28.203 13.833 C 28.641 14.017, 29 14.981, 29 15.976 C 29 17.980, 31.245 19.227, 33.379 18.408 C 34.808 17.860, 35.970 12.892, 35.989 7.250 L 36 4 32.101 4 L 28.201 4 27.803 8.750 M 16.993 28.750 L 12.135 33.500 11.463 45.659 L 10.790 57.817 13.063 59.034 C 15.920 60.563, 48.398 60.392, 51.313 58.833 C 53.124 57.864, 53.233 57.062, 52.658 48.967 C 52.196 42.448, 52.354 40.005, 53.266 39.578 C 54.240 39.122, 54.236 38.877, 53.250 38.417 C 52.563 38.096, 52 36.807, 52 35.554 C 52 33.261, 43.199 24, 41.020 24 C 39.615 24, 42.682 28.664, 44.560 29.385 C 46.448 30.109, 46.417 33.903, 44.518 34.631 C 43.418 35.054, 43.289 35.672, 44.018 37.034 C 46.156 41.028, 45.213 52.878, 42.545 55.545 C 31.454 66.637, 12.473 51.064, 19.982 37.034 C 20.711 35.672, 20.582 35.054, 19.482 34.631 C 17.583 33.903, 17.552 30.109, 19.440 29.385 C 21.358 28.649, 24.387 24, 22.949 24 C 22.345 24, 19.665 26.137, 16.993 28.750 M 28.400 25.436 C 25.387 26.740, 24 28.677, 24 31.582 C 24 32.688, 25.761 33, 32 33 L 40 33 40 30.523 C 40 26.179, 33.386 23.279, 28.400 25.436" stroke="none" fill="" fill-rule="evenodd"/><path d="M 21.250 10.706 C 17.503 11.428, 19.157 16.105, 23.628 17.428 C 25.845 18.084, 27.462 14.368, 26.290 11.313 C 25.780 9.984, 25.298 9.926, 21.250 10.706 M 38 13.951 C 38 17.821, 38.169 18.085, 40.250 17.466 C 42.767 16.719, 45 14.294, 45 12.309 C 45 11.589, 44.438 10.994, 43.750 10.986 C 43.063 10.979, 41.487 10.701, 40.250 10.370 C 38.179 9.815, 38 10.100, 38 13.951" stroke="none" fill="#cc4732" fill-rule="evenodd"/><path d="M 15.879 20.354 C 16.907 21.593, 18.884 21.984, 23.872 21.937 C 31.567 21.863, 29.850 20.625, 20.419 19.447 C 15.007 18.770, 14.628 18.846, 15.879 20.354 M 39.112 20.081 C 32.547 21.370, 32.907 22, 40.211 22 C 44.808 22, 47.125 21.554, 48 20.500 C 49.458 18.743, 46.609 18.609, 39.112 20.081 M 21.646 35.452 C 17.793 39.023, 17.672 51.763, 21.455 55.545 C 25.131 59.222, 38.869 59.222, 42.545 55.545 C 54.436 43.655, 33.998 24.005, 21.646 35.452 M 22.455 36.455 C 20.923 37.986, 20 40.054, 20 41.955 L 20 45 32 45 L 44 45 44 41.955 C 44 38.181, 40.082 34, 36.545 34 C 34.232 34, 34 34.373, 34 38.105 L 34 42.210 38 41.829 C 40.200 41.619, 42 41.797, 42 42.224 C 42 42.651, 39.975 43, 37.500 43 L 33 43 33 38.500 C 33 36.025, 32.550 34, 32 34 C 31.450 34, 31 36.025, 31 38.500 L 31 43 26.500 43 C 24.025 43, 22 42.651, 22 42.224 C 22 41.797, 23.800 41.619, 26 41.829 L 30 42.210 30 38.105 C 30 33.102, 26.559 32.350, 22.455 36.455 M 20 49.045 C 20 52.819, 23.918 57, 27.455 57 C 29.768 57, 30 56.627, 30 52.895 L 30 48.790 26 49.171 C 23.800 49.381, 22 49.203, 22 48.776 C 22 48.349, 22.450 48, 23 48 C 23.550 48, 24 47.550, 24 47 C 24 46.450, 23.100 46, 22 46 C 20.438 46, 20 46.667, 20 49.045 M 26 47 C 26 47.550, 27.125 48, 28.500 48 C 30.796 48, 31 48.367, 31 52.500 C 31 54.975, 31.450 57, 32 57 C 32.550 57, 33 54.975, 33 52.500 L 33 48 37.500 48 C 39.975 48, 42 48.349, 42 48.776 C 42 49.203, 40.200 49.381, 38 49.171 L 34 48.790 34 52.895 C 34 56.627, 34.232 57, 36.545 57 C 40.082 57, 44 52.819, 44 49.045 L 44 46 35 46 C 29.667 46, 26 46.407, 26 47" stroke="none" fill="#fdce7f" fill-rule="evenodd"/><path d="M 24.816 4.723 C 24.558 6.945, 23.762 7.658, 20.500 8.588 C 16.834 9.634, 16.521 9.992, 16.754 12.865 C 16.961 15.420, 16.637 16, 15.004 16 C 12.216 16, 12.198 21.482, 14.980 23.220 L 16.960 24.456 13.299 28.206 L 9.638 31.955 8.703 45.020 C 7.852 56.909, 7.927 58.262, 9.539 60.043 C 11.375 62.072, 16 62.757, 16 61 C 16 60.450, 15.116 60, 14.035 60 C 10.579 60, 10.017 57.099, 11.015 44.392 L 11.948 32.500 16.697 28.250 C 19.308 25.913, 22.315 24, 23.378 24 L 25.310 24 23.405 26.212 C 22.357 27.429, 20.600 29.200, 19.500 30.148 C 17.617 31.770, 17.599 31.972, 19.200 33.600 C 21.286 35.722, 24.395 33.820, 23.492 30.974 C 22.732 28.579, 28.318 24, 32 24 C 35.682 24, 41.268 28.579, 40.508 30.974 C 39.625 33.757, 42.700 35.728, 44.741 33.688 C 46.261 32.168, 46.105 31.772, 42.601 28.274 C 37.243 22.925, 40.631 22.516, 46.837 27.762 C 50.264 30.660, 51.583 32.539, 51.813 34.852 C 52.018 36.905, 52.670 38, 53.688 38 C 56.311 38, 54.393 31.987, 50.499 27.999 L 47.040 24.456 49.020 23.220 C 51.802 21.482, 51.784 16, 48.996 16 C 47.357 16, 47.039 15.420, 47.246 12.808 C 47.480 9.868, 47.183 9.525, 43.500 8.474 C 40.270 7.551, 39.439 6.819, 39.184 4.666 L 38.867 2 32 2 L 25.133 2 24.816 4.723 M 27.384 8 C 27.957 11.586, 26.753 13.760, 25.792 10.875 C 24.880 8.139, 18.787 11.015, 19.497 13.846 C 20.303 17.054, 19.937 16.695, 23.252 17.527 C 25.599 18.116, 26 17.909, 26 16.108 C 26 14.949, 26.450 14, 27 14 C 27.550 14, 28 14.884, 28 15.965 C 28 18.672, 31.400 20.392, 34 19 C 35.359 18.273, 36.004 16.899, 36.011 14.715 C 36.017 12.947, 36.301 9.813, 36.642 7.750 L 37.262 4 32.003 4 L 26.744 4 27.384 8 M 38 14.108 L 38 18.217 40.748 17.527 C 44.061 16.695, 43.699 17.048, 44.493 13.884 C 45.036 11.719, 44.751 11.166, 42.824 10.650 C 38.487 9.488, 38 9.838, 38 14.108 M 15.162 19.617 C 15.472 21.239, 16.608 21.541, 23.347 21.794 C 32.120 22.123, 33.062 20.657, 24.772 19.576 C 21.873 19.198, 18.443 18.628, 17.151 18.311 C 15.243 17.842, 14.870 18.087, 15.162 19.617 M 40.319 19.372 C 31.304 21.017, 31.400 22.135, 40.527 21.796 C 47.165 21.549, 48.534 21.211, 48.812 19.750 C 49.187 17.791, 49.024 17.784, 40.319 19.372 M 22.923 36.923 C 21.205 38.641, 20 40.908, 20 42.423 L 20 45 32 45 L 44 45 44 42.423 C 44 39.300, 39.015 34, 36.077 34 C 34.321 34, 34 34.617, 34 38 L 34 42 37.583 42 C 40.020 42, 41.025 41.600, 40.723 40.750 C 40.479 40.063, 39.317 39.607, 38.140 39.738 C 36.591 39.911, 36 39.427, 36 37.988 C 36 35.453, 37.457 35.457, 40 38 C 43.391 41.391, 42.587 43, 37.500 43 L 33 43 33 38.500 C 33 36.025, 32.550 34, 32 34 C 31.450 34, 31 36.025, 31 38.500 L 31 43 26.500 43 C 21.413 43, 20.609 41.391, 24 38 C 26.543 35.457, 28 35.453, 28 37.988 C 28 39.427, 27.409 39.911, 25.860 39.738 C 24.683 39.607, 23.521 40.063, 23.277 40.750 C 22.975 41.600, 23.980 42, 26.417 42 L 30 42 30 38 C 30 32.962, 27.296 32.551, 22.923 36.923 M 53.238 48.340 C 54.002 60.581, 54.913 60, 34.950 60 C 24.317 60, 18 60.373, 18 61 C 18 61.629, 24.492 62, 35.477 62 L 52.954 62 54.595 59.496 C 55.952 57.424, 56.113 55.522, 55.528 48.496 C 54.583 37.151, 52.532 37.011, 53.238 48.340 M 20 48.577 C 20 51.700, 24.985 57, 27.923 57 C 29.679 57, 30 56.383, 30 53 L 30 49 26.417 49 C 23.980 49, 22.975 49.400, 23.277 50.250 C 23.521 50.938, 24.683 51.393, 25.860 51.262 C 27.409 51.089, 28 51.573, 28 53.012 C 28 55.547, 26.543 55.543, 24 53 C 21.889 50.889, 21.312 48, 23 48 C 23.550 48, 24 47.550, 24 47 C 24 46.450, 23.100 46, 22 46 C 20.517 46, 20 46.667, 20 48.577 M 26 47 C 26 47.550, 27.125 48, 28.500 48 C 30.796 48, 31 48.367, 31 52.500 C 31 54.975, 31.450 57, 32 57 C 32.550 57, 33 54.975, 33 52.500 L 33 48 37.500 48 C 42.587 48, 43.391 49.609, 40 53 C 37.457 55.543, 36 55.547, 36 53.012 C 36 51.573, 36.591 51.089, 38.140 51.262 C 39.317 51.393, 40.479 50.938, 40.723 50.250 C 41.025 49.400, 40.020 49, 37.583 49 L 34 49 34 53 C 34 56.383, 34.321 57, 36.077 57 C 39.015 57, 44 51.700, 44 48.577 L 44 46 35 46 C 29.667 46, 26 46.407, 26 47" stroke="none" fill="#100b08" fill-rule="evenodd"/><path d="" stroke="none" fill="#e6583a" fill-rule="evenodd"/></svg>