<svg xmlns="http://www.w3.org/2000/svg" width="64" height="64" viewBox="0 0 64 64" version="1.1"><path d="M 20 1.500 C 19.315 2.325, 17.423 3, 15.794 3 C 12.222 3, 12.154 2.802, 19 12.320 C 24.164 19.500, 24.729 19.968, 28.250 19.984 L 32 20 32 11.910 C 32 1.565, 24.992 -4.515, 20 1.500 M 34 23.777 C 34 28.146, 36.170 31.734, 39.601 33.038 C 41.043 33.587, 42 34.758, 42 35.975 C 42 38.699, 38.126 38.673, 34.635 35.927 L 32 33.855 32 40.427 L 32 47 42.639 47 L 53.279 47 52.696 42.078 C 51.079 28.432, 34 11.714, 34 23.777" stroke="none" fill="" fill-rule="evenodd"/><path d="M 34.750 1.758 C 32.109 3.396, 32 3.792, 32 11.732 L 32 20 35.750 19.937 C 39.241 19.879, 39.880 19.354, 45 12.342 C 51.791 3.042, 51.803 3.007, 48.333 2.968 C 46.775 2.951, 44.626 2.276, 43.559 1.468 C 41.027 -0.447, 38.154 -0.352, 34.750 1.758" stroke="none" fill="#e62e2e" fill-rule="evenodd"/><path d="M 32 26.845 C 32 33.160, 33.113 34.952, 38.252 36.906 C 40.675 37.827, 41 37.717, 41 35.975 C 41 34.889, 40.403 34, 39.674 34 C 36.900 34, 34 29.495, 34 25.186 C 34 22.883, 33.550 21, 33 21 C 32.447 21, 32 23.615, 32 26.845" stroke="none" fill="#6b463e" fill-rule="evenodd"/><path d="M 30.750 20.576 C 30.337 20.993, 30 23.205, 30 25.492 C 30 29.662, 27.035 34, 24.186 34 C 23.533 34, 23 34.675, 23 35.500 C 23 37.597, 26.323 37.370, 29.139 35.080 C 31.354 33.279, 31.623 33.263, 33.500 34.830 C 35.445 36.454, 35.453 36.444, 33.804 34.481 C 32.699 33.165, 32.002 30.258, 31.804 26.140 C 31.637 22.663, 31.163 20.160, 30.750 20.576" stroke="none" fill="#80564d" fill-rule="evenodd"/><path d="M 44 55.500 C 44 62.171, 44.305 64, 45.418 64 C 50.185 64, 53 59.563, 53 52.050 L 53 47 48.500 47 L 44 47 44 55.500" stroke="none" fill="#ffbe40" fill-rule="evenodd"/><path d="M 36 55.500 L 36 64 40 64 L 44 64 44 55.500 L 44 47 40 47 L 36 47 36 55.500" stroke="none" fill="#59abff" fill-rule="evenodd"/><path d="M 11 51.992 C 11 59.588, 13.801 64, 18.622 64 C 19.806 64, 20.026 62.445, 19.790 55.750 L 19.500 47.500 15.250 47.193 L 11 46.885 11 51.992" stroke="none" fill="#ffdf40" fill-rule="evenodd"/><path d="M 20 55.500 L 20 64 23.500 64 L 27 64 27 55.500 L 27 47 23.500 47 L 20 47 20 55.500" stroke="none" fill="#66ccff" fill-rule="evenodd"/><path d="M 27.204 55.750 L 27.407 64.500 27.744 56.250 C 28.250 43.855, 32 43.635, 32 56 C 32 63.333, 32.167 64, 34 64 C 35.843 64, 36 63.333, 36 55.500 L 36 47 31.500 47 L 27 47 27.204 55.750" stroke="none" fill="#e1e6f0" fill-rule="evenodd"/><path d="M 28 56 C 28 63.333, 28.167 64, 30 64 C 31.833 64, 32 63.333, 32 56 C 32 48.667, 31.833 48, 30 48 C 28.167 48, 28 48.667, 28 56" stroke="none" fill="#f3f5f9" fill-rule="evenodd"/><path d="M 44 55.500 C 44 62.171, 44.305 64, 45.418 64 C 50.185 64, 53 59.563, 53 52.050 L 53 47 48.500 47 L 44 47 44 55.500" stroke="none" fill="#ffbe40" fill-rule="evenodd"/><path d="M 36 55.500 L 36 64 40 64 L 44 64 44 55.500 L 44 47 40 47 L 36 47 36 55.500" stroke="none" fill="#59abff" fill-rule="evenodd"/><path d="M 34.750 1.758 C 32.109 3.396, 32 3.792, 32 11.732 L 32 20 35.750 19.937 C 39.241 19.879, 39.880 19.354, 45 12.342 C 51.791 3.042, 51.803 3.007, 48.333 2.968 C 46.775 2.951, 44.626 2.276, 43.559 1.468 C 41.027 -0.447, 38.154 -0.352, 34.750 1.758" stroke="none" fill="" fill-rule="evenodd"/><path d="M 19.206 25.464 C 14.011 31.149, 11 37.832, 11 43.678 L 11 47 21.500 47 L 32 47 32 40.515 L 32 34.029 28.750 36.011 C 24.545 38.575, 22 38.578, 22 36.019 C 22 34.735, 22.888 33.815, 24.523 33.405 C 28.059 32.517, 30 29.283, 30 24.277 C 30 17.677, 25.913 18.126, 19.206 25.464" stroke="none" fill="" fill-rule="evenodd"/><path d="" stroke="none" fill="#c56244" fill-rule="evenodd"/><path d="" stroke="none" fill="#90cbf9" fill-rule="evenodd"/><path d="" stroke="none" fill="#e14f36" fill-rule="evenodd"/></svg>