<?xml version="1.0" standalone="no"?>
<!DOCTYPE svg PUBLIC "-//W3C//DTD SVG 20010904//EN"
 "http://www.w3.org/TR/2001/REC-SVG-20010904/DTD/svg10.dtd">
<svg version="1.0" xmlns="http://www.w3.org/2000/svg"
 width="963.000000pt" height="965.000000pt" viewBox="0 0 963.000000 965.000000"
 preserveAspectRatio="xMidYMid meet">

<g transform="translate(0.000000,965.000000) scale(0.100000,-0.100000)"
fill="" stroke="none">
<path d="M4350 9556 c-190 -44 -336 -131 -466 -277 -178 -200 -274 -509 -245
-792 6 -58 13 -124 17 -147 l7 -43 -75 60 c-167 133 -366 171 -573 111 -127
-36 -220 -93 -321 -193 -102 -102 -151 -177 -188 -285 -30 -92 -51 -269 -42
-372 l6 -77 -132 69 c-228 118 -514 220 -701 250 -92 15 -247 8 -336 -15 -364
-94 -607 -341 -677 -686 -32 -161 -3 -367 76 -537 101 -215 239 -364 465 -502
l87 -54 -83 -18 c-224 -48 -396 -207 -469 -436 -71 -220 -39 -465 83 -649 56
-85 199 -223 274 -265 30 -17 53 -32 51 -33 -2 -2 -38 -17 -80 -34 -235 -93
-540 -280 -695 -424 -117 -110 -207 -263 -254 -432 -33 -121 -38 -312 -10
-427 75 -317 300 -541 636 -635 68 -18 124 -26 230 -30 170 -6 270 9 438 67
64 22 119 40 121 40 3 0 -13 -34 -34 -76 -48 -94 -64 -162 -63 -274 1 -151 48
-281 149 -409 71 -92 154 -158 268 -215 106 -54 198 -76 316 -76 110 0 269 24
327 50 25 11 48 19 50 17 2 -3 -1 -16 -7 -31 -17 -47 -69 -258 -84 -346 -25
-148 -39 -336 -34 -473 5 -112 10 -146 37 -227 54 -167 177 -349 306 -452 182
-147 457 -218 675 -174 184 37 357 133 500 276 131 131 205 255 281 469 36
103 37 105 49 76 82 -212 243 -353 458 -401 103 -23 290 -15 382 16 156 53
284 137 368 245 57 72 140 221 158 282 9 29 17 53 19 53 2 0 25 -30 51 -68
181 -255 481 -550 648 -634 152 -77 280 -102 482 -96 123 4 150 8 229 35 146
50 218 96 330 208 111 111 154 176 198 298 41 116 57 212 57 335 -1 213 -51
384 -172 586 -43 71 -76 131 -74 133 1 2 23 -4 47 -13 67 -25 230 -30 309 -10
240 61 419 235 505 491 33 97 45 269 26 366 -17 83 -84 253 -125 314 l-33 50
246 1 c260 0 425 18 607 64 155 40 303 129 423 255 113 120 169 211 217 355
26 79 28 96 28 245 0 146 -3 168 -28 250 -61 202 -219 394 -427 520 -141 85
-303 137 -492 157 l-117 13 64 47 c71 51 143 136 181 213 97 197 82 460 -37
662 -81 137 -169 225 -289 288 -96 50 -243 97 -329 104 l-75 6 65 71 c151 163
299 382 401 589 72 147 88 208 96 351 17 313 -104 598 -324 764 -82 62 -224
134 -313 157 -97 26 -348 24 -450 -4 -212 -58 -362 -145 -524 -303 -57 -55
-105 -100 -107 -100 -2 0 -4 46 -4 103 0 72 -6 118 -19 157 -73 218 -229 370
-461 447 -72 24 -95 27 -230 27 -131 1 -159 -2 -220 -22 -116 -39 -292 -148
-360 -223 -42 -47 -55 -49 -55 -9 0 39 -45 249 -76 357 -39 134 -90 267 -154
399 -51 104 -71 134 -141 209 -126 132 -267 222 -434 275 -87 28 -316 37 -405
16z m300 -110 c161 -29 325 -121 453 -255 63 -66 86 -99 131 -193 71 -146 120
-281 162 -444 32 -124 77 -374 68 -383 -2 -2 -35 10 -73 28 -39 18 -114 47
-168 65 l-98 33 -6 129 c-11 226 -77 401 -198 523 -224 226 -547 212 -793 -34
-184 -184 -221 -481 -90 -726 1 -4 -20 -21 -48 -38 -28 -17 -71 -50 -96 -73
-34 -32 -47 -39 -54 -29 -4 8 -20 57 -34 111 -62 230 -75 494 -32 661 67 266
227 473 440 569 141 64 285 83 436 56z m35 -476 c195 -66 325 -295 325 -571 0
-87 0 -87 -68 -73 -29 6 -30 7 -37 83 -8 91 -38 228 -64 285 -37 85 -123 156
-204 170 -48 9 -138 -9 -198 -40 -84 -42 -162 -157 -196 -287 -15 -61 -14
-207 2 -249 5 -12 -5 -20 -47 -36 -65 -24 -67 -22 -104 96 -23 72 -26 95 -21
165 10 159 65 270 178 363 141 115 282 146 434 94z m1598 -530 c149 -22 297
-97 382 -193 61 -70 112 -175 126 -263 24 -148 -31 -306 -145 -420 -35 -35
-68 -64 -73 -64 -6 0 -15 12 -22 26 -10 24 -7 36 33 113 61 118 79 186 75 280
-13 278 -320 452 -608 345 -125 -47 -231 -134 -305 -251 -14 -24 -30 -43 -34
-43 -4 0 -32 25 -62 55 l-55 55 23 43 c89 168 353 323 552 326 25 0 76 -4 113
-9z m-2957 -74 c138 -36 259 -135 318 -258 52 -111 77 -268 42 -268 -28 0 -66
20 -66 34 0 8 -21 56 -47 107 -99 199 -251 289 -435 259 -92 -14 -163 -54
-243 -134 -111 -112 -150 -216 -149 -391 1 -78 6 -116 26 -176 l25 -75 -81
-12 c-92 -14 -85 -18 -118 78 -20 55 -23 83 -21 180 4 217 54 340 193 480 88
89 160 133 280 171 67 22 204 24 276 5z m1652 -162 c165 -24 358 -93 478 -169
56 -36 164 -131 164 -145 0 -7 -234 -30 -303 -30 -32 0 -48 8 -90 46 -68 60
-210 128 -322 155 -119 29 -258 29 -381 1 -114 -26 -292 -92 -354 -132 -54
-35 -134 -116 -152 -155 -6 -14 -16 -25 -22 -25 -31 0 -159 36 -163 46 -9 24
41 100 111 170 138 137 347 221 616 247 100 10 323 5 418 -9z m1397 -53 c59
-26 118 -80 148 -136 31 -57 30 -179 -2 -252 -13 -29 -26 -53 -30 -53 -9 0
-81 176 -81 199 0 42 -27 53 -114 47 -45 -3 -126 -8 -181 -11 -55 -4 -142 -13
-193 -21 -52 -9 -96 -13 -99 -10 -3 3 16 36 43 73 54 74 136 136 226 172 72
29 209 25 283 -8z m1565 -33 c218 -41 428 -219 516 -436 57 -142 75 -363 40
-505 -31 -129 -169 -379 -318 -575 -71 -93 -231 -274 -249 -280 -5 -2 -9 5 -9
16 0 30 -47 189 -77 261 l-27 64 39 30 c80 61 202 194 249 269 121 196 137
395 45 577 -81 162 -236 260 -463 293 -76 11 -98 10 -166 -4 -97 -20 -230 -85
-301 -146 -53 -47 -144 -175 -155 -219 -4 -12 -7 -23 -8 -23 0 0 -24 9 -53 20
-28 10 -79 24 -114 29 -34 6 -64 13 -67 15 -10 11 120 176 227 288 74 77 145
139 201 177 213 142 451 194 690 149z m-4607 -21 c24 -14 58 -42 76 -62 33
-38 75 -114 68 -122 -7 -6 -179 45 -191 57 -21 21 -65 11 -90 -22 -68 -87
-200 -282 -241 -355 -26 -46 -48 -83 -50 -83 -8 0 -45 129 -50 175 -8 61 16
188 45 245 40 78 126 156 207 186 60 23 171 13 226 -19z m1577 -155 c36 -11
99 -36 140 -57 87 -45 94 -39 -90 -74 -122 -23 -310 -85 -428 -142 -63 -30
-87 -38 -97 -29 -7 6 -73 24 -146 41 -159 35 -169 38 -169 48 0 15 85 93 122
112 74 38 196 82 293 105 121 29 269 27 375 -4z m-1384 -173 c86 -28 159 -58
169 -69 11 -13 31 -20 52 -20 19 0 71 -9 116 -20 45 -11 163 -38 262 -60 99
-22 186 -43 193 -45 9 -3 -17 -30 -65 -69 -43 -35 -97 -83 -120 -107 -64 -67
-179 -226 -218 -301 -20 -37 -38 -68 -39 -68 -2 0 -29 11 -61 25 -133 59 -277
90 -485 105 -202 14 -393 -15 -525 -79 -33 -17 -61 -28 -63 -27 -1 2 48 82
111 177 63 96 142 223 176 283 33 59 100 163 147 231 l86 123 57 -15 c31 -8
124 -36 207 -64z m2807 14 c55 -122 127 -334 127 -372 0 -27 6 -44 18 -53 10
-7 28 -35 39 -63 12 -27 67 -144 123 -259 55 -115 99 -210 98 -211 -2 -2 -41
6 -88 17 -149 34 -472 35 -597 2 -15 -4 -24 -1 -26 7 -49 180 -111 315 -215
469 -122 183 -265 318 -405 386 -79 37 -76 40 63 49 139 9 343 33 440 51 74
14 223 28 356 33 41 1 41 1 67 -56z m-4628 -55 c206 -47 485 -160 681 -275
l102 -59 -86 -44 c-48 -24 -119 -66 -159 -93 l-73 -48 -60 49 c-211 171 -474
241 -675 181 -43 -12 -104 -40 -136 -61 -163 -105 -239 -258 -239 -483 0 -172
42 -281 158 -406 97 -105 178 -153 307 -184 l49 -11 1 -122 c0 -67 -3 -122 -6
-122 -16 0 -162 65 -238 107 -223 121 -373 251 -470 407 -102 164 -156 383
-131 534 32 197 122 359 264 473 149 121 383 197 561 182 33 -2 101 -14 150
-25z m6040 -23 c151 -39 254 -114 305 -220 73 -153 52 -320 -60 -488 -47 -71
-134 -161 -197 -205 l-31 -22 -21 34 c-12 18 -21 38 -21 44 0 6 30 39 66 74
161 153 228 302 194 427 -15 57 -95 142 -165 177 -145 70 -362 17 -502 -122
-35 -35 -66 -64 -68 -64 -3 0 -24 11 -46 25 -48 31 -47 39 13 132 62 96 135
152 262 199 74 28 184 31 271 9z m-2548 -49 c151 -32 243 -85 373 -216 143
-143 282 -375 330 -553 12 -43 20 -80 18 -82 -16 -15 -204 -103 -208 -97 -4 4
-12 31 -18 61 -18 78 -81 207 -137 276 -112 138 -252 234 -400 272 -93 24
-274 24 -365 0 -391 -104 -682 -515 -682 -963 0 -67 2 -134 6 -150 5 -26 1
-32 -38 -56 -24 -16 -46 -28 -48 -28 -5 0 -38 66 -66 130 -50 116 -72 309 -53
455 53 396 397 780 828 924 51 17 121 35 155 40 78 12 212 6 305 -13z m1713
-287 c66 -14 255 -110 330 -167 102 -77 282 -271 356 -383 159 -241 246 -519
225 -713 -5 -43 -11 -79 -13 -82 -3 -2 -57 52 -122 121 l-117 124 7 58 c13
117 -38 301 -122 445 -81 138 -267 293 -469 390 -89 42 -91 43 -197 43 l-108
0 -31 72 c-18 39 -32 75 -33 80 -4 30 176 38 294 12z m-5201 -34 c88 -21 219
-84 303 -146 l70 -52 -35 -35 -35 -35 -90 57 c-193 123 -339 152 -451 91 -60
-33 -97 -82 -131 -172 -24 -63 -25 -109 -5 -182 35 -132 122 -246 240 -315 72
-43 73 -45 42 -116 l-12 -28 -55 14 c-147 38 -265 135 -334 276 -85 172 -48
420 81 540 112 104 255 140 412 103z m1082 -12 c-5 -10 -47 -74 -93 -142 l-83
-125 -70 -12 c-39 -6 -90 -20 -115 -29 -162 -64 -341 -217 -418 -358 -95 -173
-152 -358 -152 -486 1 -75 7 -108 34 -171 4 -11 -15 -31 -65 -68 -69 -51 -72
-52 -86 -33 -30 44 -45 109 -50 221 -9 205 48 380 199 610 88 133 168 226 276
324 184 164 429 284 585 285 43 1 47 -1 38 -16z m2354 -125 c92 -27 148 -56
216 -115 134 -114 207 -240 239 -412 l10 -54 -69 -71 c-81 -84 -159 -200 -198
-295 l-28 -69 -82 -6 c-69 -6 -141 -22 -236 -53 -12 -4 -5 15 28 73 59 103 97
204 134 350 65 260 59 386 -21 461 -144 134 -379 -51 -458 -361 -25 -98 -27
-291 -5 -416 8 -47 15 -88 15 -93 0 -4 -18 6 -41 23 -91 66 -238 95 -359 71
-34 -7 -64 -10 -67 -8 -2 3 -4 60 -4 128 0 156 29 279 100 424 58 117 120 197
214 276 188 158 401 209 612 147z m1726 -114 c116 -34 322 -172 420 -282 82
-91 177 -310 167 -388 -3 -23 -8 -20 -93 56 -49 44 -108 91 -130 104 -22 13
-87 53 -145 89 -58 37 -129 76 -157 88 -29 12 -53 27 -53 34 0 6 -31 78 -70
158 -38 80 -70 148 -70 151 0 12 78 6 131 -10z m-3465 -65 c132 -13 265 -46
360 -88 l70 -32 -17 -67 c-10 -37 -18 -83 -19 -102 -1 -58 -10 -63 -66 -36
-109 53 -190 70 -319 70 -191 -1 -323 -42 -457 -140 -120 -89 -226 -244 -267
-394 -42 -148 -38 -357 9 -505 72 -228 219 -431 410 -566 l90 -64 0 -46 c0
-25 -3 -48 -6 -51 -8 -8 -117 18 -203 48 -82 30 -218 116 -299 189 -175 158
-284 400 -314 697 -16 155 -1 323 42 467 60 201 119 300 254 429 183 173 386
226 732 191z m-886 -103 c0 -2 -29 -55 -65 -118 -36 -64 -65 -124 -65 -134 0
-11 -13 -51 -30 -90 -32 -77 -80 -245 -80 -281 0 -13 -6 -23 -14 -23 -7 0 -71
-46 -140 -101 -98 -79 -130 -99 -139 -90 -8 8 -12 45 -12 99 1 74 6 103 38
196 75 218 160 347 292 441 82 59 215 122 215 101z m3987 -167 c284 -39 547
-160 706 -324 79 -81 159 -214 194 -320 23 -70 26 -96 26 -210 -1 -112 -5
-147 -31 -246 -52 -203 -141 -396 -226 -494 l-33 -40 -66 33 c-37 17 -68 32
-71 32 -2 0 -20 7 -40 15 l-36 15 39 50 c104 131 151 265 158 450 5 109 3 135
-17 205 -42 151 -100 245 -216 354 -139 129 -317 199 -535 208 -288 12 -558
-88 -768 -285 l-63 -59 -49 15 c-27 9 -49 20 -49 24 0 13 49 107 88 168 69
108 209 235 342 308 165 91 425 132 647 101z m-2927 -120 c41 -11 105 -37 142
-56 l66 -36 7 -61 c15 -137 49 -249 122 -392 l25 -51 -40 -59 c-46 -67 -102
-180 -102 -206 0 -41 -19 -22 -45 45 -82 216 -316 521 -446 582 -149 69 -269
-19 -269 -199 0 -235 210 -505 502 -647 46 -22 54 -39 19 -39 -10 0 -50 -16
-89 -35 -83 -42 -162 -123 -207 -210 l-28 -56 -26 17 c-95 61 -184 145 -252
235 -60 81 -141 249 -165 344 -24 93 -24 284 -1 375 59 226 241 408 457 454
100 22 242 20 330 -5z m2944 -288 c134 -35 218 -83 311 -175 95 -94 143 -180
171 -303 30 -134 5 -306 -62 -434 -33 -63 -112 -165 -139 -181 -7 -4 -54 -2
-105 4 -106 12 -241 0 -357 -32 l-67 -18 -59 64 c-32 35 -87 83 -123 106 -35
23 -62 43 -60 45 1 2 43 10 92 18 223 39 532 179 629 287 101 112 79 234 -55
301 -60 30 -71 32 -165 31 -175 -1 -328 -65 -494 -206 -44 -37 -101 -94 -128
-127 -26 -33 -51 -60 -55 -60 -5 -1 -8 14 -8 32 0 49 -27 144 -58 201 -15 28
-57 81 -95 118 l-67 67 60 50 c88 73 142 109 225 146 203 93 416 115 609 66z
m1756 -201 c124 -41 191 -80 265 -154 115 -116 174 -234 198 -397 9 -68 9 -93
-5 -159 -42 -205 -170 -345 -359 -395 -63 -17 -198 -19 -252 -4 -37 10 -37 10
-23 38 13 25 25 30 122 50 206 43 318 130 366 283 63 205 -53 443 -265 543
-114 54 -185 69 -303 62 l-100 -7 10 83 11 82 40 7 c80 13 196 1 295 -32z
m-143 -614 l62 -71 -31 -55 c-99 -176 -191 -320 -208 -325 -11 -4 -23 -18 -26
-33 -7 -32 -256 -552 -264 -552 -4 0 -17 25 -29 55 -54 130 -209 339 -331 447
-33 29 -60 56 -60 60 0 4 21 36 46 70 97 133 205 402 238 597 24 139 21 254
-9 397 -6 26 40 -15 272 -244 153 -151 306 -307 340 -346z m-3606 567 c82 -36
141 -101 188 -207 46 -105 60 -121 95 -112 19 5 33 22 55 70 50 105 138 171
263 201 66 15 168 20 168 8 0 -4 -41 -111 -91 -238 l-90 -231 -55 -28 c-129
-68 -243 -265 -309 -533 -15 -62 -32 -113 -37 -113 -5 0 -8 102 -6 248 2 179
0 259 -10 289 -17 58 -69 122 -127 158 -40 25 -59 30 -110 30 -39 0 -68 -5
-79 -14 -10 -8 -20 -11 -26 -5 -5 5 -61 101 -125 213 -86 152 -113 206 -105
216 16 19 105 55 174 70 77 17 155 10 227 -22z m-2268 -110 c8 -178 47 -352
110 -495 l26 -58 -67 -35 c-146 -77 -360 -268 -479 -429 -62 -82 -148 -264
-164 -342 -7 -35 -16 -61 -20 -57 -4 5 -26 69 -50 143 -44 139 -109 320 -153
425 -13 33 -41 116 -61 185 -20 69 -38 132 -41 141 -3 10 17 31 58 61 111 81
301 198 321 198 11 0 39 18 61 41 41 41 436 358 447 359 3 0 9 -62 12 -137z
m3250 25 c81 -44 157 -119 193 -193 25 -52 29 -71 28 -143 0 -80 -2 -87 -52
-183 -29 -55 -52 -109 -52 -119 0 -11 11 -27 24 -36 23 -14 30 -14 93 1 82 20
156 10 240 -30 66 -33 189 -145 181 -167 -4 -8 -35 -23 -70 -32 -34 -10 -141
-42 -236 -72 l-172 -54 -43 22 c-32 17 -64 23 -142 26 -161 7 -295 -25 -493
-119 l-107 -50 39 40 c22 22 97 82 168 133 148 105 199 157 235 235 55 120 4
280 -100 316 -5 1 25 88 66 192 104 262 105 265 123 265 9 0 44 -15 77 -32z
m-4109 -78 c83 -21 150 -53 205 -99 l35 -29 -32 -16 c-29 -15 -36 -15 -109 6
-58 17 -105 22 -183 23 -97 0 -110 -2 -170 -31 -216 -103 -292 -363 -175 -599
65 -131 175 -230 317 -284 38 -15 69 -31 69 -37 -1 -16 -73 -134 -83 -134 -5
0 -44 14 -87 30 -130 50 -284 196 -351 334 -58 117 -77 314 -45 441 52 200
201 355 381 399 83 20 139 19 228 -4z m2764 -206 l122 -215 -11 -42 c-24 -88
18 -263 97 -404 20 -36 72 -113 116 -171 43 -57 77 -106 75 -109 -7 -6 -123
84 -208 161 -142 132 -225 176 -328 176 -100 0 -209 -72 -226 -149 -4 -17 -9
-31 -12 -31 -20 0 -469 73 -476 77 -17 11 0 92 36 167 66 140 162 212 295 223
54 4 86 0 164 -21 53 -14 104 -23 113 -20 34 14 36 50 5 115 -36 78 -47 154
-30 228 20 91 98 231 129 231 10 -1 60 -77 139 -216z m4060 140 c119 -44 183
-103 236 -214 60 -127 30 -270 -73 -346 -41 -30 -168 -81 -178 -70 -7 6 80
161 104 183 13 12 23 29 23 37 0 20 -194 240 -304 344 -54 50 -82 84 -74 87
53 18 188 8 266 -21z m-6799 -174 c22 -5 17 -11 -55 -62 -44 -30 -90 -58 -102
-62 -42 -14 -46 -44 -18 -137 13 -46 39 -131 56 -189 18 -58 45 -136 61 -174
16 -38 27 -71 25 -74 -10 -9 -109 32 -161 66 -65 44 -141 130 -168 192 -30 65
-36 214 -12 277 20 53 84 127 129 150 55 29 165 35 245 13z m1134 -486 l48
-52 -80 -42 c-140 -73 -254 -197 -341 -369 -41 -82 -60 -173 -60 -291 0 -264
131 -489 378 -654 80 -53 150 -83 279 -122 74 -22 113 -27 246 -32 169 -5 225
2 360 44 l77 25 40 -33 39 -33 -22 -23 c-12 -13 -58 -48 -102 -78 -128 -87
-346 -154 -500 -154 -354 0 -760 229 -972 547 -122 183 -153 275 -160 474 -6
158 6 219 66 344 92 192 324 430 523 536 l73 39 30 -37 c17 -21 52 -61 78 -89z
m4240 -85 c242 -48 437 -180 608 -411 70 -95 143 -235 187 -358 62 -177 80
-415 43 -562 -80 -311 -260 -486 -631 -612 -137 -46 -226 -64 -335 -68 l-89
-3 -12 60 c-7 33 -20 80 -28 104 -9 24 -16 47 -16 51 0 4 42 10 93 13 117 8
191 28 292 77 168 82 271 184 351 347 108 218 98 447 -30 700 -140 279 -470
500 -802 538 l-60 7 -17 46 c-10 25 -14 49 -10 53 16 16 161 37 256 38 64 1
135 -6 200 -20z m-4036 -85 c97 -66 228 -118 372 -147 l64 -13 29 -90 c28 -86
63 -159 97 -198 19 -22 28 -24 -109 17 -118 35 -283 51 -453 44 -205 -8 -294
-42 -337 -131 -26 -54 -25 -98 1 -152 61 -127 244 -206 474 -206 146 0 238 23
472 119 6 2 1 -24 -13 -62 -39 -108 -29 -257 26 -365 l20 -39 -67 -21 c-105
-32 -198 -43 -318 -37 -191 11 -363 69 -497 168 -291 216 -369 561 -193 849
75 121 172 208 298 265 67 31 88 31 134 -1z m3495 -52 c7 -21 13 -81 13 -137
0 -89 -3 -107 -28 -160 -55 -118 -136 -174 -295 -206 -53 -11 -101 -24 -109
-30 -7 -6 -13 -24 -13 -40 0 -23 10 -36 49 -65 95 -67 141 -169 141 -308 0
-105 -9 -156 -26 -156 -8 0 -73 41 -146 91 -72 51 -164 113 -204 140 -64 43
-73 53 -79 88 -15 92 -141 243 -281 338 -33 22 -110 66 -171 97 -62 31 -113
58 -113 60 0 7 167 -27 238 -49 256 -81 365 -73 469 30 57 58 79 112 68 174
l-6 37 233 71 c128 39 236 69 240 67 3 -2 12 -21 20 -42z m1811 -102 c124
-110 207 -339 207 -574 0 -114 -32 -338 -66 -452 -89 -308 -262 -561 -468
-684 l-39 -23 6 44 c4 24 14 102 23 172 l17 128 58 40 c110 75 225 239 278
397 31 93 44 254 31 386 -22 216 -56 316 -137 404 -24 25 -43 50 -43 54 0 16
70 148 79 148 4 0 29 -18 54 -40z m-4485 -25 l233 -35 52 -53 c108 -109 285
-166 547 -174 l165 -6 -55 -19 c-30 -10 -120 -30 -200 -43 -205 -36 -275 -62
-337 -127 -74 -77 -97 -210 -49 -281 l25 -36 -62 -59 c-196 -186 -298 -274
-312 -269 -18 8 -70 78 -100 137 -69 137 -55 291 36 394 18 21 66 63 107 93
67 49 73 57 70 86 -3 35 -23 48 -103 67 -114 26 -204 117 -255 259 -17 45 -30
86 -30 91 0 15 14 13 268 -25z m2947 5 c177 -39 390 -172 510 -318 134 -161
198 -364 175 -550 -27 -210 -148 -375 -353 -478 -95 -48 -178 -65 -299 -62
l-102 3 -45 75 c-50 84 -189 228 -264 275 -37 23 -47 34 -42 50 16 61 26 205
17 253 -5 28 -7 54 -4 56 2 3 40 -27 83 -67 162 -151 480 -308 624 -309 77 0
125 20 161 68 26 33 29 46 29 108 0 96 -27 150 -125 246 -151 149 -324 218
-593 236 l-98 7 50 51 c80 82 131 208 131 323 0 51 1 53 28 53 15 0 68 -9 117
-20z m2210 -24 c223 -38 404 -133 552 -289 147 -157 206 -300 207 -507 0 -183
-46 -317 -162 -462 -124 -155 -275 -252 -459 -293 -236 -53 -494 -72 -713 -55
-80 6 -147 13 -149 16 -3 2 7 17 21 32 35 37 109 146 147 213 l31 56 77 -18
c221 -53 463 -25 610 70 105 68 187 170 229 286 29 80 25 228 -10 330 -62 183
-157 296 -311 371 -127 61 -219 79 -333 65 -48 -6 -97 -13 -108 -17 -19 -5
-24 0 -34 33 -7 21 -29 70 -50 110 l-39 72 27 5 c54 9 379 -3 467 -18z m-7220
-204 l50 -153 -38 -68 c-60 -110 -80 -217 -74 -391 3 -111 9 -158 25 -201 61
-170 179 -365 275 -456 48 -45 122 -89 180 -107 14 -5 17 -18 17 -95 l0 -91
-32 6 c-56 9 -193 83 -250 134 -126 112 -220 267 -291 480 -63 185 -78 269
-84 455 -6 180 11 325 52 447 26 78 103 214 114 201 4 -4 29 -77 56 -161z
m6399 -21 c59 -85 91 -264 84 -462 -4 -111 -8 -133 -39 -214 -37 -96 -86 -177
-150 -247 l-39 -43 6 120 c7 137 -14 371 -45 500 -16 67 -17 82 -6 95 7 8 43
77 79 153 35 75 69 137 74 137 5 0 21 -18 36 -39z m-6713 -127 c-11 -54 -23
-135 -26 -179 l-7 -81 -87 -20 c-363 -88 -590 -324 -591 -615 0 -147 59 -270
187 -389 133 -124 241 -168 413 -169 153 -1 270 37 384 124 l48 36 56 -53 c32
-30 72 -63 90 -73 18 -11 31 -24 29 -30 -11 -33 -322 -169 -487 -213 -133 -35
-333 -36 -465 -3 -110 28 -250 94 -327 156 -198 157 -304 445 -254 691 56 277
164 428 437 610 158 105 311 187 489 259 69 29 126 51 127 50 2 -1 -6 -46 -16
-101z m7456 40 c160 -54 251 -129 313 -259 51 -105 63 -158 58 -252 -5 -98
-37 -172 -109 -248 -92 -98 -223 -146 -399 -146 -91 -1 -243 20 -258 35 -2 3
2 22 11 43 14 36 17 38 53 36 22 -2 104 -4 184 -5 181 -4 229 10 305 86 62 62
79 113 73 218 -5 95 -26 137 -109 221 -88 88 -182 133 -309 149 l-88 11 -6 36
c-10 63 -8 68 32 79 60 16 196 14 249 -4z m-3697 -84 c16 -32 46 -98 66 -146
53 -130 101 -218 142 -260 96 -99 264 -114 341 -30 14 14 29 26 34 26 5 0 98
-61 207 -137 l199 -136 -17 -30 c-9 -16 -44 -54 -77 -85 -97 -90 -202 -127
-310 -110 -76 12 -132 40 -201 99 -84 74 -99 82 -123 69 -30 -16 -41 -42 -34
-84 9 -58 -23 -158 -72 -226 -45 -60 -185 -163 -215 -158 -11 3 -17 25 -22 93
-3 50 -11 160 -18 246 l-11 155 35 52 c41 61 64 133 77 245 14 120 3 227 -48
461 -10 45 13 24 47 -44z m-264 -50 c-13 -30 -56 -113 -94 -184 -88 -160 -112
-246 -93 -330 24 -108 111 -195 193 -196 36 0 37 -1 42 -42 6 -49 24 -302 28
-393 l3 -60 -85 1 c-146 1 -257 50 -326 143 -49 67 -64 126 -64 257 0 89 -3
116 -16 128 -24 25 -49 19 -98 -23 -97 -84 -238 -104 -384 -55 -42 14 -83 31
-90 38 -10 9 26 47 173 183 l186 171 67 4 c152 8 347 145 517 361 65 83 79 82
41 -3z m-2955 -348 c13 -17 39 -57 58 -90 18 -33 61 -97 95 -143 l61 -84 -3
-177 -4 -176 -29 10 c-44 15 -120 89 -178 173 -69 100 -148 267 -166 352 -25
119 -15 285 25 388 11 29 12 26 64 -97 29 -69 64 -140 77 -156z m-563 13 l-3
-46 -90 -30 c-224 -75 -346 -181 -361 -316 -13 -103 63 -237 164 -291 149 -79
307 -82 484 -8 12 6 24 -4 47 -37 l31 -45 -32 -27 c-58 -49 -165 -95 -248
-107 -165 -24 -303 23 -427 147 -117 117 -160 234 -133 368 28 144 128 267
280 347 96 50 209 89 258 90 l33 0 -3 -45z m4976 -401 c94 -80 161 -168 221
-290 64 -132 85 -216 92 -365 9 -205 -37 -408 -137 -602 -69 -135 -120 -208
-219 -310 -138 -143 -281 -224 -462 -262 -213 -45 -436 18 -714 203 -95 63
-275 229 -275 253 0 6 17 32 39 58 21 25 50 65 65 89 14 23 30 42 34 41 4 0
28 -27 55 -59 152 -187 450 -301 683 -261 162 29 289 94 405 210 240 240 320
623 208 988 -22 70 -87 207 -121 256 l-20 28 23 45 c13 24 29 44 35 44 6 0 46
-30 88 -66z m-3982 -114 c105 -80 290 -175 416 -214 46 -14 90 -26 99 -26 13
0 14 -7 8 -42 -30 -184 -32 -281 -10 -455 34 -258 112 -462 223 -585 19 -21
31 -38 28 -38 -3 0 -70 24 -149 54 -164 62 -315 113 -440 151 -48 14 -142 49
-207 76 l-120 51 0 47 c0 108 31 367 47 399 13 25 14 40 7 60 -9 27 -8 592 1
592 3 0 47 -32 97 -70z m1593 -9 c50 -17 114 -34 143 -38 l53 -8 -80 -53 c-87
-58 -244 -214 -328 -327 -123 -164 -158 -277 -111 -364 48 -90 162 -116 293
-66 206 77 376 297 456 587 13 49 26 88 29 88 3 0 14 -20 24 -43 43 -92 173
-188 299 -221 64 -17 64 -23 1 -149 -125 -249 -364 -439 -616 -491 -98 -20
-246 -21 -323 -1 -249 63 -426 268 -464 538 -16 113 20 321 57 334 165 58 251
104 365 195 50 41 78 57 92 54 11 -3 61 -19 110 -35z m2221 -84 c141 -279 134
-618 -17 -874 -53 -90 -171 -202 -259 -246 -111 -55 -184 -70 -310 -64 -114 5
-204 31 -310 91 -63 35 -186 154 -214 208 l-19 36 25 78 c40 123 51 189 52
321 l1 121 50 25 c63 31 171 112 192 143 21 32 37 31 29 -2 -13 -50 -7 -262 9
-360 24 -139 60 -272 92 -340 101 -213 307 -196 388 31 27 73 31 242 10 347
-26 132 -101 282 -220 444 -16 21 -15 21 27 13 124 -24 262 12 370 96 24 18
47 31 51 28 4 -2 28 -46 53 -96z m1624 -95 c-35 -264 -41 -319 -51 -452 -5
-80 -20 -203 -32 -275 l-23 -130 -39 -7 c-150 -27 -357 -49 -406 -44 -42 5
-59 3 -68 -8 -6 -7 -33 -17 -58 -21 -26 -4 -152 -31 -281 -61 -130 -30 -236
-54 -238 -54 -1 0 15 38 36 85 72 155 120 339 135 517 l7 85 102 6 c207 13
511 118 689 239 70 48 176 145 208 193 13 19 26 30 27 25 2 -6 -1 -50 -8 -98z
m-4564 -95 c-3 -12 -11 -65 -17 -119 -33 -280 111 -577 348 -721 33 -20 102
-51 154 -69 89 -31 101 -32 229 -32 111 1 152 6 232 27 186 49 371 169 511
332 82 94 132 179 178 297 l34 86 50 10 c37 7 52 7 58 -1 13 -19 -3 -203 -24
-287 -10 -41 -46 -129 -79 -196 -50 -100 -74 -136 -141 -207 -252 -270 -687
-412 -1080 -352 -184 27 -334 102 -464 230 -123 121 -186 254 -226 483 -32
177 -29 420 6 528 2 7 45 11 120 12 116 1 117 1 111 -21z m4993 -287 c50 -93
93 -236 98 -325 13 -206 -105 -449 -272 -559 -211 -141 -461 -120 -635 54 -62
62 -126 163 -114 181 13 21 69 8 99 -23 100 -102 214 -160 331 -166 182 -10
320 86 401 278 23 56 27 79 28 170 0 85 -5 119 -24 178 -27 83 -80 171 -147
242 l-45 48 68 45 68 45 57 -56 c31 -30 71 -81 87 -112z m-287 -86 c83 -100
127 -243 108 -352 -29 -169 -154 -292 -295 -292 -49 0 -146 37 -193 74 l-42
34 87 16 c49 9 104 16 124 16 22 0 42 7 51 18 17 19 78 369 78 444 0 25 3 59
6 77 8 38 20 33 76 -35z m-5818 14 c-4 -18 -13 -37 -22 -43 -64 -42 -165 -131
-196 -174 -56 -76 -76 -137 -76 -230 0 -148 63 -261 195 -350 102 -68 171 -85
322 -79 130 5 198 26 288 88 25 18 49 29 52 26 4 -3 19 -37 34 -76 30 -78 32
-74 -48 -123 -101 -63 -312 -100 -444 -78 -187 31 -364 149 -458 306 -152 252
-81 557 164 700 56 33 139 64 172 65 20 0 22 -4 17 -32z m-34 -387 c-14 -28
-12 -56 5 -71 28 -23 333 -145 454 -181 l74 -22 -53 -33 c-86 -54 -141 -69
-260 -69 -93 0 -111 3 -163 27 -83 39 -161 117 -188 187 -42 111 -12 221 84
313 l52 50 3 -91 c1 -50 -2 -100 -8 -110z m5076 -237 c8 -33 -10 -118 -46
-211 -110 -286 -552 -591 -965 -667 -122 -22 -280 -30 -361 -17 -84 13 -204
48 -204 60 0 8 77 56 228 142 l63 36 53 -18 c154 -52 395 -25 571 63 147 74
368 286 431 413 24 49 37 92 41 133 l6 61 61 15 c95 22 114 21 122 -10z m-300
-66 c-15 -76 -59 -143 -165 -249 -197 -196 -324 -257 -553 -267 -72 -2 -128
-1 -128 4 1 5 38 34 83 64 88 59 285 244 373 352 31 37 61 65 67 62 7 -2 77
11 157 30 183 44 174 44 166 4z m-2008 -106 c227 -230 576 -401 829 -405 51
-1 89 -5 85 -8 -4 -3 -88 -54 -187 -114 -99 -59 -223 -138 -275 -175 -52 -37
-153 -100 -225 -140 -106 -58 -133 -69 -151 -62 -36 17 -304 283 -310 309 -5
16 -19 30 -43 40 -19 8 -56 34 -82 57 -25 22 -121 100 -212 171 -92 72 -166
133 -167 137 0 4 26 12 58 18 104 22 215 62 325 116 105 52 219 123 232 144
12 20 28 9 123 -88z m-1901 17 c76 -28 147 -57 158 -64 11 -7 28 -35 38 -63
52 -144 249 -338 412 -406 60 -25 220 -64 315 -75 181 -23 300 -8 394 50 26
16 56 27 65 24 9 -3 41 -27 71 -54 l55 -49 -20 -22 c-27 -30 -115 -73 -203
-100 -66 -20 -89 -22 -240 -18 l-167 4 -154 53 c-267 91 -439 190 -605 351
-102 99 -173 186 -208 254 -33 65 -69 166 -58 166 5 0 72 -23 147 -51z m4363
-116 c71 -79 206 -276 254 -372 145 -289 137 -632 -21 -872 -87 -133 -232
-244 -388 -296 -72 -24 -95 -27 -225 -27 -156 -1 -203 7 -333 57 -98 37 -196
109 -349 256 -133 127 -249 265 -349 411 l-69 100 83 0 c78 0 232 15 269 26
13 4 27 -13 59 -78 152 -303 389 -472 639 -455 235 15 409 168 499 435 43 127
16 335 -59 467 -30 52 -127 160 -167 187 l-23 15 45 78 c24 43 47 91 50 106 4
16 10 29 15 29 5 0 36 -30 70 -67z m-3899 -48 c68 -20 128 -34 135 -31 7 3 52
-2 101 -10 48 -8 139 -16 201 -18 89 -2 115 -6 125 -19 6 -9 64 -57 127 -107
63 -51 116 -95 118 -99 4 -11 -66 -40 -123 -50 -60 -11 -232 1 -330 23 -167
39 -263 86 -367 184 -46 42 -128 143 -128 157 0 9 16 6 141 -30z m-552 -150
c18 -25 73 -84 121 -132 l87 -86 -43 -92 c-87 -184 -114 -408 -67 -560 54
-173 181 -307 337 -358 77 -24 232 -26 328 -3 124 29 193 68 282 159 126 128
186 262 186 418 l0 67 57 7 c32 4 85 16 118 26 33 10 62 19 64 19 10 0 -11
-126 -38 -230 -66 -257 -156 -433 -289 -569 -119 -121 -264 -208 -408 -245
-140 -36 -340 -15 -485 52 -241 110 -430 393 -446 667 -9 153 25 462 73 650
24 96 76 255 83 255 3 0 21 -21 40 -45z m4274 -100 c141 -140 191 -346 127
-517 -47 -126 -142 -239 -240 -287 -50 -23 -66 -26 -170 -26 -103 0 -121 3
-170 26 -77 37 -168 108 -220 173 -55 68 -127 185 -135 219 -6 22 -2 26 39 40
l46 16 25 -48 c32 -64 135 -200 182 -241 129 -113 289 -106 406 18 64 69 89
143 89 259 0 110 -24 192 -83 283 -21 33 -39 64 -39 68 0 12 60 82 70 82 5 0
38 -29 73 -65z m-3927 -216 c19 -11 34 -24 34 -27 0 -4 -13 -41 -29 -82 -131
-338 -42 -559 229 -564 67 -1 83 3 144 33 125 61 222 178 267 321 13 44 21 55
38 54 11 0 37 -1 56 -2 l35 -2 0 -55 c0 -126 -46 -237 -139 -338 -60 -64 -109
-96 -197 -129 -47 -17 -82 -21 -179 -22 -113 -1 -124 1 -178 28 -112 55 -198
163 -227 285 -17 73 -7 257 18 336 26 84 73 185 85 185 5 0 25 -9 43 -21z
m1380 -130 c16 -18 18 -34 16 -127 -6 -217 74 -365 236 -439 149 -69 372 -21
499 105 100 101 154 207 175 350 6 42 12 78 14 80 1 2 38 -10 82 -25 l81 -28
-5 -45 c-11 -93 -28 -147 -70 -226 -108 -201 -215 -294 -409 -353 -368 -114
-726 120 -725 473 0 90 51 256 79 256 4 0 16 -9 27 -21z m820 -81 c-26 -202
-152 -352 -331 -393 -195 -46 -344 67 -362 276 -4 42 -3 60 5 58 22 -8 140
-115 155 -141 10 -17 25 -28 38 -28 26 0 342 176 423 236 33 24 64 44 69 44 6
0 7 -22 3 -52z"/>
</g>
</svg>
