<?xml version="1.0" standalone="no"?>
<!DOCTYPE svg PUBLIC "-//W3C//DTD SVG 20010904//EN"
 "http://www.w3.org/TR/2001/REC-SVG-20010904/DTD/svg10.dtd">
<svg version="1.0" xmlns="http://www.w3.org/2000/svg"
 width="951.000000pt" height="951.000000pt" viewBox="0 0 951.000000 951.000000"
 preserveAspectRatio="xMidYMid meet">

<g transform="translate(0.000000,951.000000) scale(0.100000,-0.100000)"
fill="#000000" stroke="none">
<path d="M4545 9415 c-17 -9 -81 -69 -144 -135 -102 -109 -299 -294 -506 -475
-44 -38 -136 -124 -205 -189 -69 -66 -197 -182 -285 -259 -252 -220 -485 -439
-491 -462 -4 -16 -18 -24 -62 -33 -88 -18 -158 -56 -217 -116 -63 -65 -91
-132 -108 -253 -18 -140 20 -338 95 -487 16 -32 27 -60 25 -62 -11 -11 -178
78 -252 133 -190 142 -286 306 -285 491 1 100 56 219 112 243 65 27 151 -33
163 -113 9 -56 0 -99 -26 -133 -20 -24 -59 -35 -59 -16 0 19 -32 41 -59 41
-42 0 -65 -31 -58 -77 14 -87 117 -129 205 -84 104 53 153 195 113 333 -42
147 -229 228 -354 155 -54 -32 -107 -106 -140 -196 -32 -89 -29 -251 7 -356
15 -44 43 -105 62 -137 44 -73 156 -192 228 -243 30 -22 56 -43 56 -46 0 -3
-12 -4 -27 -2 -107 12 -365 34 -503 43 -226 15 -474 44 -703 81 -249 41 -344
43 -412 9 -63 -31 -95 -78 -95 -136 0 -24 22 -117 49 -206 27 -90 75 -287 106
-438 31 -151 76 -358 100 -460 58 -248 78 -341 120 -560 45 -229 100 -455 121
-497 15 -29 15 -35 -2 -85 -13 -35 -19 -81 -19 -138 0 -76 4 -93 33 -152 84
-171 332 -306 595 -325 48 -3 87 -10 87 -14 0 -4 -37 -32 -82 -62 -302 -201
-622 -211 -806 -28 -36 37 -82 120 -82 149 0 26 35 69 70 87 85 44 220 -27
220 -117 0 -23 -4 -27 -31 -26 -57 2 -84 -54 -46 -98 20 -23 32 -27 71 -27
144 0 183 183 68 315 -70 79 -227 119 -315 80 -60 -27 -133 -95 -147 -138 -46
-139 53 -315 228 -407 100 -53 152 -67 267 -74 122 -7 229 12 355 62 46 19 86
32 88 31 2 -2 -37 -60 -87 -129 -49 -69 -143 -203 -207 -299 -130 -193 -320
-447 -479 -642 -157 -193 -192 -281 -149 -372 32 -66 52 -75 314 -139 80 -19
273 -77 430 -129 157 -52 335 -109 395 -126 61 -17 256 -80 435 -140 372 -124
558 -180 602 -180 24 0 42 -11 78 -49 91 -95 186 -136 303 -129 179 10 391
152 535 358 l51 71 5 -33 c28 -183 -1 -394 -74 -538 -43 -85 -124 -168 -211
-215 -70 -38 -78 -40 -161 -40 -107 0 -128 15 -135 92 -5 59 9 87 65 130 35
27 53 33 92 33 52 0 83 -21 62 -42 -18 -18 -14 -63 6 -81 54 -49 132 10 132
99 0 121 -170 193 -306 130 -65 -30 -129 -88 -157 -140 -28 -54 -30 -174 -3
-226 43 -83 106 -121 211 -128 237 -15 478 174 564 442 24 75 50 209 51 259 0
19 16 -10 71 -133 29 -63 97 -207 152 -320 130 -269 194 -415 282 -645 124
-323 145 -359 231 -401 97 -47 139 -27 299 144 110 117 156 161 415 393 96 86
231 209 300 274 69 65 213 195 320 289 225 197 440 403 440 422 0 8 12 16 28
19 214 41 322 153 353 367 21 142 -16 337 -92 492 -16 32 -27 61 -24 64 9 9
173 -76 243 -127 91 -66 190 -173 230 -249 78 -146 81 -321 9 -430 -44 -65
-76 -79 -133 -57 -55 21 -81 53 -90 112 -9 58 9 116 43 143 l27 21 24 -31 c39
-50 112 -32 112 29 0 68 -62 125 -135 123 -53 0 -93 -21 -135 -68 -49 -56 -64
-99 -64 -185 0 -65 5 -86 30 -135 53 -106 172 -168 276 -144 84 21 163 109
204 230 30 89 25 242 -11 349 -47 138 -154 277 -303 391 -24 18 -41 34 -39 36
2 2 64 -3 138 -11 73 -8 258 -24 409 -35 308 -23 434 -38 695 -81 224 -37 336
-40 400 -9 100 48 115 119 62 290 -55 179 -72 247 -127 515 -29 138 -72 333
-95 435 -56 240 -76 335 -120 560 -48 243 -103 468 -122 501 -14 24 -14 31 3
80 13 37 19 81 19 139 -1 72 -5 95 -29 148 -76 165 -315 301 -586 331 -51 6
-95 12 -97 15 -17 17 229 153 342 190 144 46 302 40 420 -19 95 -46 136 -82
174 -155 36 -68 36 -103 -2 -137 -55 -50 -104 -55 -177 -18 -52 26 -80 65 -80
110 0 21 5 25 28 25 33 0 45 8 62 39 10 20 9 27 -7 50 -30 39 -86 50 -131 26
-84 -45 -106 -143 -56 -243 30 -61 69 -96 144 -131 110 -51 240 -25 319 64 42
48 51 74 51 144 0 111 -92 242 -224 320 -177 105 -407 110 -640 16 -45 -18
-83 -31 -84 -30 -2 2 36 59 85 127 49 68 131 186 182 263 162 241 250 361 434
589 97 122 189 245 203 274 49 98 42 185 -21 240 -28 25 -62 37 -207 71 -95
23 -317 88 -494 146 -176 57 -374 120 -440 139 -65 19 -247 78 -404 131 -340
115 -584 187 -604 179 -9 -4 -36 16 -73 53 -80 82 -152 115 -257 121 -97 5
-184 -21 -299 -89 -86 -51 -217 -179 -280 -272 l-45 -69 -8 34 c-13 57 -7 269
9 344 35 157 87 256 180 341 84 76 154 107 253 111 73 4 83 2 108 -20 35 -30
44 -89 23 -141 -30 -70 -150 -121 -200 -84 -15 10 -16 17 -5 44 24 64 -32 115
-87 79 -38 -25 -58 -72 -52 -125 9 -79 96 -141 199 -141 110 0 243 99 273 205
30 103 3 202 -72 264 -51 43 -101 54 -205 48 -77 -4 -99 -10 -175 -46 -121
-58 -233 -170 -291 -291 -43 -89 -74 -200 -89 -310 l-8 -65 -89 195 c-49 107
-120 257 -158 333 -84 168 -194 426 -277 645 -34 90 -71 183 -83 205 -65 130
-172 187 -263 142z m105 -135 c29 -29 71 -118 125 -265 80 -217 170 -426 300
-695 180 -373 365 -790 365 -824 0 -7 -19 -22 -42 -32 -24 -10 -72 -41 -107
-67 -35 -26 -65 -47 -66 -45 -1 2 -27 77 -58 168 -65 197 -229 618 -320 821
-35 80 -70 162 -76 181 -28 85 -104 115 -167 66 -41 -31 -48 -42 -100 -143
-79 -152 -164 -296 -227 -385 -103 -145 -396 -513 -565 -710 l-30 -35 -184
181 c-157 155 -244 229 -417 352 l-23 17 98 95 c55 52 189 174 299 270 110 96
250 222 310 280 61 59 153 144 205 191 280 249 387 349 502 468 70 72 134 131
142 131 9 0 25 -9 36 -20z m83 -995 c140 -315 387 -983 387 -1044 0 -6 -20
-38 -44 -71 -24 -33 -46 -65 -48 -71 -2 -7 -31 10 -67 39 -75 60 -180 117
-265 144 -90 29 -284 36 -361 13 -91 -26 -211 -101 -301 -187 -45 -43 -83 -78
-86 -78 -3 0 -45 43 -93 95 l-87 96 59 67 c64 74 212 253 286 347 25 33 79
101 118 150 155 196 256 350 351 540 51 100 69 128 78 118 4 -4 37 -75 73
-158z m1550 -363 c27 -14 62 -42 78 -61 17 -20 39 -47 50 -59 13 -17 19 -39
19 -75 0 -86 -19 -226 -46 -337 -63 -264 -210 -754 -277 -920 -16 -41 -71
-194 -122 -340 -51 -146 -98 -277 -103 -292 l-11 -27 -63 63 c-52 52 -72 65
-116 76 -93 22 -194 -4 -293 -75 l-47 -33 -43 15 c-88 30 -211 -1 -309 -81
l-45 -36 -19 88 c-27 123 -28 495 -2 627 37 191 113 416 182 542 66 119 218
289 295 329 16 8 29 13 29 12 0 -2 -11 -57 -25 -123 -33 -158 -40 -270 -26
-380 30 -231 115 -337 271 -338 71 0 122 24 185 88 154 157 235 394 191 564
-23 88 -61 156 -126 221 -66 67 -128 105 -206 125 -31 8 -59 17 -61 19 -3 2 3
19 13 38 38 74 101 157 175 229 60 60 97 86 170 122 52 25 105 48 119 50 46 9
114 -4 163 -31z m-3209 -226 c148 -106 226 -177 454 -414 240 -249 343 -362
472 -522 47 -58 119 -143 160 -190 101 -114 240 -278 240 -283 0 -3 -21 -8
-47 -12 -76 -11 -120 -34 -168 -87 -57 -63 -75 -123 -75 -245 0 -92 -1 -95
-29 -119 -69 -58 -109 -211 -83 -321 6 -27 6 -43 1 -43 -6 0 -54 16 -107 36
-245 92 -464 236 -653 431 -196 201 -280 331 -343 530 -25 81 -45 213 -32 213
4 0 44 -33 89 -73 181 -161 347 -250 508 -272 122 -17 246 71 268 191 24 127
-83 357 -221 479 -189 166 -468 162 -645 -10 l-54 -52 -33 56 c-85 140 -120
265 -120 426 0 108 2 125 26 176 38 83 108 131 218 148 34 6 65 13 68 16 9 9
15 6 106 -59z m3635 28 c64 -19 249 -80 411 -134 162 -54 338 -110 390 -125
52 -15 239 -74 415 -132 176 -58 393 -122 482 -143 89 -21 167 -41 173 -45 16
-10 12 -52 -9 -93 -11 -20 -67 -95 -125 -167 -171 -210 -324 -416 -476 -640
-145 -214 -444 -629 -503 -699 l-33 -38 -57 36 c-32 21 -85 48 -119 60 l-60
23 86 94 c105 114 456 547 568 702 45 62 103 140 130 175 72 94 66 146 -22
193 -20 10 -85 13 -300 11 -294 -3 -353 2 -725 57 -322 48 -535 87 -535 97 0
2 20 76 45 164 66 234 92 358 107 508 10 103 15 132 27 132 8 0 67 -16 130
-36z m-979 -374 c24 -12 64 -43 89 -68 125 -125 133 -306 24 -490 -46 -78
-122 -159 -157 -168 -66 -16 -124 31 -151 121 -39 133 -30 301 27 544 l22 93
52 -5 c28 -3 71 -15 94 -27z m-1097 -186 c107 -26 252 -111 300 -175 17 -24
18 -31 7 -63 -14 -42 -21 -44 -63 -12 -48 36 -106 63 -174 80 -82 21 -261 21
-334 0 -71 -21 -177 -77 -229 -121 -39 -34 -42 -35 -56 -17 -41 52 -45 63 -35
82 21 39 160 158 228 194 108 58 213 68 356 32z m-1300 -207 c112 -51 221
-194 263 -343 15 -57 15 -63 0 -95 -19 -41 -62 -69 -103 -69 -43 0 -128 27
-208 67 -89 44 -189 119 -301 226 l-88 84 28 37 c88 116 270 158 409 93z
m-2234 -21 c277 -44 425 -62 691 -81 330 -24 709 -61 871 -85 l75 -12 0 -81
c-1 -45 2 -105 7 -133 l7 -51 -127 28 c-273 59 -1037 169 -1176 169 -18 0 -40
-11 -59 -30 -28 -28 -30 -35 -26 -81 4 -36 18 -69 53 -127 206 -331 240 -397
379 -752 172 -435 215 -556 204 -564 -1 -1 -64 -17 -138 -36 -211 -51 -383
-107 -518 -167 -67 -31 -124 -54 -127 -52 -8 8 -59 235 -105 469 -27 135 -63
306 -80 380 -40 173 -89 395 -129 585 -53 251 -70 321 -111 458 -22 72 -40
142 -40 154 0 52 65 54 349 9z m3587 -71 c56 -17 171 -87 180 -110 4 -8 3 -26
0 -40 l-6 -24 -48 30 c-67 43 -133 59 -235 59 -132 0 -239 -31 -299 -88 l-28
-26 -30 29 c-38 36 -38 47 1 79 125 105 301 140 465 91z m1766 -54 c74 -18
210 -40 623 -101 249 -37 334 -43 572 -38 166 3 230 2 224 -6 -5 -6 -51 -70
-103 -142 -176 -242 -443 -568 -668 -816 l-45 -49 -83 9 c-46 6 -85 12 -88 15
-3 2 0 35 7 73 14 82 6 234 -16 319 -26 97 -88 215 -147 278 -31 33 -88 78
-138 108 -77 45 -110 58 -261 101 l-46 13 40 128 c22 70 41 127 43 127 1 0 40
-9 86 -19z m-1737 -186 c28 -13 62 -35 78 -49 24 -22 27 -30 21 -66 -6 -36
-10 -41 -28 -36 -91 27 -135 36 -166 36 -48 0 -151 -27 -171 -46 -15 -13 -21
-9 -69 48 -49 58 -51 63 -33 76 91 70 261 87 368 37z m-3053 -85 c226 -21 716
-98 976 -153 l153 -32 39 -83 39 -83 -27 -10 c-72 -26 -92 -35 -155 -71 -95
-55 -178 -127 -231 -201 -142 -199 -159 -359 -70 -664 5 -18 2 -23 -13 -23
-10 0 -68 -11 -128 -25 -60 -13 -112 -21 -116 -17 -4 4 -17 39 -29 77 -27 83
-54 154 -176 465 -153 388 -194 473 -356 727 -59 94 -69 119 -44 110 8 -3 70
-11 138 -17z m4758 -139 c78 -30 183 -96 220 -138 44 -50 106 -183 119 -257
21 -113 9 -277 -22 -320 -7 -9 -28 -19 -48 -22 l-37 -6 -4 118 c-4 107 -7 127
-37 196 -46 108 -118 206 -193 263 -66 50 -171 105 -200 105 -23 0 -22 8 1 63
l19 45 65 -14 c36 -7 88 -22 117 -33z m-1673 -52 c28 -14 43 -27 43 -40 0 -17
-8 -19 -74 -19 -41 0 -87 -5 -102 -11 -26 -9 -31 -7 -61 28 -18 21 -31 43 -29
48 9 30 156 26 223 -6z m1497 -155 c114 -57 179 -124 236 -245 43 -91 54 -157
42 -241 -6 -39 -12 -71 -14 -73 -2 -2 -15 -6 -29 -10 l-26 -7 -5 91 c-4 80 -8
98 -42 165 -21 41 -63 103 -94 136 -54 60 -141 120 -174 120 -16 0 -16 3 -1
45 18 54 32 56 107 19z m-1486 -34 c21 0 22 -4 22 -77 -1 -76 -1 -77 -15 -46
-8 18 -28 53 -45 77 -36 53 -37 60 -7 52 12 -3 32 -6 45 -6z m-250 -31 c45
-22 108 -93 143 -161 53 -104 66 -323 33 -571 l-17 -128 -26 24 c-93 87 -217
72 -284 -34 l-31 -50 -52 52 c-87 86 -147 206 -152 307 -4 67 9 132 27 132 3
0 17 -23 30 -51 48 -106 138 -175 217 -166 83 9 134 70 134 162 0 120 -100
219 -243 240 l-49 8 4 83 c3 94 20 127 79 156 48 25 132 23 187 -3z m-1534
-94 l27 -34 -73 -37 c-122 -61 -221 -178 -286 -336 -21 -52 -26 -84 -30 -180
-3 -70 0 -129 6 -148 13 -35 12 -35 -54 -44 -37 -5 -42 -3 -53 21 -25 55 -51
191 -51 269 0 105 21 169 85 264 61 90 142 158 250 210 71 34 98 43 141 49 7
0 24 -15 38 -34z m3167 -43 c60 -39 112 -99 150 -174 27 -54 32 -74 32 -134
-1 -86 -11 -107 -57 -121 -35 -11 -36 -10 -42 15 -28 131 -92 239 -166 278
l-27 14 26 75 c13 41 28 75 32 75 4 0 27 -13 52 -28z m-3026 -122 c10 -11 16
-22 14 -24 -2 -1 -28 -16 -57 -31 -91 -49 -161 -141 -208 -273 -20 -54 -24
-83 -22 -152 l2 -85 -42 -9 c-23 -5 -45 -6 -48 -3 -3 3 -9 36 -14 73 -26 210
100 431 289 505 59 23 64 23 86 -1z m2605 -88 c80 -83 89 -163 30 -290 -51
-112 -151 -197 -342 -293 -114 -57 -258 -119 -278 -119 -6 0 -6 10 0 26 24 63
-2 153 -57 192 -33 23 -95 42 -141 42 -30 0 -32 2 -26 28 13 54 44 135 58 151
8 9 21 32 29 53 30 72 156 168 222 168 31 0 31 -3 1 -43 -49 -66 -70 -119 -70
-184 -1 -69 16 -101 74 -140 85 -58 213 4 256 124 21 59 17 147 -8 205 -21 50
-21 51 -2 65 42 33 121 63 163 63 40 0 49 -5 91 -48z m-2422 -89 c2 -1 -15
-19 -39 -40 -23 -21 -57 -62 -76 -90 -34 -54 -69 -164 -59 -188 3 -8 -3 -16
-12 -19 -17 -4 -118 -20 -137 -21 -17 0 -17 74 0 133 39 135 110 224 209 261
l51 19 30 -26 c16 -15 31 -28 33 -29z m2742 5 c52 -71 78 -199 44 -212 -9 -3
-17 -6 -19 -6 -2 0 -13 20 -23 44 -11 24 -36 61 -56 83 l-36 40 16 47 c9 25
22 46 30 46 8 0 27 -19 44 -42z m-2625 -162 c-19 -28 -39 -70 -45 -93 -9 -38
-14 -43 -48 -48 -20 -4 -45 -9 -54 -12 -21 -5 -22 8 -4 60 18 49 59 102 108
137 32 24 43 27 58 18 17 -11 16 -15 -15 -62z m3564 4 c130 -17 321 -76 321
-100 0 -4 -29 -15 -64 -24 -102 -28 -266 -98 -341 -147 -99 -64 -189 -151
-219 -211 -58 -117 -14 -262 96 -319 94 -48 298 -64 427 -34 235 56 382 237
383 470 0 49 -6 97 -16 124 -9 24 -13 47 -10 52 16 26 271 -5 379 -46 144 -54
263 -153 286 -238 14 -54 5 -146 -21 -204 -11 -25 -20 -51 -20 -58 0 -17 -183
-100 -320 -145 -117 -39 -551 -150 -737 -190 -56 -12 -203 -39 -325 -60 -123
-21 -308 -55 -412 -75 -104 -20 -190 -34 -192 -32 -3 2 5 24 16 48 26 59 27
159 0 216 -27 60 -99 126 -179 165 -64 32 -67 35 -79 81 -23 95 -113 185 -223
224 -27 10 -49 21 -49 24 0 11 179 153 250 198 93 60 296 157 398 190 108 36
297 79 394 90 102 12 171 12 257 1z m-3358 -64 l62 -34 -86 -4 c-48 -2 -87 1
-87 5 0 10 39 67 46 67 2 0 31 -15 65 -34z m2317 -28 c11 -26 9 -28 -46 -62
-31 -19 -58 -34 -59 -32 -1 1 14 34 35 74 39 75 46 77 70 20z m1499 -165 c62
-163 -33 -365 -205 -435 -51 -20 -73 -23 -202 -23 -158 1 -205 13 -235 59 -22
33 -21 88 1 127 28 47 141 140 224 184 68 35 347 134 382 135 10 0 23 -17 35
-47z m-3697 8 c93 -27 163 -60 265 -126 115 -74 257 -184 250 -194 -2 -5 -18
-11 -33 -14 -36 -7 -88 -50 -107 -88 -23 -44 -19 -118 10 -175 14 -27 25 -50
25 -51 0 -1 -33 -9 -72 -18 -110 -24 -257 -17 -328 16 -30 14 -70 41 -88 60
l-33 34 103 5 c117 6 173 29 208 86 41 65 17 166 -50 210 -100 66 -275 24
-340 -81 -26 -42 -43 -44 -101 -6 -54 35 -84 67 -99 105 -23 62 38 184 112
222 70 36 185 42 278 15z m-501 -93 c-60 -151 5 -286 178 -375 64 -33 72 -41
78 -72 17 -89 88 -172 190 -221 35 -17 68 -30 75 -30 21 0 6 -17 -75 -84 -107
-90 -189 -143 -324 -210 -145 -73 -190 -91 -341 -132 -316 -87 -572 -89 -780
-7 -106 42 -106 41 42 93 203 71 313 134 421 241 68 68 96 125 97 193 1 181
-127 268 -392 267 -277 -1 -473 -139 -529 -371 -17 -72 -15 -184 5 -239 9 -24
16 -45 16 -47 0 -2 -16 -6 -35 -10 -41 -7 -195 9 -280 31 -101 26 -224 92
-285 154 -87 88 -100 166 -52 305 l28 78 107 49 c143 66 237 96 517 168 305
78 512 124 680 150 74 12 227 39 340 61 256 49 301 57 322 59 16 1 16 -3 -3
-51z m1316 2 c24 -26 31 -114 16 -194 -6 -33 -14 -62 -17 -65 -12 -12 -103 99
-110 134 -19 102 56 186 111 125z m436 0 c21 -12 25 -50 9 -80 -13 -25 -103
-79 -167 -101 l-53 -18 0 27 c0 47 45 128 86 156 41 27 91 34 125 16z m676
-276 c59 -19 116 -57 139 -92 l16 -25 -57 6 c-110 11 -211 -22 -253 -84 -20
-28 -23 -44 -20 -89 5 -69 27 -102 92 -135 106 -53 232 -17 314 91 l34 43 46
-23 c99 -50 141 -115 122 -189 -29 -109 -95 -162 -221 -178 -77 -10 -93 -9
-165 11 -92 25 -186 71 -293 143 -115 76 -231 168 -226 177 3 5 19 11 35 15
37 8 86 48 105 86 23 44 19 118 -10 174 -13 27 -23 50 -22 52 2 1 28 9 58 17
75 20 245 20 306 0z m-502 -74 c41 -26 70 -82 56 -109 -23 -41 -69 -41 -142 2
-53 30 -129 90 -129 101 0 3 21 12 48 21 57 18 123 12 167 -15z m-783 -46 c61
-37 125 -90 117 -97 -31 -27 -155 -35 -197 -13 -59 30 -90 90 -66 125 23 33
75 28 146 -15z m-1805 -89 c31 -9 60 -26 72 -42 27 -33 27 -95 1 -137 -42 -69
-192 -173 -322 -225 -67 -26 -272 -91 -289 -91 -17 0 -44 98 -43 160 1 223
184 369 444 355 47 -2 108 -11 137 -20z m5688 -157 c14 -62 48 -224 75 -360
27 -135 68 -324 90 -420 23 -95 68 -300 100 -455 71 -339 73 -346 118 -498 59
-202 57 -194 46 -213 -6 -9 -27 -21 -46 -26 -36 -9 -75 -4 -413 48 -190 30
-390 52 -610 66 -226 14 -656 57 -866 86 l-46 6 1 82 c0 44 -3 105 -7 135 -7
46 -6 53 8 48 86 -34 720 -135 1130 -181 183 -21 182 -21 217 14 46 46 37 102
-32 217 -214 352 -232 388 -365 718 -81 202 -201 525 -209 561 l-7 30 113 28
c237 59 397 110 523 166 71 32 135 59 142 59 6 1 22 -46 38 -111z m-3289 -19
c24 -35 29 -52 29 -100 0 -50 -4 -62 -27 -85 -20 -21 -32 -25 -52 -20 -52 13
-68 91 -45 223 l11 63 27 -19 c15 -11 41 -39 57 -62z m-306 -17 c0 -16 -12
-53 -27 -83 -22 -42 -38 -59 -73 -78 -119 -63 -183 40 -71 114 36 24 146 74
164 75 4 0 7 -13 7 -28z m-356 -109 c-11 -114 64 -194 182 -197 30 0 54 -4 54
-8 0 -25 -51 -161 -69 -184 -11 -15 -21 -32 -21 -39 0 -21 -89 -114 -134 -140
-39 -22 -116 -44 -116 -32 0 3 14 27 31 52 39 58 69 135 69 178 0 49 -39 117
-80 139 -52 28 -129 20 -178 -18 -86 -69 -117 -207 -71 -315 21 -49 21 -50 3
-64 -51 -37 -111 -60 -161 -60 -44 0 -57 5 -84 30 -42 40 -79 120 -79 173 0
65 59 185 123 250 53 54 159 127 257 177 69 36 251 113 267 114 9 1 11 -14 7
-56z m3024 -83 c43 -134 213 -573 305 -785 53 -124 144 -295 224 -419 72 -112
75 -117 69 -123 -7 -7 -302 23 -456 47 -69 11 -186 29 -260 40 -149 23 -345
60 -478 91 l-87 20 -37 80 -37 80 27 11 c228 90 364 206 453 383 76 153 77
302 4 551 -6 19 2 22 112 46 65 14 124 25 132 25 8 -1 21 -22 29 -47z m-2146
-54 c41 -47 59 -75 109 -176 27 -54 37 -161 19 -214 -14 -45 -25 -46 -40 -2
-17 51 -74 126 -121 158 -110 74 -239 2 -239 -132 0 -123 99 -225 230 -237
l60 -6 0 -76 c0 -127 -40 -178 -147 -188 -109 -10 -200 53 -265 182 -52 103
-65 324 -32 567 l16 126 44 -34 c78 -59 158 -58 225 3 22 20 47 49 55 65 18
34 26 31 86 -36z m1751 -13 c32 -81 49 -192 45 -286 -3 -78 -9 -101 -35 -154
-63 -126 -158 -220 -291 -287 -45 -23 -96 -41 -122 -43 -41 -4 -47 -2 -67 28
l-21 31 70 35 c89 45 172 127 232 230 69 117 80 159 81 298 0 66 -3 132 -8
147 -6 25 -4 27 25 31 74 9 75 9 91 -30z m-239 -35 c13 -89 14 -113 5 -171
-13 -85 -76 -210 -138 -275 -33 -34 -76 -65 -123 -87 -85 -41 -89 -41 -113
-15 -21 23 -22 22 25 45 97 48 180 153 226 286 22 62 25 88 22 156 -3 81 -3
82 22 86 64 10 69 8 74 -25z m-219 -42 c8 -38 -15 -137 -44 -193 -41 -80 -79
-120 -142 -152 -75 -38 -86 -38 -120 -5 l-26 25 54 54 c63 64 112 159 117 231
l4 49 64 11 c34 6 68 12 75 13 7 0 15 -14 18 -33z m-2871 -3 c-11 -16 -31 -52
-45 -82 l-27 -54 -16 31 c-25 48 -20 57 42 95 31 19 59 36 61 36 2 1 -5 -11
-15 -26z m2581 -45 c-21 -97 -138 -213 -180 -178 -14 12 -14 15 3 34 30 35 50
71 61 114 10 37 15 42 54 50 69 16 69 16 62 -20z m-254 -35 c-6 -10 -19 -28
-28 -41 l-18 -22 -65 34 -65 35 80 3 c44 2 86 5 93 6 9 1 10 -3 3 -15z m-353
-59 c232 -91 411 -212 612 -413 214 -214 314 -374 369 -591 20 -80 28 -160 15
-160 -3 0 -36 28 -72 61 -163 150 -301 231 -463 274 -73 20 -136 18 -184 -4
-137 -62 -179 -184 -120 -352 99 -286 342 -460 584 -419 98 16 218 77 270 136
l40 46 30 -49 c99 -157 148 -371 121 -531 -24 -146 -108 -215 -285 -237 -49
-6 -52 -4 -135 55 -138 99 -239 192 -463 425 -246 256 -334 354 -439 485 -42
52 -111 135 -154 184 -44 49 -121 139 -172 200 -99 117 -100 123 -32 125 43 2
125 47 162 90 49 57 68 124 68 237 0 94 0 95 34 128 18 19 43 54 55 80 26 53
38 170 23 234 -8 34 -7 42 4 42 8 0 67 -21 132 -46z m-2180 -18 c11 -24 36
-61 56 -83 l36 -40 -16 -47 c-9 -25 -20 -46 -25 -46 -17 0 -61 53 -81 98 -26
58 -35 141 -17 153 23 14 27 11 47 -35z m-1321 -26 c36 -21 88 -47 115 -56
l50 -16 -19 -22 c-11 -11 -60 -66 -109 -121 -110 -123 -380 -459 -499 -620
-49 -66 -115 -155 -147 -198 -65 -87 -73 -125 -38 -170 34 -43 66 -47 370 -45
218 1 312 -2 400 -15 457 -65 732 -109 803 -128 29 -8 37 -14 33 -27 -107
-370 -156 -604 -156 -749 0 -26 -5 -43 -11 -43 -22 0 -242 69 -509 159 -146
49 -321 106 -390 126 -69 20 -276 86 -460 146 -184 60 -384 120 -445 134 -218
50 -210 47 -213 77 -5 43 29 97 181 286 180 222 282 360 432 582 211 312 524
740 541 740 3 0 35 -18 71 -40z m1148 -61 c6 -30 24 -78 39 -108 29 -56 108
-141 132 -141 8 0 14 -2 14 -4 0 -5 -52 -149 -55 -154 -1 -1 -23 9 -48 24 -96
53 -187 194 -190 292 -3 94 8 126 46 138 17 6 36 10 41 9 5 0 15 -26 21 -56z
m-233 -99 c4 -79 8 -97 44 -167 59 -118 203 -253 268 -253 13 0 13 -6 -1 -45
-18 -56 -30 -56 -120 -10 -93 49 -165 122 -213 217 -52 104 -66 173 -52 262
10 68 21 86 53 86 14 0 17 -15 21 -90z m-433 34 c2 -2 -2 -32 -8 -67 -23 -134
-6 -295 44 -419 36 -88 108 -192 165 -237 69 -55 218 -127 305 -147 39 -9 75
-18 82 -20 7 -2 -2 -44 -28 -125 -22 -68 -41 -125 -44 -127 -2 -3 -42 3 -87
12 -94 18 -341 58 -468 76 -47 6 -125 17 -175 25 -184 29 -317 37 -544 34
-127 -2 -231 0 -231 4 0 7 22 37 154 217 101 137 429 537 538 657 l120 133 86
-6 c48 -4 89 -8 91 -10z m233 -101 c4 -104 8 -127 36 -193 40 -93 76 -149 144
-218 59 -61 181 -137 234 -147 22 -4 34 -11 31 -18 -2 -7 -10 -29 -18 -50
l-14 -39 -46 6 c-107 14 -290 98 -346 158 -36 39 -91 137 -115 207 -19 56 -23
86 -23 196 0 90 4 141 14 165 18 43 27 50 67 50 l32 0 4 -117z m1698 30 c0 -5
9 -62 20 -128 36 -219 23 -485 -35 -708 -73 -284 -157 -456 -296 -611 -51 -56
-167 -151 -176 -143 -2 3 5 44 16 93 11 49 25 137 32 195 21 178 -16 384 -82
467 -69 86 -208 114 -301 60 -80 -47 -177 -174 -230 -299 -84 -201 -50 -407
91 -548 65 -65 159 -118 225 -127 25 -4 46 -11 46 -17 0 -20 -78 -141 -133
-208 -147 -177 -366 -271 -489 -210 -51 26 -80 50 -132 114 l-39 48 6 102 c10
162 25 229 133 617 71 253 139 462 204 630 29 74 65 173 80 220 42 124 128
369 135 380 3 5 31 -18 63 -50 47 -48 68 -61 116 -75 93 -27 186 -4 299 74
l44 30 54 -16 c90 -27 210 6 295 82 39 34 54 42 54 28z m236 -370 c13 -17 24
-34 24 -37 0 -3 -20 -6 -45 -6 l-45 0 0 77 0 78 21 -40 c12 -22 32 -54 45 -72z
m163 -192 c17 -21 31 -41 31 -45 0 -3 -19 -10 -42 -16 -50 -14 -115 -6 -181
22 -38 16 -47 25 -45 41 3 19 9 20 68 19 36 -2 79 2 95 7 17 5 33 10 37 10 3
1 20 -17 37 -38z m171 -201 c50 -58 52 -61 34 -76 -49 -39 -109 -57 -211 -62
-96 -4 -106 -3 -155 22 -29 14 -65 37 -81 51 -24 21 -27 29 -21 65 4 22 11 40
16 40 5 0 32 -7 59 -16 71 -24 222 -16 269 13 19 12 36 22 37 22 0 1 25 -26
53 -59z m960 49 c121 -27 281 -131 442 -287 l77 -75 -17 -30 c-45 -78 -161
-132 -282 -132 -63 0 -86 5 -134 29 -113 55 -223 200 -262 343 -14 53 -15 67
-4 94 25 60 85 80 180 58z m-2158 -198 c37 -42 58 -118 65 -237 6 -108 -9
-230 -50 -393 l-22 -86 -45 1 c-97 3 -209 87 -258 192 -49 107 -40 227 28 362
36 72 102 156 143 181 45 28 103 20 139 -20z m1360 -38 c15 -15 28 -32 28 -39
0 -20 -61 -65 -140 -103 -75 -36 -76 -36 -210 -36 -119 0 -141 3 -184 23 -72
33 -146 92 -146 117 0 42 13 45 62 15 76 -47 147 -63 257 -57 112 5 214 36
263 78 18 15 35 28 37 29 3 0 18 -12 33 -27z m153 -183 l27 -39 -21 -29 c-41
-58 -140 -139 -222 -182 -79 -41 -90 -44 -180 -48 -148 -6 -289 40 -414 135
-70 54 -82 78 -62 125 l16 37 58 -38 c91 -60 162 -82 285 -88 65 -4 132 -1
170 6 76 15 211 79 264 126 22 19 42 34 45 35 4 0 19 -18 34 -40z m169 -197
c29 -32 69 -77 90 -100 l38 -43 -70 -77 c-64 -72 -187 -225 -403 -499 -170
-216 -230 -309 -359 -557 -25 -49 -51 -87 -56 -85 -37 13 -464 1114 -464 1196
0 10 53 93 97 151 2 3 16 -7 31 -21 75 -70 215 -146 323 -175 86 -23 295 -24
356 -1 94 35 198 104 278 184 44 44 81 81 83 82 2 1 27 -24 56 -55z m397 -416
c115 -115 216 -205 297 -265 68 -50 128 -93 135 -96 16 -6 -122 -140 -363
-352 -107 -94 -251 -224 -320 -289 -69 -64 -161 -150 -205 -189 -352 -317
-464 -419 -467 -426 -7 -19 -179 -190 -191 -190 -17 0 -60 47 -81 88 -10 18
-53 126 -96 239 -107 275 -137 345 -247 573 -143 293 -361 776 -398 882 l-14
37 35 11 c19 6 68 36 110 66 42 30 78 54 79 52 1 -2 27 -77 58 -168 124 -371
397 -1027 443 -1067 16 -15 38 -23 60 -23 52 0 101 51 164 172 126 243 227
399 402 618 29 36 104 130 168 210 137 172 238 290 250 290 4 0 86 -78 181
-173z"/>
<path d="M5649 7245 c-60 -32 -83 -158 -56 -300 23 -125 77 -228 104 -202 11
11 72 323 73 369 0 63 -26 127 -57 139 -31 11 -32 11 -64 -6z"/>
<path d="M3067 6862 c-10 -11 -17 -35 -17 -57 0 -85 161 -189 341 -221 71 -12
119 -10 119 5 0 24 -239 235 -302 267 -57 29 -118 32 -141 6z"/>
<path d="M7155 5190 c-71 -34 -180 -131 -224 -197 -35 -53 -39 -73 -13 -73 25
0 286 87 332 110 70 36 110 78 110 116 0 78 -94 99 -205 44z"/>
<path d="M2375 4586 c-151 -49 -207 -76 -252 -119 -65 -61 -30 -137 62 -137
90 0 264 119 334 228 56 87 43 90 -144 28z"/>
<path d="M5952 2972 c-21 -14 -6 -32 118 -141 167 -149 260 -191 310 -141 52
52 7 138 -110 207 -83 49 -285 97 -318 75z"/>
<path d="M3755 2810 c-14 -23 -75 -323 -75 -370 0 -128 77 -185 147 -109 43
48 54 150 29 281 -22 117 -81 231 -101 198z"/>
</g>
</svg>
