<?xml version="1.0" standalone="no"?>
<!DOCTYPE svg PUBLIC "-//W3C//DTD SVG 20010904//EN"
 "http://www.w3.org/TR/2001/REC-SVG-20010904/DTD/svg10.dtd">
<svg version="1.0" xmlns="http://www.w3.org/2000/svg"
 width="641.000000pt" height="641.000000pt" viewBox="0 0 641.000000 641.000000"
 preserveAspectRatio="xMidYMid meet">

<g transform="translate(0.000000,641.000000) scale(0.100000,-0.100000)"
fill="" stroke="none">
<path d="M3010 6170 c-41 -4 -124 -13 -184 -19 -60 -7 -113 -14 -117 -17 -5
-3 -37 -10 -71 -15 -89 -14 -272 -61 -276 -71 -2 -4 -12 -8 -23 -8 -49 0 -266
-84 -446 -174 -461 -229 -853 -566 -1139 -981 -80 -117 -77 -111 -150 -239
-71 -124 -142 -275 -184 -391 -18 -49 -36 -99 -41 -110 -33 -80 -83 -269 -110
-414 -62 -332 -65 -733 -8 -1066 22 -126 75 -343 89 -360 4 -5 11 -26 15 -45
17 -85 104 -298 185 -456 139 -267 314 -507 525 -719 77 -78 169 -166 205
-196 36 -29 67 -56 70 -59 37 -38 310 -224 348 -237 9 -3 24 -12 32 -18 47
-39 453 -225 491 -225 8 0 19 -4 25 -8 9 -8 155 -52 293 -87 36 -10 105 -23
155 -31 50 -8 118 -19 151 -25 102 -16 478 -23 627 -10 145 12 356 47 478 80
109 28 215 59 241 70 13 5 79 31 147 57 67 26 122 51 122 55 0 5 7 9 15 9 16
0 181 84 272 138 93 55 247 160 318 217 125 100 295 258 295 275 0 5 4 10 10
10 21 0 185 191 287 334 270 377 447 809 521 1266 11 69 20 132 20 140 0 8 6
86 13 173 12 149 6 322 -17 537 -32 295 -149 682 -291 963 -90 178 -259 440
-355 550 -18 21 -46 54 -63 75 -54 68 -269 276 -375 363 -177 145 -375 272
-565 364 -131 63 -120 59 -206 93 -137 55 -184 72 -219 78 -19 4 -39 10 -45
15 -25 19 -335 84 -495 104 -149 18 -465 27 -570 15z m337 -218 c10 -6 13
-260 13 -1193 0 -651 0 -1192 0 -1201 0 -16 -13 -18 -140 -18 l-140 0 0 1210
0 1210 128 0 c70 0 133 -4 139 -8z m-489 -464 l-3 -443 -137 -3 -138 -3 -1
253 c-1 139 0 261 0 271 5 39 -35 32 -224 -40 -107 -41 -395 -182 -395 -195 0
-4 -5 -8 -12 -8 -18 0 -222 -140 -321 -219 -48 -39 -91 -71 -96 -71 -9 0 -115
100 -160 153 -40 45 -44 40 94 151 200 162 406 287 650 396 195 87 580 195
713 199 l32 1 -2 -442z m950 406 c258 -53 595 -182 784 -301 21 -12 40 -23 44
-23 22 0 307 -207 395 -288 20 -18 45 -39 55 -47 18 -13 12 -21 -80 -114
l-100 -100 -35 30 c-266 222 -541 379 -888 508 -135 51 -123 76 -123 -244 l0
-275 -140 0 -140 0 0 446 0 447 53 -7 c28 -4 108 -18 175 -32z m337 -632 c149
-68 282 -147 454 -271 85 -61 340 -315 419 -417 35 -45 93 -128 129 -185 66
-105 173 -313 173 -336 0 -10 -179 -13 -870 -13 l-870 0 0 390 0 391 138 -3
137 -3 3 -247 2 -248 485 0 c401 0 485 2 485 14 0 57 -426 492 -461 470 -5 -3
-9 -63 -9 -135 l0 -129 -140 0 -140 0 0 376 c0 207 3 374 8 372 4 -2 30 -14
57 -26z m-1785 -352 l0 -370 -145 0 -145 0 0 125 c0 123 0 125 -23 125 -27 0
-120 -79 -240 -203 -101 -105 -210 -244 -202 -258 4 -5 203 -9 484 -9 l478 0
7 77 c4 42 6 153 5 245 -1 100 2 173 8 179 6 6 57 7 139 2 l129 -8 3 -379 c1
-209 -2 -384 -6 -388 -8 -8 -1732 -12 -1740 -3 -8 8 117 252 183 355 127 200
324 419 506 565 139 111 489 314 542 315 16 0 17 -24 17 -370z m-1105 75 c28
-27 66 -67 85 -88 l33 -38 -35 -37 c-136 -144 -311 -419 -405 -637 -58 -133
-123 -318 -123 -347 0 -17 44 -18 1023 -20 l1022 -3 3 -137 3 -138 -1168 0
c-642 0 -1177 -3 -1188 -5 -41 -11 -46 4 -30 102 57 350 177 665 392 1028 33
54 179 249 242 323 71 82 59 83 146 -3z m4040 39 c106 -116 259 -333 355 -501
147 -260 284 -662 315 -925 l7 -58 -1195 0 c-947 0 -1196 3 -1199 13 -3 6 -3
69 0 140 l4 127 1019 0 1019 0 0 24 c0 33 -71 237 -125 356 -92 204 -218 406
-359 575 l-75 90 96 97 c101 101 102 102 138 62z m-2940 -1849 l0 -140 -955 0
-955 0 -3 143 -3 142 958 -2 958 -3 0 -140z m1500 0 l0 -140 -639 0 -639 0 -1
138 c-1 76 0 140 3 143 2 2 291 3 640 2 l636 -3 0 -140z m2140 0 l0 -140 -955
0 -955 0 -3 143 -3 142 958 -2 958 -3 0 -140z m-3147 -360 c9 -3 12 -41 12
-140 l0 -135 -1020 0 c-858 0 -1021 -2 -1026 -14 -11 -30 84 -292 168 -460 98
-196 249 -423 352 -528 20 -20 36 -41 36 -45 0 -14 -187 -196 -197 -192 -11 5
-137 148 -174 199 -275 376 -454 792 -525 1219 -17 107 -17 99 3 103 26 5
2357 -1 2371 -7z m507 -4 c3 -5 5 -549 5 -1207 0 -943 -3 -1200 -13 -1206 -6
-4 -68 -7 -137 -6 l-125 3 -3 1213 -2 1212 134 0 c74 0 137 -4 141 -9z m2611
-53 c-4 -35 -14 -90 -21 -123 -8 -33 -17 -76 -20 -95 -7 -38 -44 -168 -77
-265 -81 -245 -245 -552 -407 -765 -82 -109 -171 -210 -183 -210 -13 0 -188
178 -188 191 0 5 25 39 55 75 208 245 383 564 479 875 12 41 21 80 18 87 -3 9
-230 12 -1023 12 l-1019 0 0 23 c-3 170 -2 236 4 245 5 9 307 12 1198 12
l1191 0 -7 -62z m-3111 -833 l0 -390 -139 0 -138 0 0 248 0 247 -489 0 c-269
0 -489 -4 -489 -9 0 -9 53 -81 103 -141 96 -115 328 -330 355 -330 8 0 12 44
14 133 l3 132 140 0 140 0 3 -364 c1 -210 -2 -369 -7 -374 -5 -5 -56 14 -126
48 -402 196 -747 516 -975 902 -51 86 -140 266 -140 283 0 7 290 9 873 8 l872
-3 0 -390z m2465 378 c0 -27 -123 -263 -194 -372 -56 -85 -162 -221 -255 -326
-73 -83 -247 -226 -401 -330 -94 -64 -356 -205 -380 -205 -6 0 -10 141 -10
375 l0 375 140 0 140 0 0 -135 c0 -140 4 -151 41 -122 76 59 116 94 194 172
120 119 234 257 235 283 0 9 -103 12 -485 12 l-485 0 -2 -247 -3 -248 -137 -3
-137 -3 -3 373 c-2 205 -1 383 1 396 l3 22 869 0 c792 0 869 -2 869 -17z
m-3703 -1040 c172 -137 350 -252 520 -337 138 -69 415 -172 433 -161 7 4 9
102 7 276 l-3 269 143 0 143 0 -2 -442 -3 -443 -50 3 c-27 2 -87 12 -133 23
-45 10 -94 19 -108 19 -13 0 -32 4 -42 9 -9 6 -70 26 -134 46 -146 44 -373
140 -499 211 -54 30 -102 54 -107 54 -6 0 -12 3 -14 8 -1 4 -30 25 -63 47 -93
62 -212 151 -298 223 l-78 66 98 98 c54 54 99 98 101 98 2 0 42 -30 89 -67z
m3343 17 c26 -27 53 -50 59 -50 6 0 11 -4 11 -9 0 -5 17 -26 37 -47 l36 -38
-59 -54 c-32 -29 -87 -74 -121 -99 -35 -26 -63 -50 -63 -55 0 -4 -4 -8 -9 -8
-5 0 -51 -28 -102 -62 -323 -215 -751 -379 -1126 -432 l-43 -6 0 445 0 445
140 0 140 0 0 -275 c0 -151 4 -275 8 -275 5 0 47 13 93 29 321 111 609 269
844 465 50 41 94 75 99 75 4 1 30 -21 56 -49z"/>
</g>
</svg>
