<?xml version="1.0" standalone="no"?>
<!DOCTYPE svg PUBLIC "-//W3C//DTD SVG 20010904//EN"
 "http://www.w3.org/TR/2001/REC-SVG-20010904/DTD/svg10.dtd">
<svg version="1.0" xmlns="http://www.w3.org/2000/svg"
 width="972.000000pt" height="972.000000pt" viewBox="0 0 972.000000 972.000000"
 preserveAspectRatio="xMidYMid meet">

<g transform="translate(0.000000,972.000000) scale(0.100000,-0.100000)"
fill="" stroke="none">
<path d="M4655 9635 c-95 -26 -213 -93 -286 -162 -105 -99 -168 -223 -220
-432 -15 -62 -30 -115 -32 -118 -3 -2 -29 14 -58 36 -209 158 -551 216 -828
141 -129 -36 -180 -70 -297 -199 -237 -261 -349 -502 -380 -819 -6 -62 -9 -72
-23 -67 -50 19 -146 35 -219 35 -95 0 -198 -29 -292 -83 -85 -48 -202 -166
-243 -245 -60 -115 -77 -187 -77 -328 l0 -124 -70 45 c-81 53 -204 108 -310
138 -109 31 -281 30 -365 -3 -148 -57 -259 -157 -325 -295 -49 -100 -64 -186
-58 -324 9 -183 76 -310 265 -500 57 -56 103 -104 103 -105 0 -2 -17 -8 -37
-14 -78 -23 -196 -104 -289 -196 -184 -183 -293 -414 -294 -621 0 -71 6 -97
51 -225 111 -319 250 -516 486 -693 l81 -61 -56 -61 c-119 -128 -162 -239
-162 -415 0 -193 53 -323 185 -455 61 -61 101 -91 166 -125 l87 -45 -74 -40
c-210 -114 -370 -279 -433 -445 -35 -92 -36 -255 -3 -351 62 -181 200 -321
389 -397 64 -25 78 -27 218 -26 138 0 159 3 265 33 63 17 124 34 135 37 19 5
20 0 21 -153 0 -142 3 -167 27 -248 63 -205 170 -376 310 -493 54 -46 162
-102 196 -102 11 0 59 -9 106 -20 285 -66 575 -41 833 72 53 23 97 37 102 32
4 -5 15 -36 25 -69 58 -204 213 -353 440 -421 72 -21 224 -24 305 -4 71 16
161 57 229 104 29 20 56 36 60 36 3 0 6 -62 7 -138 1 -368 144 -612 411 -701
89 -30 277 -30 365 0 185 62 308 169 388 336 42 87 93 248 105 326 l7 46 62
-43 c256 -182 613 -227 907 -115 79 30 90 37 182 133 253 261 367 484 412 809
8 61 17 113 19 115 3 2 31 -4 63 -13 82 -25 241 -25 313 -1 218 74 368 218
437 419 24 73 28 97 28 209 0 71 1 128 3 128 2 0 22 -13 45 -29 66 -45 181
-100 280 -133 127 -42 292 -51 394 -20 126 39 229 114 304 224 51 75 75 130
94 222 29 143 11 296 -49 414 -41 80 -140 205 -233 291 -47 45 -81 81 -75 81
6 0 37 12 69 26 298 136 545 495 547 794 1 87 -3 105 -43 220 -112 322 -253
527 -480 698 -42 31 -80 60 -86 64 -5 5 12 30 42 61 65 66 116 147 144 228 19
54 23 85 23 194 0 114 -3 140 -27 211 -51 152 -166 284 -319 364 -48 25 -84
48 -82 51 2 4 27 19 56 34 100 52 189 117 277 204 76 74 95 100 137 185 47 98
48 102 52 214 4 103 2 121 -23 199 -35 106 -87 185 -173 263 -130 117 -298
178 -462 166 -99 -8 -242 -36 -326 -65 -32 -12 -61 -21 -64 -21 -4 0 -3 30 2
68 34 264 -90 594 -300 798 -92 89 -154 119 -324 155 -234 50 -456 51 -647 3
-50 -13 -214 -74 -297 -110 -7 -3 -16 15 -24 48 -37 163 -164 319 -320 395
-103 50 -193 73 -286 73 -134 -1 -262 -42 -383 -124 -29 -20 -54 -36 -55 -36
-2 0 -3 57 -3 128 -1 259 -73 466 -209 596 -55 53 -159 110 -240 131 -72 19
-230 18 -299 0z m339 -164 c156 -75 233 -211 266 -465 6 -48 8 -120 5 -160 -8
-90 -26 -219 -32 -229 -2 -4 -35 20 -72 53 l-68 60 10 67 c14 101 4 239 -20
294 -55 123 -182 199 -335 199 -138 0 -292 -123 -346 -278 -10 -28 -21 -54
-23 -56 -2 -2 -28 -6 -57 -9 l-53 -6 6 32 c4 18 18 68 31 112 72 229 167 337
354 403 55 19 81 22 165 19 89 -3 107 -6 169 -36z m-1254 -511 c128 -37 223
-94 332 -198 114 -110 180 -196 236 -307 98 -195 151 -356 221 -670 22 -99 67
-286 100 -415 97 -385 151 -678 151 -828 l0 -54 -37 32 c-31 28 -42 31 -76 27
-23 -3 -50 -16 -67 -32 l-28 -26 -5 43 c-4 24 -13 113 -22 198 -30 300 -85
577 -134 681 -69 146 -200 199 -311 125 -119 -78 -199 -281 -216 -541 -8 -136
25 -459 61 -599 9 -35 -43 68 -89 176 -104 245 -130 312 -187 497 -94 305
-178 505 -276 652 -88 135 -226 262 -345 320 -57 27 -97 19 -112 -22 -17 -48
-1 -71 80 -119 96 -56 220 -185 288 -298 64 -107 154 -326 216 -523 28 -88 50
-165 50 -171 0 -17 178 -445 221 -530 21 -43 35 -78 31 -78 -4 0 -59 45 -122
101 -127 111 -244 196 -405 295 -95 58 -227 114 -270 114 -34 0 -188 365 -265
626 -88 303 -94 641 -15 894 27 84 98 232 134 279 l19 24 41 -88 c68 -146 218
-276 363 -315 141 -38 283 29 340 159 29 67 28 186 -2 266 -28 72 -118 167
-195 204 -235 115 -340 -115 -137 -300 104 -95 153 -111 191 -62 27 33 32 28
21 -20 -18 -82 -71 -122 -150 -115 -151 15 -334 208 -334 352 0 121 71 202
214 245 95 29 101 30 265 26 118 -2 166 -7 225 -25z m880 -175 c347 -83 554
-256 706 -595 77 -171 115 -315 134 -509 15 -159 16 -158 -24 -165 -162 -31
-380 -370 -466 -726 -16 -63 -32 -142 -36 -175 l-8 -60 -8 70 c-31 256 -74
473 -158 800 -27 105 -63 253 -80 330 -69 317 -113 465 -187 635 -67 155 -100
213 -180 317 -35 46 -63 85 -63 87 0 20 277 13 370 -9z m1367 -10 c141 -48
234 -124 289 -238 33 -70 60 -168 51 -190 -8 -20 -85 -70 -96 -62 -6 3 -11 14
-11 23 0 28 -55 115 -103 164 -103 106 -220 154 -352 146 -105 -7 -188 -51
-292 -154 l-83 -81 -15 23 c-8 13 -15 29 -14 36 0 7 24 56 53 108 57 104 99
143 211 200 111 56 241 65 362 25z m-2531 -97 c36 -38 64 -89 64 -115 -1 -16
-2 -16 -12 2 -6 11 -21 27 -32 35 -50 34 -126 114 -126 132 0 18 1 18 38 -1
20 -11 51 -34 68 -53z m2427 -212 c59 -21 116 -66 161 -125 35 -46 41 -61 44
-115 l4 -61 -62 -60 c-58 -56 -63 -59 -73 -40 -24 42 -100 104 -144 119 -90
31 -179 19 -261 -35 l-43 -29 -8 23 c-5 12 -16 39 -24 59 -10 23 -12 40 -6 44
5 3 20 22 33 43 69 109 195 191 291 191 28 -1 67 -7 88 -14z m1297 -44 c0 -5
-13 -21 -29 -36 -38 -37 -97 -154 -117 -236 -9 -36 -17 -101 -17 -145 -1 -146
48 -248 148 -310 41 -25 61 -31 127 -34 72 -3 85 0 143 28 80 40 155 120 186
199 32 82 33 219 1 280 -43 81 -118 103 -188 56 -64 -44 -86 -80 -114 -192
-27 -106 -26 -147 5 -177 13 -14 34 -25 45 -25 33 0 70 44 70 82 0 38 22 124
39 156 30 57 42 -27 16 -115 -26 -89 -110 -153 -201 -153 -42 0 -51 4 -84 39
-30 31 -40 52 -48 99 -27 151 47 345 154 408 57 34 144 43 198 20 148 -62 310
-283 367 -501 32 -120 30 -279 -4 -408 -48 -179 -106 -295 -239 -470 -92 -123
-189 -223 -458 -474 -113 -105 -225 -212 -250 -238 -68 -71 -324 -303 -420
-380 -85 -68 -226 -165 -240 -165 -5 0 -3 16 3 35 8 28 7 42 -5 68 -15 30 -30
42 -87 64 -22 8 -18 12 60 69 339 244 389 283 529 424 129 128 164 188 165
275 0 100 -52 160 -168 191 -129 34 -313 -4 -517 -106 -89 -45 -292 -185 -409
-283 -49 -41 -78 -60 -71 -47 34 64 326 435 419 533 220 233 352 405 435 567
75 146 106 257 113 400 5 107 4 117 -17 143 -27 34 -63 35 -95 2 -23 -22 -25
-32 -25 -108 0 -264 -139 -509 -521 -917 -103 -110 -332 -400 -415 -524 -21
-32 -40 -53 -42 -48 -2 6 10 82 27 169 54 278 66 612 26 729 l-17 52 52 78
c105 158 217 296 365 452 237 249 560 430 840 472 70 10 265 12 265 2z m-1399
-377 c36 -19 69 -70 69 -108 0 -19 -17 -47 -53 -90 -29 -34 -81 -101 -117
-149 -35 -47 -67 -85 -71 -83 -3 3 -9 44 -12 93 -4 49 -13 121 -22 161 -19 91
-20 84 12 122 56 67 129 87 194 54z m-3318 -156 c43 -12 80 -27 82 -33 2 -6 6
-34 9 -62 l5 -51 -87 5 c-252 14 -454 -139 -482 -365 -10 -76 2 -170 30 -250
11 -32 20 -61 20 -65 0 -4 -15 -8 -33 -8 -32 0 -37 6 -86 85 -70 115 -81 150
-81 262 0 148 44 256 143 356 54 53 148 110 221 133 63 20 170 17 259 -7z m74
-300 c30 -15 45 -29 49 -47 3 -15 12 -49 20 -76 21 -73 20 -76 -28 -76 -54 0
-133 -36 -177 -81 -52 -52 -75 -112 -76 -197 l0 -73 -60 6 c-33 4 -61 8 -61 9
-1 0 -18 42 -38 92 -31 79 -36 103 -36 173 0 51 6 96 15 119 19 43 77 107 120
130 88 46 202 55 272 21z m6042 -144 c143 -38 266 -136 329 -263 36 -74 37
-79 37 -187 0 -105 -2 -114 -34 -180 -58 -119 -208 -253 -381 -340 -79 -40
-200 -88 -206 -82 -2 2 1 21 7 43 6 21 14 59 18 83 l6 44 117 59 c192 98 254
179 252 333 -2 247 -212 405 -475 355 -50 -10 -55 -9 -71 12 -25 33 -42 67
-37 73 9 8 124 37 204 50 107 17 169 18 234 0z m-4332 -37 c11 -13 28 -38 37
-56 17 -33 66 -228 85 -337 17 -95 51 -430 80 -780 15 -181 35 -584 29 -590
-13 -14 -242 365 -295 489 -43 100 -109 317 -123 399 -15 93 -40 344 -40 409
0 104 37 285 75 364 35 73 82 124 114 124 10 0 27 -10 38 -22z m1288 -73 c26
-53 31 -238 12 -430 -29 -279 -155 -896 -210 -1027 -41 -96 -137 -278 -147
-278 -6 0 -8 10 -6 23 3 12 8 78 11 147 15 326 77 666 170 939 40 121 42 144
15 171 -29 29 -74 26 -99 -7 -52 -65 -164 -504 -201 -783 -15 -115 -31 -367
-29 -440 1 -36 -2 -65 -7 -65 -27 0 -34 543 -10 735 45 340 72 474 125 611
101 261 246 456 331 447 18 -2 31 -14 45 -43z m-4211 -32 c44 -14 119 -45 166
-69 82 -42 260 -168 267 -189 1 -5 -35 -23 -81 -38 l-85 -28 -45 34 c-124 95
-218 137 -305 137 -96 0 -153 -23 -226 -91 -88 -83 -117 -143 -117 -246 0
-108 23 -178 88 -268 l54 -76 -20 -45 c-11 -24 -24 -44 -28 -44 -13 0 -146
142 -185 196 -70 97 -91 158 -95 270 -6 160 28 262 125 365 51 54 145 107 211
119 71 13 185 2 276 -27z m6706 -12 c43 -55 114 -198 140 -282 127 -409 16
-768 -347 -1119 -94 -92 -258 -217 -308 -236 -11 -4 -28 5 -49 25 -140 136
-605 130 -980 -13 -38 -14 -70 -25 -72 -24 -1 2 50 42 114 90 165 123 435 372
970 893 231 225 391 443 457 623 17 45 33 82 37 82 3 0 20 -18 38 -39z m-5377
-50 c17 -7 30 -27 47 -73 12 -34 45 -114 71 -177 27 -63 47 -116 45 -118 -2
-2 -48 16 -103 41 -55 24 -126 52 -157 61 -52 15 -60 21 -77 58 -35 78 -17
156 46 197 32 21 88 26 128 11z m-448 -331 c170 -20 325 -66 498 -148 l118
-56 -7 -30 c-13 -54 -6 -146 16 -215 58 -180 253 -456 426 -603 153 -129 155
-124 -12 -49 -113 51 -358 135 -558 192 -61 17 -217 63 -346 102 -526 157
-599 174 -841 196 -110 10 -220 6 -350 -15 l-40 -7 26 59 c88 198 275 394 470
492 67 33 177 69 252 82 70 11 244 11 348 0z m4537 -192 c83 -25 71 -83 -39
-199 -131 -137 -240 -224 -633 -503 -181 -128 -229 -160 -489 -330 -106 -70
-196 -124 -199 -121 -12 11 159 329 248 460 63 94 230 276 321 351 99 81 292
215 356 248 176 88 338 123 435 94z m-3617 -87 c102 -48 333 -208 470 -325 72
-61 171 -145 220 -186 50 -40 152 -135 228 -209 117 -115 152 -157 224 -269
47 -73 83 -135 80 -138 -6 -6 -237 143 -347 224 -142 104 -317 260 -464 414
-81 84 -154 157 -162 161 -22 13 -69 -10 -82 -39 -17 -35 -4 -59 90 -164 187
-210 425 -414 685 -588 99 -66 190 -123 202 -127 20 -6 30 -25 14 -25 -39 0
-457 234 -588 328 -118 85 -397 316 -445 369 -117 127 -243 321 -281 431 -24
70 -25 145 -2 167 22 22 78 14 158 -24z m1585 -461 c11 -85 27 -186 35 -225 7
-38 16 -88 19 -110 3 -22 19 -123 35 -225 26 -166 49 -401 37 -389 -13 13 -90
227 -111 309 -49 194 -68 342 -69 540 -1 189 9 297 24 270 4 -8 18 -85 30
-170z m3845 1 c131 -61 233 -169 276 -291 19 -54 23 -85 23 -181 0 -111 -1
-118 -34 -185 -34 -70 -150 -204 -177 -204 -11 0 -90 35 -102 46 -1 1 11 20
28 41 87 110 124 291 85 422 -32 110 -100 190 -212 249 -59 31 -161 62 -206
62 -30 0 -33 16 -8 47 14 18 29 23 87 26 113 6 175 -2 240 -32z m-7018 -16
c205 -23 319 -50 664 -158 97 -31 246 -74 330 -97 240 -65 585 -183 718 -246
67 -31 121 -61 121 -65 0 -5 -12 -9 -26 -9 -39 0 -84 -50 -84 -94 0 -19 4 -46
10 -61 5 -14 7 -24 2 -22 -13 8 -184 87 -188 87 -2 0 -68 29 -146 64 -147 65
-343 134 -458 161 -310 72 -450 -130 -272 -392 74 -108 242 -247 392 -323 106
-53 292 -133 375 -160 39 -13 64 -25 58 -27 -33 -11 -524 58 -684 96 -509 121
-780 128 -1049 26 -81 -31 -160 -82 -179 -116 -12 -22 -12 -29 0 -55 21 -43
74 -45 137 -6 116 71 256 104 442 105 183 0 307 -18 645 -97 133 -30 420 -72
650 -94 l80 -7 -160 -55 c-171 -59 -456 -192 -567 -266 -37 -25 -83 -64 -102
-86 l-35 -41 -108 7 c-264 18 -580 80 -763 151 -304 117 -533 286 -677 500
-34 51 -83 137 -83 147 0 2 57 3 127 3 108 0 139 4 201 24 172 56 293 178 309
310 17 143 -99 282 -266 321 -179 42 -416 -96 -398 -231 15 -111 147 -150 315
-93 120 40 150 68 130 125 -14 40 -50 52 -101 33 -92 -33 -140 -45 -170 -42
l-32 3 41 27 c82 53 164 59 244 18 44 -22 87 -71 96 -107 30 -118 -159 -253
-356 -253 -88 0 -134 15 -181 57 -59 53 -79 99 -79 179 0 163 87 349 239 508
134 141 300 217 546 251 121 17 139 17 292 0z m6761 -179 c91 -24 167 -81 205
-151 18 -33 22 -56 21 -130 -1 -131 -42 -213 -127 -257 -26 -13 -36 -12 -105
8 -84 24 -83 23 -57 94 24 64 16 165 -18 222 -33 56 -70 91 -130 120 l-47 25
36 47 37 48 67 -6 c36 -4 90 -13 118 -20z m-283 -215 c58 -26 86 -62 92 -114
6 -47 -10 -89 -46 -121 -20 -18 -24 -19 -128 -3 -60 9 -146 22 -193 28 -47 6
-86 12 -88 13 -1 2 46 39 105 83 60 45 119 92 132 107 29 31 69 34 126 7z
m-1925 -25 c0 -2 -34 -30 -76 -62 -43 -33 -145 -115 -229 -184 -301 -247 -388
-316 -486 -384 -55 -37 -102 -66 -104 -64 -8 8 149 190 236 273 175 166 435
346 586 405 46 18 73 24 73 16z m1196 -120 c65 -20 104 -51 104 -81 0 -30 -39
-77 -98 -117 -86 -59 -348 -184 -487 -233 -77 -26 -198 -70 -269 -97 -184 -69
-457 -146 -562 -157 -128 -14 -267 -17 -270 -6 -4 14 380 197 525 250 181 66
358 119 506 150 72 15 138 34 148 43 35 31 16 97 -34 115 -18 6 -210 -31 -327
-64 -110 -31 -300 -95 -417 -141 -115 -45 -437 -204 -464 -229 -10 -10 -23
-14 -30 -9 -25 15 283 207 525 328 127 63 464 194 573 222 187 49 462 61 577
26z m-4806 -46 c191 -53 344 -113 680 -270 69 -32 166 -76 215 -99 50 -22 202
-97 339 -167 212 -108 246 -129 227 -136 -13 -4 -143 -8 -289 -9 -284 -1 -321
3 -535 57 -165 42 -437 160 -563 245 -201 135 -331 321 -268 383 22 22 103 20
194 -4z m1108 -191 c70 -28 186 -73 257 -99 362 -134 666 -262 653 -276 -5 -4
-214 28 -268 42 -130 32 -361 119 -493 185 -125 63 -323 199 -289 199 7 0 70
-23 140 -51z m4189 26 c148 -20 381 -66 496 -100 103 -30 274 -106 384 -171
152 -89 292 -216 385 -349 38 -54 101 -166 96 -171 -2 -1 -38 2 -81 8 -158 22
-349 -42 -463 -156 -69 -70 -94 -127 -94 -215 0 -73 33 -143 94 -199 76 -70
123 -86 246 -87 96 0 110 2 164 29 76 37 141 102 157 156 11 38 11 46 -7 78
-41 78 -126 105 -242 79 -152 -35 -218 -83 -196 -145 16 -45 53 -50 142 -20
42 15 94 30 116 34 56 10 44 -14 -24 -48 -98 -51 -209 -32 -278 46 -82 94 -8
217 173 286 82 31 211 33 275 3 84 -38 140 -123 140 -213 -1 -106 -68 -284
-154 -403 -50 -71 -152 -174 -210 -213 -66 -45 -177 -91 -291 -120 -100 -26
-125 -29 -275 -29 -245 1 -392 30 -805 159 -82 26 -231 70 -330 97 -346 96
-652 204 -796 281 l-59 32 38 12 c64 22 93 77 73 135 -6 18 -9 34 -7 36 2 2
41 -14 87 -36 325 -153 614 -260 766 -283 131 -21 231 19 273 109 26 56 24
106 -10 196 -40 107 -172 250 -324 351 -97 64 -348 181 -501 233 l-70 24 95
-6 c155 -10 482 -61 670 -104 374 -87 663 -103 873 -48 170 45 297 121 297
178 0 34 -31 69 -60 69 -12 0 -55 -18 -96 -41 -227 -125 -498 -130 -994 -19
-217 49 -527 96 -697 107 -51 3 -93 9 -93 13 0 4 51 24 113 45 164 55 242 87
379 156 153 76 274 154 313 201 30 36 30 37 112 37 45 1 135 -6 200 -14z
m-1344 -669 c234 -48 387 -101 607 -211 137 -69 288 -189 352 -282 36 -53 61
-121 54 -149 -25 -100 -311 -18 -921 262 -200 92 -765 377 -765 385 0 23 556
20 673 -5z m-2419 -15 c5 -8 -339 -180 -444 -221 -195 -77 -405 -142 -585
-179 -109 -23 -144 -35 -157 -52 -25 -30 -22 -61 7 -89 21 -20 30 -22 77 -16
171 23 559 139 758 226 148 65 408 199 413 212 3 9 8 10 16 2 19 -17 -215
-169 -451 -293 -126 -66 -436 -194 -578 -239 -140 -44 -269 -62 -443 -62 -139
0 -234 19 -281 55 -30 23 -25 70 13 109 73 76 351 216 606 305 94 33 215 76
270 96 102 38 328 106 413 126 26 6 99 14 162 18 169 12 198 12 204 2z m1356
-101 c287 -48 709 -229 859 -367 l46 -43 -40 14 c-22 8 -87 33 -144 56 -57 23
-151 59 -210 80 -58 21 -131 48 -161 60 -30 12 -111 43 -180 70 -141 53 -336
149 -305 149 11 1 72 -8 135 -19z m-857 -32 c-158 -209 -377 -410 -602 -552
-91 -57 -268 -142 -278 -132 -7 6 32 40 132 117 50 37 117 91 148 118 32 28
112 94 179 148 67 54 145 117 173 140 65 52 237 172 249 173 5 0 4 -6 -1 -12z
m483 -493 c56 -234 83 -508 65 -675 -18 -169 -27 -154 -61 95 -6 44 -20 130
-31 190 -48 269 -79 494 -84 603 l-6 117 46 -115 c26 -63 57 -160 71 -215z
m-3872 220 l56 -25 -32 -42 c-78 -102 -120 -263 -98 -379 33 -178 168 -302
377 -347 l83 -17 -21 -34 -20 -33 -132 4 -132 3 -79 45 c-181 104 -266 247
-266 450 0 146 34 226 143 338 34 34 62 62 63 62 1 0 27 -11 58 -25z m4464
-104 c156 -79 360 -202 470 -284 142 -106 313 -247 382 -316 215 -218 377
-532 317 -616 -20 -27 -102 -16 -180 25 -96 50 -304 189 -388 261 -42 35 -143
120 -225 189 -82 68 -211 185 -288 260 -115 113 -153 157 -226 269 -49 74 -87
138 -84 143 8 13 356 -226 489 -335 66 -55 201 -182 301 -283 193 -196 210
-208 254 -164 28 28 25 60 -12 111 -51 71 -312 326 -453 443 -139 115 -477
346 -507 346 -10 0 -18 7 -18 15 0 8 3 15 6 15 3 0 76 -36 162 -79z m-4160
-13 c42 -12 78 -23 80 -24 1 0 -8 -23 -20 -50 -26 -59 -28 -160 -4 -216 23
-54 72 -106 133 -140 30 -17 53 -33 51 -37 -2 -3 -16 -25 -33 -48 l-30 -42
-55 5 c-310 29 -440 211 -326 459 22 49 90 115 118 115 5 0 43 -10 86 -22z
m457 -93 c55 -8 119 -15 143 -15 23 0 42 -3 42 -7 0 -5 -29 -27 -64 -51 -35
-23 -96 -70 -137 -104 -65 -55 -77 -61 -113 -59 -134 8 -202 164 -107 244 27
22 34 24 83 15 29 -4 98 -15 153 -23z m2417 -107 c-66 -134 -176 -322 -239
-410 -95 -133 -288 -319 -448 -433 -160 -114 -246 -160 -381 -204 -72 -23
-115 -31 -171 -31 -199 0 -192 77 24 279 112 104 142 128 384 303 257 187 435
310 544 378 61 38 157 101 215 139 57 39 106 68 108 66 3 -2 -14 -42 -36 -87z
m382 30 c13 -74 18 -478 7 -601 -16 -182 -66 -498 -96 -599 -72 -251 -235
-519 -339 -558 -70 -26 -102 51 -99 240 3 181 20 342 51 505 17 83 38 197 47
255 23 136 89 409 117 480 34 88 139 290 149 290 10 0 7 -101 -12 -330 -19
-236 -78 -531 -149 -748 -55 -167 -53 -201 10 -217 51 -12 75 22 124 178 104
330 161 672 168 1009 3 126 10 159 22 96z m-1414 -55 c-147 -98 -345 -271
-651 -567 -91 -89 -249 -241 -352 -339 -293 -280 -456 -502 -527 -722 l-13
-39 -34 39 c-47 54 -136 242 -162 340 -11 44 -26 124 -32 178 -35 283 84 573
346 846 105 109 159 154 288 241 l79 52 31 -30 c40 -38 126 -77 202 -91 32 -6
119 -11 192 -11 210 0 405 35 582 105 110 43 118 43 51 -2z m2109 -183 c114
-191 149 -258 184 -356 146 -405 169 -864 56 -1100 -27 -58 -86 -124 -110
-124 -27 0 -78 69 -97 131 -67 216 -137 790 -162 1329 -6 124 -13 252 -16 285
l-5 60 25 -30 c14 -16 70 -104 125 -195z m-1934 99 c-12 -53 3 -98 38 -119 18
-11 42 -20 55 -20 30 0 28 -12 -6 -32 -33 -20 -285 -204 -391 -286 -41 -31
-127 -109 -191 -172 -129 -127 -161 -179 -168 -271 -10 -135 91 -211 278 -210
130 0 325 62 466 147 87 52 276 190 361 263 41 35 70 54 64 42 -29 -54 -351
-472 -386 -501 -49 -41 -236 -255 -327 -378 -179 -238 -260 -438 -262 -649 -1
-92 1 -104 21 -124 26 -26 67 -28 93 -4 16 15 20 31 20 85 0 282 145 541 532
949 88 93 346 422 423 539 15 23 29 41 31 39 2 -2 -9 -71 -25 -153 -37 -187
-39 -202 -51 -409 -11 -179 -3 -291 25 -359 15 -34 14 -35 -47 -128 -154 -235
-431 -536 -608 -660 -242 -170 -520 -268 -760 -268 -86 0 -98 9 -67 46 169
203 183 529 29 665 -148 130 -386 61 -484 -139 -60 -121 -48 -296 23 -357 56
-46 140 -31 197 35 45 52 102 251 85 297 -19 54 -76 70 -113 33 -11 -11 -20
-23 -20 -27 -1 -65 -43 -213 -61 -213 -17 0 -9 123 10 165 37 82 135 144 206
131 145 -28 168 -282 43 -470 -83 -127 -229 -147 -359 -49 -224 169 -352 515
-294 798 59 286 195 506 492 795 488 475 768 736 909 846 71 55 213 154 222
154 2 0 1 -14 -3 -31z m3025 -54 c125 -56 432 -159 660 -221 91 -25 257 -74
370 -109 431 -133 567 -160 830 -159 97 0 195 5 220 11 24 7 46 10 48 8 9 -9
-24 -81 -74 -162 -164 -260 -392 -419 -670 -468 -260 -45 -634 29 -916 182
-44 24 -46 26 -37 56 33 115 -23 282 -166 497 -100 150 -183 239 -360 388 -47
39 -44 38 95 -23z m-422 -619 c129 -110 382 -283 489 -333 40 -18 93 -36 118
-40 l46 -6 50 -98 c87 -175 182 -432 233 -635 21 -83 46 -300 46 -399 -1 -213
-62 -450 -157 -610 -57 -94 -54 -93 -79 -31 -71 176 -250 329 -413 355 -70 11
-156 -6 -211 -43 -46 -30 -95 -101 -111 -161 -17 -63 -6 -172 24 -238 75 -164
283 -271 384 -199 64 46 65 147 2 239 -34 48 -138 139 -178 154 -50 19 -101
-30 -87 -84 3 -13 24 -37 46 -52 45 -31 120 -109 120 -125 0 -27 -61 4 -112
57 -46 47 -68 99 -68 158 0 193 210 211 377 31 82 -87 108 -142 108 -232 0
-61 -4 -77 -30 -120 -82 -133 -392 -193 -649 -125 -143 38 -234 90 -347 198
-130 125 -186 201 -258 348 -95 193 -135 325 -240 785 -17 74 -47 196 -66 270
-42 160 -98 409 -119 535 -17 100 -38 326 -31 333 3 3 16 -7 31 -21 47 -48 97
-45 155 10 l26 24 11 -118 c38 -386 52 -483 103 -682 55 -215 159 -314 294
-280 110 28 206 170 249 369 20 93 34 249 29 315 -13 163 -36 359 -49 414 -32
138 0 77 141 -269 46 -113 104 -275 130 -360 52 -173 148 -421 202 -520 55
-103 141 -216 219 -290 84 -80 202 -153 246 -153 53 0 86 63 55 104 -7 9 -39
31 -72 50 -144 81 -292 267 -385 484 -52 121 -135 361 -165 475 -17 66 -123
330 -206 514 -68 149 -66 144 -38 120 13 -12 75 -65 137 -118z m2864 -155 c65
-94 88 -155 95 -255 6 -90 -11 -183 -48 -262 -35 -73 -121 -159 -197 -196 -63
-31 -72 -33 -182 -33 -100 0 -126 4 -200 28 -134 45 -279 129 -394 229 l-39
34 88 29 c56 18 92 25 100 19 68 -52 192 -126 243 -144 75 -27 151 -24 230 10
74 32 176 141 197 211 38 131 5 272 -93 394 l-40 50 25 49 25 49 69 -69 c38
-38 93 -102 121 -143z m-7525 162 c-4 -16 -12 -55 -18 -88 l-12 -60 -106 -50
c-224 -105 -302 -246 -246 -442 30 -105 79 -163 180 -213 79 -39 161 -51 260
-39 43 6 78 9 79 7 1 -2 14 -20 29 -40 15 -20 27 -39 27 -42 0 -8 -128 -44
-203 -57 -38 -6 -110 -10 -161 -7 -80 3 -101 8 -167 40 -145 68 -250 195 -280
336 -52 252 150 498 541 658 75 30 84 30 77 -3z m3433 -383 c14 -93 85 -427
111 -524 17 -64 72 -289 145 -601 80 -343 192 -610 328 -782 l65 -82 -32 -7
c-57 -13 -235 -5 -331 15 -246 52 -441 169 -578 350 -59 78 -166 293 -203 406
-42 131 -66 268 -68 392 l-2 115 48 16 c166 53 384 420 456 769 12 56 21 113
21 126 0 13 3 27 8 31 4 4 10 -27 14 -71 4 -43 12 -112 18 -153z m2165 -100
c48 -23 119 -51 159 -64 60 -20 74 -29 88 -58 26 -48 24 -127 -5 -169 -31 -47
-90 -67 -147 -50 -22 7 -44 20 -47 29 -10 30 -109 276 -127 315 -9 20 -15 37
-13 37 3 0 44 -18 92 -40z m495 -145 c28 -4 37 -11 47 -37 6 -18 23 -64 37
-103 80 -221 -36 -402 -269 -422 -52 -5 -69 -2 -111 20 l-49 25 -21 85 -21 85
53 5 c102 10 195 83 231 180 6 18 12 65 12 104 l1 73 28 -5 c15 -2 43 -7 62
-10z m315 -97 c67 -109 75 -130 82 -218 15 -211 -93 -403 -281 -495 -120 -59
-213 -65 -357 -24 -64 18 -67 20 -73 57 -3 20 -6 49 -6 64 0 25 2 27 26 18 64
-25 204 -4 312 45 75 34 156 115 195 194 31 63 32 70 31 181 0 111 -7 146 -49
243 -6 14 -2 17 31 17 38 -1 41 -3 89 -82z m-3664 -668 c6 -47 16 -96 21 -109
17 -47 -64 -128 -139 -137 -67 -9 -134 42 -147 111 -5 26 4 42 75 130 44 55
99 127 122 160 l42 60 7 -65 c4 -36 13 -103 19 -150z m-332 -303 c33 -39 114
-78 176 -84 60 -6 133 14 190 53 20 13 37 24 39 24 2 0 14 -25 26 -54 l22 -55
-56 -74 c-91 -122 -172 -171 -276 -171 -82 0 -146 29 -213 96 -56 56 -86 117
-87 173 0 35 7 46 63 103 62 63 62 63 77 40 8 -12 26 -35 39 -51z m-309 -172
c0 -9 10 -35 21 -58 92 -182 279 -294 454 -272 86 10 198 72 275 150 36 36 67
70 68 75 6 18 21 10 36 -19 15 -28 14 -32 -35 -122 -28 -52 -58 -103 -67 -113
-31 -35 -147 -104 -213 -126 -206 -70 -461 20 -570 201 -47 79 -89 227 -68
240 8 4 30 19 49 33 41 29 50 31 50 11z m1121 -589 c-3 -147 -2 -157 22 -209
51 -111 135 -173 270 -198 88 -16 156 -1 237 53 78 51 124 108 166 205 l33 78
51 3 c60 4 60 3 29 -107 -25 -90 -86 -226 -125 -277 -40 -52 -154 -129 -232
-156 -52 -18 -88 -23 -162 -23 -89 1 -101 3 -172 37 -45 21 -96 55 -121 81
-55 54 -111 167 -134 267 -21 92 -23 342 -4 447 l13 73 66 -60 67 -60 -4 -154z"/>
<path d="M3913 8546 l-27 -24 13 -73 c48 -252 6 -492 -119 -679 -30 -45 -50
-86 -50 -102 0 -49 48 -80 94 -62 20 8 98 119 135 192 89 178 125 437 86 624
-21 98 -34 128 -62 139 -34 13 -39 12 -70 -15z"/>
<path d="M7550 7493 c-14 -9 -51 -40 -83 -69 -64 -57 -202 -130 -312 -165 -56
-17 -105 -23 -237 -28 -152 -5 -169 -8 -182 -26 -23 -30 -19 -58 10 -86 25
-23 30 -24 182 -24 174 0 235 12 376 71 119 50 214 111 289 184 76 75 85 104
41 139 -32 25 -52 26 -84 4z"/>
<path d="M1190 5937 c-19 -9 -26 -22 -28 -50 -2 -21 2 -45 8 -52 6 -8 53 -28
105 -45 144 -48 307 -164 407 -290 20 -25 57 -85 83 -135 25 -49 52 -93 58
-97 40 -25 107 9 107 55 0 28 -58 151 -102 215 -17 26 -63 80 -102 120 -126
130 -264 219 -414 266 -96 30 -90 29 -122 13z"/>
<path d="M7812 4374 c-36 -25 -29 -72 30 -186 41 -80 69 -120 141 -195 148
-155 354 -276 492 -290 46 -5 54 -3 69 18 39 56 12 96 -90 129 -100 33 -170
71 -264 141 -101 76 -176 165 -235 281 -59 114 -92 138 -143 102z"/>
<path d="M2630 2545 c-133 -25 -302 -95 -410 -168 -25 -17 -71 -55 -102 -85
-47 -45 -58 -61 -58 -87 0 -44 31 -70 80 -66 8 1 49 31 90 67 87 76 233 152
355 185 64 18 109 23 226 23 166 1 182 7 177 64 -5 58 -34 72 -168 77 -76 3
-141 -1 -190 -10z"/>
<path d="M5869 2019 c-30 -30 -106 -151 -130 -206 -39 -91 -68 -211 -79 -332
-10 -106 -10 -136 5 -224 21 -127 36 -164 69 -173 36 -9 57 -2 78 26 18 25 18
28 2 100 -21 93 -21 265 0 372 19 100 65 207 126 299 27 41 50 84 50 97 0 54
-80 82 -121 41z"/>
</g>
</svg>
