<?xml version="1.0" standalone="no"?>
<!DOCTYPE svg PUBLIC "-//W3C//DTD SVG 20010904//EN"
 "http://www.w3.org/TR/2001/REC-SVG-20010904/DTD/svg10.dtd">
<svg version="1.0" xmlns="http://www.w3.org/2000/svg"
 width="962.000000pt" height="962.000000pt" viewBox="0 0 962.000000 962.000000"
 preserveAspectRatio="xMidYMid meet">

<g transform="translate(0.000000,962.000000) scale(0.100000,-0.100000)"
fill="#000000" stroke="none">
<path d="M4795 9302 c-14 -10 -65 -89 -65 -101 0 -15 -218 -338 -282 -417
-172 -215 -416 -373 -783 -507 -243 -89 -481 -142 -955 -211 -135 -20 -346
-54 -470 -76 -124 -21 -340 -55 -480 -75 -315 -45 -429 -67 -584 -111 -373
-107 -559 -228 -724 -471 -78 -116 -140 -271 -178 -453 -24 -114 -24 -375 -1
-517 35 -208 140 -520 252 -743 186 -372 245 -578 232 -810 -12 -201 -61 -357
-209 -660 -102 -209 -115 -239 -170 -399 -49 -145 -93 -313 -109 -416 -19
-124 -16 -393 5 -495 41 -195 117 -375 210 -495 165 -215 324 -316 646 -412
209 -62 277 -75 680 -133 151 -22 300 -44 330 -50 107 -21 407 -70 550 -90
513 -73 745 -126 1026 -234 317 -121 556 -274 697 -444 85 -103 201 -268 293
-419 42 -68 84 -128 94 -133 10 -6 34 -10 52 -10 41 0 78 35 133 130 48 82
170 260 249 365 164 217 397 376 748 510 283 109 521 163 1028 235 155 22 301
46 525 85 77 13 250 40 385 60 391 56 524 83 724 150 223 75 346 146 471 273
139 139 219 281 281 495 114 393 40 846 -227 1393 -143 294 -183 403 -213 579
-20 114 -20 216 0 330 30 177 69 284 214 585 132 275 221 539 261 770 7 43 13
151 12 255 0 199 -14 280 -74 451 -40 113 -74 180 -138 270 -161 230 -341 343
-707 448 -158 45 -272 67 -610 115 -154 22 -367 56 -474 75 -107 19 -307 51
-445 71 -488 71 -718 122 -975 218 -301 111 -531 248 -680 403 -90 94 -224
277 -336 456 -89 145 -111 168 -161 168 -21 0 -43 -4 -48 -8z m79 -204 c34
-60 178 -272 240 -353 187 -249 426 -419 781 -558 340 -133 524 -174 1200
-272 61 -9 211 -34 335 -55 124 -22 290 -48 370 -59 410 -57 521 -78 710 -132
241 -70 382 -143 501 -259 155 -153 252 -352 290 -594 15 -94 5 -398 -16 -495
-46 -209 -129 -439 -245 -676 -97 -196 -157 -343 -185 -447 l-18 -68 -71 40
c-103 59 -353 184 -408 205 -40 15 -48 22 -52 49 -41 261 -43 324 -16 432 49
195 166 349 325 429 181 91 240 149 277 268 17 57 20 86 15 170 -5 101 -56
378 -77 417 -23 43 -104 34 -115 -13 -4 -13 8 -93 25 -178 42 -200 46 -323 12
-391 -28 -56 -55 -78 -191 -151 -57 -31 -127 -77 -157 -102 -152 -130 -264
-374 -264 -576 0 -42 9 -144 20 -225 24 -178 26 -301 6 -349 -22 -51 -99 -121
-154 -139 -54 -18 -213 -46 -223 -40 -14 8 -98 251 -114 329 -21 102 -22 303
-1 447 25 173 62 308 152 553 106 288 196 441 419 715 213 260 255 330 255
421 0 33 -6 47 -33 74 -20 20 -47 35 -68 39 -53 7 -703 35 -1104 46 -342 10
-1801 30 -2137 30 -87 0 -158 3 -158 8 0 10 86 63 268 167 84 48 157 95 162
105 6 10 10 33 10 50 0 26 -18 50 -118 154 -180 187 -245 295 -337 568 -30 88
-60 167 -66 174 -17 20 -75 28 -108 14 -33 -13 -43 -34 -106 -218 -82 -244
-151 -358 -324 -535 -113 -116 -116 -120 -116 -163 0 -55 -6 -51 225 -183 177
-102 217 -128 209 -135 -2 -2 -454 -9 -1004 -15 -550 -7 -1142 -16 -1315 -21
-371 -11 -1031 -39 -1078 -46 -18 -3 -47 -18 -65 -34 -29 -26 -32 -33 -32 -87
1 -84 33 -143 176 -319 310 -383 372 -485 497 -819 104 -279 142 -434 162
-670 11 -132 3 -258 -25 -365 -13 -50 -91 -275 -100 -287 -1 -2 -44 4 -96 13
-158 26 -249 83 -289 182 -16 40 -8 225 15 367 27 166 18 297 -27 430 -70 204
-192 346 -384 445 -120 62 -159 93 -186 148 -32 67 -29 190 11 386 37 176 37
180 11 206 -23 23 -58 26 -84 7 -20 -15 -46 -112 -76 -288 -26 -148 -26 -239
0 -322 34 -109 95 -169 260 -253 179 -92 289 -236 341 -444 23 -90 22 -179 -1
-329 -6 -36 -13 -80 -16 -97 -4 -27 -12 -34 -52 -49 -55 -21 -305 -146 -408
-205 l-72 -40 -16 64 c-25 100 -88 255 -177 436 -123 250 -208 483 -255 700
-27 122 -27 475 -1 570 64 229 131 359 257 494 129 139 358 244 700 321 58 13
247 45 420 70 173 25 389 58 480 74 229 40 271 47 470 76 480 68 725 124 1000
227 234 88 407 179 572 300 138 101 328 333 489 595 24 40 46 73 49 73 3 0 14
-15 24 -32z m614 -1613 c4 -4 9 -41 10 -84 l4 -77 -651 0 -651 0 0 61 c0 109
-6 104 139 108 199 6 1142 0 1149 -8z m-1417 -107 c4 -98 7 -117 27 -145 35
-50 76 -57 239 -45 89 7 205 8 325 2 104 -4 272 -4 375 0 119 6 241 5 333 -2
228 -17 253 2 259 191 l3 114 497 -7 c273 -3 524 -9 559 -12 l64 -7 -9 -51
c-21 -131 0 -216 61 -241 24 -10 134 -17 407 -24 206 -6 394 -15 419 -20 67
-15 128 -13 155 5 29 19 41 53 55 159 15 111 28 158 44 152 7 -3 117 -9 245
-13 210 -6 231 -8 231 -24 0 -25 -64 -117 -179 -257 -261 -317 -357 -473 -462
-752 l-31 -83 -47 6 c-283 41 -335 39 -385 -12 -38 -40 -54 -102 -61 -234 -8
-146 -33 -373 -51 -468 -23 -123 -20 -156 20 -196 l34 -34 114 0 c62 0 136 -3
164 -6 l51 -6 17 -86 c9 -47 40 -147 68 -221 79 -213 76 -193 36 -296 -50
-127 -95 -269 -109 -343 -6 -34 -17 -65 -23 -69 -5 -4 -78 -8 -161 -8 -164 -2
-186 -8 -210 -55 -19 -36 -19 -72 0 -175 13 -78 34 -269 54 -508 12 -135 28
-180 81 -215 33 -23 40 -24 145 -18 61 4 144 13 185 20 41 8 76 13 77 13 0 -1
24 -63 53 -137 84 -222 196 -402 424 -680 128 -156 196 -253 196 -280 0 -15
-24 -17 -242 -23 -134 -3 -246 -3 -250 1 -4 4 -16 63 -26 129 -27 173 -43 191
-159 179 -32 -3 -168 -10 -303 -15 -624 -24 -597 -20 -632 -99 -20 -43 -20
-53 -9 -136 6 -49 10 -91 7 -93 -5 -5 -750 -22 -978 -23 l-138 0 0 100 c0 107
-12 151 -49 184 -20 18 -47 19 -723 20 -691 1 -703 1 -733 -19 -41 -28 -54
-72 -54 -187 l-1 -98 -137 0 c-245 1 -975 18 -980 24 -3 2 0 37 7 76 16 93 6
152 -30 193 l-28 31 -153 8 c-85 5 -271 13 -414 18 -143 6 -286 13 -318 16
-73 7 -103 0 -122 -30 -8 -12 -24 -79 -36 -147 -11 -68 -23 -127 -27 -131 -4
-4 -116 -4 -250 -1 -224 6 -242 7 -242 24 0 25 82 140 231 323 209 258 308
420 394 646 26 69 48 126 49 127 1 0 37 -6 81 -14 44 -8 133 -15 197 -16 l116
-2 32 30 c43 41 58 103 70 290 11 164 34 369 50 440 5 22 10 63 10 92 0 96
-55 127 -210 118 -47 -3 -107 -2 -135 2 l-50 8 -16 78 c-18 86 -79 272 -115
356 -30 66 -30 74 0 147 48 119 104 290 116 360 l13 72 51 6 c28 3 100 6 159
6 122 0 157 12 178 62 13 31 10 69 -19 273 -12 77 -26 215 -32 308 -12 187
-26 246 -66 289 -50 51 -102 53 -385 12 l-46 -6 -28 73 c-78 209 -134 318
-250 484 -55 79 -101 138 -293 374 -59 73 -89 121 -97 154 l-7 27 113 1 c63 1
173 4 244 8 72 4 133 4 137 1 4 -3 16 -62 27 -132 30 -196 34 -199 250 -175
82 9 278 19 450 22 348 6 360 9 391 77 23 50 25 92 9 172 -7 31 -9 59 -6 62
10 10 363 21 738 22 l377 2 3 -112z m-1252 42 c6 -28 11 -69 11 -90 l0 -40
-92 -1 c-154 -1 -650 -19 -694 -25 l-42 -6 -7 54 c-4 29 -11 70 -16 92 -6 21
-7 41 -4 45 9 8 267 17 582 19 l251 2 11 -50z m4658 43 c128 -3 236 -9 242
-12 9 -6 -13 -178 -25 -190 -2 -2 -43 1 -92 8 -49 6 -138 11 -199 11 -60 0
-205 3 -321 7 l-212 6 0 38 c0 21 5 61 11 89 l11 50 176 0 c97 0 281 -3 409
-7z m-5115 -1283 c4 -19 12 -107 17 -195 9 -140 34 -361 45 -405 2 -8 7 -27
10 -42 l6 -28 -130 0 -130 0 0 49 c0 139 -64 480 -115 613 -5 12 9 17 67 27
107 16 128 19 178 17 42 -1 45 -3 52 -36z m5211 18 c44 -7 66 -15 63 -23 -9
-25 -65 -233 -75 -282 -15 -73 -41 -288 -41 -340 l0 -43 -130 0 -130 0 6 28
c3 15 8 34 10 42 12 46 35 252 44 388 10 151 16 211 26 241 5 15 100 11 227
-11z m-5614 -1563 c80 -226 98 -345 81 -541 -21 -241 -67 -420 -189 -739 -103
-266 -178 -388 -442 -710 -172 -211 -219 -298 -206 -381 12 -75 70 -104 208
-104 46 0 212 -7 369 -15 326 -18 995 -32 2080 -45 415 -5 775 -9 800 -10 l45
-1 -27 -23 c-14 -13 -104 -68 -200 -122 -208 -118 -222 -130 -215 -186 5 -35
20 -55 120 -157 107 -108 192 -222 245 -326 11 -22 48 -119 82 -215 34 -96 69
-183 77 -192 17 -19 97 -25 119 -10 17 11 28 36 89 212 31 91 66 183 77 205
53 104 138 218 245 326 98 100 115 122 120 155 4 29 0 45 -13 62 -11 12 -102
69 -204 128 -102 58 -194 114 -205 125 -19 19 -19 19 20 20 22 0 387 5 810 10
1150 14 1688 25 2115 44 474 20 463 19 503 55 30 26 32 33 31 92 0 98 -17 124
-263 429 -213 263 -288 389 -387 649 -139 365 -185 576 -185 841 -1 155 14
233 81 422 33 90 46 117 60 117 43 0 210 -40 247 -58 46 -24 99 -81 119 -128
20 -47 17 -167 -7 -345 -29 -212 -23 -321 23 -457 72 -210 192 -351 382 -448
182 -94 211 -134 209 -289 -1 -70 -10 -143 -32 -246 -17 -81 -31 -156 -31
-167 0 -21 43 -62 66 -62 7 0 24 10 39 23 21 19 30 45 57 172 26 123 32 174
32 280 1 122 -1 134 -27 190 -38 82 -102 138 -236 209 -177 94 -270 200 -332
379 -39 112 -45 195 -25 342 27 200 19 181 81 204 57 21 278 135 398 204 38
21 70 37 71 35 2 -1 13 -37 25 -78 35 -117 65 -189 176 -420 109 -227 207
-493 246 -670 25 -117 37 -409 20 -516 -40 -258 -175 -511 -342 -642 -188
-147 -477 -240 -964 -311 -332 -49 -410 -61 -581 -91 -88 -16 -270 -45 -405
-65 -537 -79 -766 -130 -1039 -232 -209 -78 -348 -147 -507 -252 -190 -126
-294 -240 -498 -546 -57 -86 -106 -161 -109 -168 -4 -9 -7 -9 -11 -1 -4 7 -42
68 -87 135 -123 188 -243 346 -327 427 -204 200 -610 402 -1010 503 -194 49
-352 79 -663 124 -133 19 -344 53 -468 74 -124 22 -259 44 -300 50 -540 78
-677 104 -869 166 -282 91 -424 191 -557 391 -63 95 -97 172 -140 319 -28 96
-29 108 -29 310 0 183 3 224 23 315 47 211 147 484 245 670 59 112 148 325
176 425 13 44 25 82 27 84 2 2 38 -17 81 -41 117 -68 320 -172 386 -198 40
-16 58 -29 61 -44 3 -11 12 -79 22 -150 20 -157 15 -237 -24 -351 -63 -181
-153 -287 -322 -375 -178 -93 -234 -152 -267 -277 -21 -80 -12 -220 27 -408
26 -127 34 -153 56 -172 14 -13 31 -23 38 -23 24 0 66 41 66 64 0 13 -14 88
-31 167 -22 101 -31 174 -32 244 -2 156 26 194 213 291 192 99 307 237 381
454 43 129 49 249 20 452 -24 171 -27 294 -7 342 20 47 73 104 120 128 39 20
185 55 237 57 25 1 29 -6 68 -114z m478 -429 c1 -1 -4 -30 -12 -66 -14 -72
-39 -297 -54 -492 -5 -70 -13 -132 -16 -138 -5 -8 -30 -9 -74 -5 -76 7 -203
26 -212 31 -4 2 8 56 27 119 40 139 71 316 80 457 l7 104 126 -4 c69 -2 127
-5 128 -6z m5083 -34 c0 -124 38 -352 88 -530 16 -56 27 -104 23 -106 -13 -8
-150 -26 -216 -28 l-69 -3 -8 43 c-4 24 -12 115 -18 204 -10 155 -42 405 -55
440 -6 16 4 18 107 21 62 1 121 4 131 5 14 2 17 -6 17 -46z m-5385 -1721 c50
-5 225 -12 390 -16 199 -3 301 -9 306 -16 4 -6 5 -19 3 -28 -1 -9 -8 -44 -15
-78 l-12 -63 -156 0 c-203 1 -671 17 -677 23 -3 3 -1 22 4 43 6 22 13 65 17
97 6 54 8 58 28 53 12 -3 63 -9 112 -15z m5578 -78 c8 -54 14 -99 12 -101 -5
-6 -496 -21 -676 -22 l-156 0 -12 57 c-6 31 -11 71 -11 88 l0 32 167 6 c91 4
236 7 322 8 123 0 262 12 332 28 3 0 13 -43 22 -96z m-2833 26 c300 1 561 3
580 4 l35 2 0 -82 c-1 -45 -4 -85 -8 -89 -9 -9 -1264 -10 -1273 -1 -10 9 -18
143 -10 162 5 15 15 16 69 9 34 -4 307 -6 607 -5z"/>
<path d="M3790 7050 c-102 -5 -345 -6 -540 -3 -237 4 -410 1 -520 -7 -91 -7
-248 -13 -350 -14 -228 -2 -250 -11 -250 -103 0 -61 49 -131 206 -295 245
-257 349 -400 404 -561 33 -96 46 -186 55 -389 l7 -148 -60 -72 c-154 -187
-209 -364 -200 -645 5 -122 10 -164 32 -238 33 -109 80 -201 143 -279 27 -32
56 -68 66 -81 18 -21 18 -34 8 -221 -13 -232 -29 -306 -95 -439 -61 -122 -146
-231 -333 -430 -187 -197 -224 -249 -231 -316 -4 -43 -1 -51 26 -79 17 -16 41
-30 54 -31 13 -1 91 -2 173 -4 1908 -33 1810 -33 1915 -11 226 47 375 205 417
443 l16 88 118 0 119 0 6 -45 c35 -265 184 -436 425 -486 104 -22 7 -22 1914
11 83 2 162 3 176 4 41 2 79 46 79 92 0 78 -50 149 -256 359 -213 218 -314
371 -370 557 -24 79 -27 109 -32 296 l-5 209 40 41 c80 83 135 183 179 322 28
86 29 98 29 285 0 157 -4 208 -18 260 -30 105 -98 239 -168 325 l-64 80 6 195
c8 264 38 373 146 539 75 115 119 169 299 359 168 177 214 243 214 307 0 82
-53 112 -180 101 -42 -3 -188 0 -325 8 -215 13 -863 21 -1475 19 -223 -1 -331
-36 -447 -146 -92 -87 -138 -178 -162 -323 l-12 -70 -119 0 -119 0 -12 70
c-25 149 -71 239 -171 331 -70 65 -110 87 -209 115 -90 25 -274 32 -549 20z
m491 -145 c106 -21 163 -58 233 -149 39 -51 71 -146 80 -236 l5 -55 -61 -34
c-63 -35 -182 -146 -193 -181 -3 -11 -12 -20 -20 -20 -44 0 -450 170 -569 239
-182 105 -295 151 -370 151 -48 0 -116 -40 -137 -80 -25 -46 -24 -84 5 -243
14 -73 30 -208 35 -302 6 -93 13 -194 16 -222 5 -51 4 -53 -19 -53 -60 0 -208
-34 -277 -64 l-76 -33 -7 136 c-14 265 -60 414 -187 602 -63 94 -128 170 -299
351 l-163 173 144 7 c79 4 476 11 881 15 406 5 741 13 745 17 10 10 147 -1
234 -19z m2124 4 c396 -6 786 -12 868 -15 l147 -5 -20 -26 c-10 -14 -80 -89
-154 -166 -217 -229 -303 -343 -376 -499 -65 -139 -100 -320 -100 -516 l0 -62
-51 25 c-61 32 -169 60 -262 70 -67 7 -68 8 -63 34 3 14 7 82 11 151 8 170 23
306 46 423 34 176 20 235 -65 276 -53 26 -87 26 -172 0 -80 -25 -107 -38 -269
-129 -111 -63 -489 -224 -553 -235 -23 -5 -31 1 -56 40 -33 53 -130 137 -193
168 l-43 21 6 51 c17 145 52 222 133 299 61 56 113 81 201 95 105 17 132 19
190 14 30 -2 379 -9 775 -14z m-2923 -449 c29 -11 89 -40 133 -66 162 -93 473
-233 611 -274 l40 -12 0 -132 c-1 -104 3 -142 18 -185 50 -145 155 -264 289
-329 103 -50 170 -66 277 -66 107 0 174 16 277 66 130 63 238 184 289 323 15
39 19 80 19 187 l0 136 40 12 c43 13 332 129 405 163 25 12 99 52 165 89 136
77 210 108 260 108 42 0 41 3 15 -125 -21 -101 -45 -333 -56 -537 l-6 -117
-51 -17 c-183 -60 -349 -198 -434 -360 -15 -30 -31 -54 -35 -54 -5 0 -8 45 -8
99 0 147 2 145 -194 150 -86 2 -172 0 -191 -3 -60 -12 -63 -24 -71 -296 -3
-135 -7 -246 -8 -247 -1 -1 -87 37 -191 84 -116 52 -204 86 -225 86 -24 1 -96
-27 -225 -86 l-190 -86 -5 242 c-6 274 -10 290 -75 303 -19 3 -105 5 -191 3
-196 -5 -194 -3 -194 -150 0 -54 -4 -99 -8 -99 -4 0 -18 21 -31 47 -77 158
-256 308 -438 367 l-51 17 -6 117 c-10 193 -34 430 -56 540 -11 57 -18 108
-14 113 9 15 60 10 116 -11z m1478 -96 c76 -17 165 -66 223 -122 21 -20 55
-71 75 -111 103 -209 14 -451 -203 -553 -258 -120 -566 8 -640 266 -64 222 78
456 314 518 83 21 144 22 231 2z m-1491 -893 c133 -46 260 -153 335 -280 38
-66 92 -209 82 -219 -4 -3 -50 14 -104 38 -53 24 -162 71 -242 105 -80 34
-199 94 -265 134 -66 41 -155 94 -197 120 -43 25 -78 49 -78 52 0 9 89 46 152
64 78 22 235 15 317 -14z m3075 14 c65 -17 156 -54 156 -64 -1 -3 -89 -59
-196 -125 -129 -78 -242 -138 -332 -176 -75 -32 -183 -78 -240 -104 -56 -25
-106 -46 -111 -46 -16 0 9 84 53 175 87 179 239 301 431 348 45 11 185 6 239
-8z m-2354 -109 c0 -9 -80 -176 -85 -176 -3 0 -5 41 -5 90 l0 90 45 0 c25 0
45 -2 45 -4z m1410 -86 c0 -49 -2 -90 -5 -90 -5 0 -85 167 -85 176 0 2 20 4
45 4 l45 0 0 -90z m-2500 -91 c193 -119 247 -147 435 -227 77 -33 164 -72 194
-85 l54 -26 -69 -31 c-38 -17 -112 -50 -164 -72 -52 -22 -133 -58 -180 -79
-122 -57 -438 -257 -454 -287 l-13 -24 -57 64 c-103 113 -166 276 -166 430 0
163 68 330 185 454 l36 38 17 -27 c10 -15 88 -71 182 -128z m3760 89 c100
-124 163 -288 163 -428 0 -147 -69 -321 -170 -431 l-57 -61 -12 25 c-16 29
-284 199 -429 272 -55 28 -142 68 -194 89 -51 21 -127 54 -168 73 l-75 35 104
47 c58 26 147 65 199 86 122 50 188 86 391 212 97 60 170 112 173 123 4 11 10
20 15 20 5 0 32 -28 60 -62z m-2570 -183 l0 -155 -86 0 c-99 0 -98 -7 -27 102
27 41 62 105 78 142 15 36 30 66 32 66 1 0 3 -70 3 -155z m1239 -62 c28 -44
51 -83 51 -86 0 -4 -38 -7 -85 -7 l-85 0 1 158 0 157 33 -71 c19 -39 57 -107
85 -151z m-515 -104 c86 -40 156 -75 156 -78 0 -3 -72 -38 -160 -78 l-160 -72
-160 72 c-88 40 -160 75 -160 78 0 4 26 18 58 32 31 15 102 47 157 72 55 25
103 45 106 45 4 0 77 -32 163 -71z m-724 -321 l-1 -153 -52 100 c-29 55 -67
121 -84 147 -18 26 -33 49 -33 52 0 3 38 6 85 6 l85 0 0 -152z m1290 147 c0
-2 -21 -36 -46 -76 -25 -39 -63 -108 -85 -152 l-38 -82 0 158 -1 157 85 0 c47
0 85 -2 85 -5z m-1714 -93 c-69 -204 -215 -358 -401 -422 -77 -27 -188 -35
-270 -21 -61 11 -204 66 -194 75 2 2 81 51 175 109 186 115 255 152 366 196
40 16 134 57 208 90 74 33 136 57 138 53 1 -5 -8 -41 -22 -80z m760 -7 c126
-58 199 -85 224 -85 25 0 98 28 225 85 103 47 189 85 190 85 1 0 5 -111 9
-247 4 -135 11 -254 17 -264 15 -29 62 -34 241 -29 118 4 171 9 180 18 8 8 15
53 18 125 l5 112 34 -60 c100 -177 245 -301 420 -360 l66 -22 7 -89 c3 -49 12
-161 18 -249 6 -88 23 -220 36 -293 14 -73 22 -137 19 -142 -18 -28 -143 13
-268 89 -122 73 -203 111 -412 194 -104 41 -198 77 -207 80 -15 5 -16 18 -11
110 7 122 -4 181 -53 282 -106 221 -364 354 -619 317 -200 -29 -365 -146 -449
-317 -46 -93 -60 -173 -53 -291 6 -84 5 -95 -11 -101 -54 -18 -405 -160 -447
-181 -27 -13 -96 -51 -153 -84 -157 -90 -275 -129 -288 -95 -2 7 5 57 16 112
20 98 42 306 57 539 l8 119 66 22 c175 59 329 190 420 358 l34 62 5 -112 c3
-72 10 -117 18 -125 9 -9 62 -14 180 -18 177 -5 226 0 241 28 14 27 20 114 21
320 0 105 2 192 4 192 3 0 89 -38 192 -85z m1336 29 c68 -31 156 -69 196 -85
114 -45 202 -93 376 -201 88 -55 163 -102 165 -104 9 -8 -128 -63 -184 -73
-218 -41 -445 55 -580 244 -73 102 -142 275 -110 275 7 0 69 -25 137 -56z
m-1811 -258 c21 -46 39 -87 39 -90 0 -3 -20 -6 -45 -6 l-45 0 0 90 c0 50 3 90
6 90 3 0 23 -38 45 -84z m1449 -6 l0 -90 -45 0 c-25 0 -45 2 -45 5 0 11 79
175 85 175 3 0 5 -40 5 -90z m-625 -255 c122 -32 240 -129 293 -242 24 -52 27
-70 27 -163 0 -99 -2 -109 -33 -173 -164 -333 -660 -333 -824 0 -31 64 -33 74
-33 173 0 93 3 111 27 163 32 68 112 156 177 194 100 59 248 78 366 48z
m-1971 -105 c81 -37 174 -60 243 -60 28 0 54 -3 56 -7 11 -19 -25 -449 -49
-582 -33 -180 -30 -223 19 -267 85 -78 199 -60 421 66 152 86 206 112 391 185
264 105 241 100 264 61 31 -49 140 -149 199 -182 l52 -29 -5 -45 c-10 -73 -27
-141 -46 -186 -27 -60 -104 -141 -162 -170 -104 -53 -113 -54 -982 -43 -440 6
-874 14 -964 17 l-165 7 59 65 c33 36 109 117 170 180 206 215 339 423 385
605 21 80 40 252 40 358 0 31 2 57 4 57 2 0 33 -14 70 -30z m3766 -27 c0 -32
5 -107 10 -168 29 -308 137 -508 449 -830 59 -60 127 -132 152 -160 l44 -50
-165 -7 c-91 -3 -525 -11 -965 -17 -860 -11 -879 -10 -975 39 -124 63 -191
176 -215 360 l-5 45 60 35 c66 37 149 113 187 172 l25 37 76 -29 c178 -65 378
-152 464 -199 329 -181 432 -204 518 -116 44 45 48 98 22 240 -11 61 -24 133
-27 160 -10 72 -32 439 -28 448 2 4 28 7 57 7 67 0 190 31 253 64 26 14 51 25
56 26 4 0 7 -26 7 -57z"/>
</g>
</svg>
