<?xml version="1.0" standalone="no"?>
<!DOCTYPE svg PUBLIC "-//W3C//DTD SVG 20010904//EN"
 "http://www.w3.org/TR/2001/REC-SVG-20010904/DTD/svg10.dtd">
<svg version="1.0" xmlns="http://www.w3.org/2000/svg"
 width="641.000000pt" height="641.000000pt" viewBox="0 0 641.000000 641.000000"
 preserveAspectRatio="xMidYMid meet">

<g transform="translate(0.000000,641.000000) scale(0.100000,-0.100000)"
fill="#000000" stroke="none">
<path d="M2600 6210 c-85 -14 -164 -41 -242 -82 -72 -39 -107 -68 -202 -171
-29 -31 -40 -37 -58 -31 -13 4 -64 7 -114 6 -110 -2 -217 -32 -313 -89 -69
-41 -181 -144 -181 -167 0 -8 -4 -16 -8 -18 -14 -6 -51 -74 -76 -140 -46 -121
-44 -311 4 -422 23 -54 19 -56 -66 -25 -48 18 -83 22 -184 23 -69 1 -134 -3
-145 -8 -11 -5 -48 -19 -81 -31 -177 -64 -312 -212 -374 -411 -17 -57 -21 -90
-19 -188 l2 -120 -55 -45 c-96 -79 -159 -178 -202 -313 -26 -79 -28 -98 -24
-195 8 -187 67 -315 199 -437 33 -31 92 -72 130 -91 38 -20 69 -37 69 -39 0
-2 -34 -23 -76 -46 -123 -67 -226 -180 -275 -300 -41 -102 -52 -165 -47 -276
9 -176 63 -291 200 -427 49 -48 86 -92 82 -98 -13 -21 -5 -207 11 -270 33
-126 118 -260 208 -328 74 -56 202 -118 271 -130 33 -6 89 -11 125 -11 75 0
204 25 209 40 2 6 16 10 32 10 l28 0 -26 -67 c-23 -61 -26 -82 -25 -198 0
-110 4 -139 23 -190 26 -70 88 -179 127 -225 56 -67 178 -141 293 -179 50 -17
89 -21 186 -21 l123 0 83 -83 c91 -92 162 -136 277 -174 140 -46 234 -41 408
19 131 46 268 175 335 315 l25 53 36 -73 c118 -237 390 -377 651 -334 136 22
309 121 388 222 l43 55 126 0 c106 0 136 4 195 24 83 28 164 67 164 78 0 4 6
8 13 8 21 0 119 99 160 160 21 30 51 91 69 135 26 67 32 98 36 187 4 96 2 116
-22 192 -14 46 -26 87 -26 90 0 10 35 7 46 -3 20 -21 168 -43 249 -37 113 8
140 14 214 49 195 91 309 231 361 442 19 76 21 105 16 187 -4 57 -3 98 2 98
17 0 86 61 128 111 22 28 55 78 72 112 100 196 103 378 7 573 -40 82 -144 200
-201 229 -22 11 -41 23 -44 26 -3 4 -24 16 -47 28 -24 12 -43 23 -43 26 0 2
33 21 72 42 88 46 191 140 237 217 46 76 90 213 97 300 11 129 -55 319 -151
436 -25 30 -49 56 -54 58 -5 2 -27 19 -49 38 -38 35 -39 37 -30 77 13 57 3
189 -21 264 -69 214 -214 360 -426 429 -91 29 -267 27 -358 -5 -38 -12 -70
-21 -72 -19 -2 2 5 33 17 68 17 52 22 90 22 190 1 112 -2 133 -26 198 -74 199
-204 326 -403 394 -89 30 -217 42 -282 28 -41 -10 -60 -5 -68 18 -6 20 -66 85
-119 128 -108 90 -324 154 -449 134 -123 -20 -227 -57 -297 -108 -69 -50 -156
-150 -194 -222 l-38 -72 -18 28 c-9 16 -32 55 -51 88 -40 69 -145 170 -218
209 -102 56 -277 92 -371 77z m220 -202 c57 -21 137 -77 180 -125 73 -84 109
-185 110 -308 0 -76 -6 -87 -64 -113 -62 -28 -148 -104 -215 -192 -19 -25 -38
-49 -42 -54 -4 -5 -31 17 -60 48 -75 83 -149 117 -261 124 l-88 5 0 33 c0 59
41 144 98 201 90 91 179 123 310 112 74 -6 105 -18 178 -65 21 -15 24 -15 30
-1 9 25 -46 115 -102 165 -70 64 -144 92 -240 92 -117 0 -195 -38 -285 -138
-41 -46 -79 -141 -79 -199 l0 -33 -50 34 c-83 57 -125 68 -236 64 -80 -2 -109
-8 -149 -27 -141 -70 -212 -206 -195 -371 6 -67 32 -140 48 -140 5 0 12 19 14
43 7 58 53 149 101 196 124 123 327 147 465 55 l54 -35 -49 -47 c-28 -27 -62
-74 -78 -107 -24 -51 -29 -76 -33 -166 l-4 -107 -32 10 c-49 15 -253 10 -319
-7 -32 -8 -66 -15 -76 -15 -23 0 -122 104 -149 156 -64 126 -69 275 -13 399
23 51 49 87 94 130 75 72 148 110 245 127 64 11 84 10 159 -5 47 -10 96 -25
109 -34 14 -9 26 -14 28 -12 2 2 17 34 34 71 51 112 144 197 267 241 40 14 70
17 155 13 58 -3 121 -11 140 -18z m1231 -22 c85 -46 161 -127 201 -213 17 -38
32 -69 33 -70 0 -1 28 9 61 22 277 112 591 -81 611 -375 10 -147 -33 -265
-133 -364 -52 -50 -65 -53 -138 -31 -68 21 -219 27 -292 12 l-60 -13 -1 91 c0
120 -31 201 -110 279 l-54 55 53 35 c214 141 530 2 564 -248 4 -25 10 -46 14
-46 5 0 19 21 32 48 19 39 23 63 23 137 0 76 -5 99 -26 146 -36 76 -99 141
-174 179 -62 32 -66 32 -172 28 -115 -4 -155 -18 -220 -72 -35 -29 -43 -25
-43 20 0 18 -9 57 -21 86 -59 150 -195 241 -357 239 -96 -1 -182 -41 -248
-114 -45 -50 -101 -153 -90 -164 3 -3 23 5 43 19 77 51 92 57 150 66 121 19
217 -7 310 -85 56 -47 118 -155 129 -224 l6 -36 -93 -5 c-81 -5 -103 -10 -157
-38 -36 -19 -82 -54 -111 -86 -27 -30 -52 -54 -54 -54 -3 0 -26 30 -52 66 -47
65 -156 161 -228 199 -46 24 -51 43 -44 146 10 155 107 300 243 364 85 41 107
45 229 41 104 -4 114 -6 176 -40z m-700 -673 c101 -50 193 -143 242 -243 87
-178 89 -300 8 -605 -29 -110 -58 -229 -66 -265 -7 -36 -25 -112 -40 -170 -14
-58 -29 -121 -31 -140 -6 -49 -16 -55 -64 -41 -51 15 -262 16 -289 2 -26 -15
-51 -14 -55 2 -2 6 -11 46 -20 87 -33 146 -115 487 -150 624 -54 208 -48 339
24 492 52 108 146 206 251 258 39 20 82 36 94 36 12 0 56 -17 96 -37z m-798
-126 c50 -32 110 -97 135 -144 9 -17 9 -37 -4 -90 -17 -76 -22 -208 -10 -298
l8 -60 -51 67 c-54 71 -133 142 -214 193 -54 34 -67 64 -67 161 0 89 8 118 47
164 45 52 82 54 156 7z m1538 16 c44 -26 69 -89 69 -175 0 -116 -10 -137 -83
-185 -83 -54 -169 -138 -231 -223 -17 -25 -18 -24 -9 40 11 89 6 212 -12 293
-15 67 -15 68 9 110 29 49 62 82 126 126 51 35 89 39 131 14z m-2829 -294 c76
-16 157 -62 218 -124 l54 -55 -12 -47 c-26 -104 -33 -227 -18 -334 l7 -56 -83
0 c-122 1 -206 -32 -288 -114 l-49 -49 -35 52 c-94 145 -67 347 63 471 53 51
76 62 185 94 40 11 37 24 -10 47 -29 14 -62 19 -130 19 -84 1 -98 -2 -157 -31
-203 -100 -267 -369 -131 -548 19 -24 34 -46 34 -48 0 -2 -25 -6 -56 -10 -121
-14 -250 -117 -294 -234 -17 -46 -21 -74 -18 -142 4 -104 36 -177 109 -245 48
-45 153 -104 165 -93 3 4 -5 22 -18 40 -54 72 -63 106 -63 223 0 97 3 115 24
155 36 68 76 115 128 149 49 33 168 75 184 65 5 -3 9 -36 9 -73 0 -116 43
-208 137 -291 l48 -42 -29 -22 c-119 -86 -185 -160 -248 -275 -17 -30 -19 -31
-90 -31 -186 0 -339 94 -417 254 -55 113 -55 267 1 393 32 74 121 159 207 200
42 20 77 37 78 37 1 1 -9 30 -23 65 -86 212 5 451 214 564 83 45 197 58 304
36z m4203 -4 c160 -42 291 -181 326 -346 16 -75 5 -190 -25 -255 -28 -60 -31
-54 57 -96 223 -106 316 -390 200 -611 -80 -151 -227 -236 -410 -237 l-71 0
-28 48 c-49 84 -123 169 -194 222 -39 29 -70 56 -70 61 0 4 10 14 22 20 36 19
88 81 120 144 27 50 32 74 36 149 l5 88 46 -4 c104 -10 219 -98 270 -208 28
-58 31 -75 31 -160 0 -79 -4 -104 -24 -146 -13 -28 -29 -55 -35 -58 -15 -10
-14 -46 2 -46 26 0 114 60 156 105 117 127 126 315 21 458 -52 71 -159 134
-244 143 -28 3 -53 7 -55 9 -1 2 7 14 19 27 11 13 36 52 53 88 29 58 32 73 32
155 0 76 -4 99 -27 147 -37 80 -98 142 -177 180 -60 29 -75 32 -156 31 -70 0
-100 -5 -137 -22 -27 -12 -48 -26 -48 -30 0 -5 21 -12 48 -16 162 -23 288
-164 299 -336 7 -96 -7 -158 -52 -226 -35 -53 -58 -61 -68 -23 -7 26 -92 85
-162 112 -46 17 -79 23 -143 22 l-82 -1 7 51 c14 91 8 236 -12 314 l-19 72 50
51 c117 120 278 165 439 124z m-3270 -142 c162 -59 256 -146 380 -354 92 -155
174 -289 292 -477 46 -73 83 -134 83 -136 0 -2 -24 -19 -54 -39 -68 -45 -144
-121 -186 -186 -23 -36 -37 -48 -49 -43 -17 6 -21 9 -136 85 -39 26 -74 47
-78 47 -4 0 -29 16 -56 35 -26 19 -51 35 -55 35 -4 0 -48 26 -99 58 -51 32
-146 91 -212 129 -159 94 -247 187 -304 322 -31 73 -33 82 -38 196 -4 74 -1
117 12 164 19 74 50 141 66 141 6 0 25 7 43 15 50 24 113 33 221 33 81 0 113
-5 170 -25z m2448 12 c108 -28 130 -45 157 -122 22 -60 25 -84 25 -203 0 -121
-3 -141 -25 -190 -60 -136 -161 -256 -268 -316 -49 -28 -424 -256 -470 -286
-15 -10 -40 -25 -57 -34 -16 -9 -61 -37 -99 -63 -64 -42 -70 -44 -80 -27 -56
93 -138 176 -246 247 l-23 15 30 45 c17 24 50 76 73 114 156 254 230 377 230
380 0 2 14 24 30 48 17 25 30 48 30 51 0 13 84 131 122 172 69 75 210 155 313
177 49 11 205 6 258 -8z m-3110 -661 c43 -6 48 -11 90 -73 59 -89 123 -158
191 -206 30 -22 56 -43 56 -46 0 -4 -19 -3 -42 3 -62 14 -210 11 -303 -6 -77
-14 -81 -14 -115 7 -91 56 -148 132 -154 205 -3 32 2 42 35 74 21 20 49 38 61
41 37 7 132 7 181 1z m3634 -7 c43 -16 81 -51 89 -82 4 -15 0 -44 -10 -68 -17
-44 -80 -128 -107 -143 -9 -5 -30 -17 -46 -26 -26 -15 -37 -15 -98 -3 -125 23
-187 25 -272 12 -46 -8 -83 -11 -83 -8 0 3 23 21 51 40 61 42 151 139 199 214
29 47 41 57 75 65 56 14 164 13 202 -1z m-2007 -463 c84 -34 96 -152 20 -197
-47 -28 -97 -22 -136 17 -58 58 -44 139 30 176 49 24 37 23 86 4z m-1173 -80
c221 -57 295 -75 413 -99 94 -19 220 -52 227 -58 3 -3 1 -28 -5 -54 -24 -107
-22 -203 4 -308 5 -21 0 -25 -48 -38 -29 -8 -89 -23 -133 -32 -44 -9 -93 -21
-110 -25 -16 -5 -93 -24 -170 -41 -77 -17 -144 -36 -149 -40 -6 -5 -22 -9 -37
-9 -15 0 -58 -10 -95 -22 -58 -19 -91 -23 -204 -23 -116 1 -144 4 -200 24 -36
13 -72 29 -80 35 -8 7 -28 18 -45 26 -57 28 -158 141 -199 222 -38 76 -39 78
-26 124 8 26 35 80 62 120 108 162 281 252 485 253 80 1 120 -6 310 -55z
m2990 41 c160 -41 308 -156 376 -294 20 -40 37 -84 37 -96 0 -12 -17 -56 -37
-96 -114 -230 -394 -355 -658 -295 -33 8 -87 19 -120 26 -33 7 -74 19 -92 26
-17 8 -41 14 -53 14 -12 0 -54 9 -93 20 -112 30 -268 67 -317 75 -25 4 -66 14
-91 22 l-46 14 9 47 c13 62 13 245 0 300 -11 47 -11 48 38 56 108 18 767 179
779 191 11 11 214 4 268 -10z m-1462 -9 c41 -17 63 -50 66 -96 3 -45 -14 -76
-54 -100 -39 -24 -66 -25 -110 -4 -77 37 -73 165 6 199 41 18 50 18 92 1z
m-567 -230 c40 -21 62 -49 68 -88 16 -94 -98 -164 -176 -108 -62 44 -60 135 3
185 36 28 66 31 105 11z m376 -67 c45 -39 54 -83 30 -134 -46 -98 -194 -75
-209 32 -7 47 9 80 54 110 47 32 83 29 125 -8z m332 -34 c65 -27 82 -125 30
-174 -48 -45 -121 -44 -165 3 -33 35 -33 107 0 142 42 45 78 53 135 29z
m-2660 -242 c54 -95 148 -199 227 -251 20 -13 37 -27 37 -29 0 -3 -23 -25 -50
-50 -87 -78 -129 -178 -130 -304 l0 -56 -62 10 c-49 7 -76 18 -124 52 -111 80
-163 177 -164 306 0 92 17 154 59 211 30 40 30 43 12 46 -53 8 -185 -102 -231
-193 -22 -43 -25 -63 -25 -150 0 -93 2 -105 33 -167 48 -99 157 -179 263 -193
73 -11 73 -11 39 -53 -62 -78 -91 -198 -70 -298 31 -152 137 -255 292 -285 59
-11 78 -10 145 4 71 16 102 33 85 48 -4 3 -29 12 -57 18 -102 25 -194 104
-243 209 -24 50 -27 69 -27 157 1 104 11 138 67 217 l19 28 51 -51 c78 -78
140 -103 270 -107 l106 -4 -10 -31 c-16 -53 -12 -254 6 -323 9 -34 16 -68 16
-77 0 -24 -96 -112 -158 -145 -89 -47 -279 -81 -297 -53 -3 5 -20 13 -38 16
-66 14 -139 59 -196 121 -119 127 -157 273 -110 429 11 39 22 79 25 90 4 17
-7 26 -65 53 -154 74 -251 229 -251 402 0 163 69 294 198 377 91 58 134 70
254 72 l76 1 28 -47z m4731 37 c126 -29 245 -126 305 -247 32 -66 33 -71 33
-193 -1 -121 -2 -127 -33 -189 -37 -74 -66 -110 -125 -157 -61 -49 -58 -48
-107 -65 -52 -19 -53 -25 -21 -134 12 -38 21 -88 21 -111 0 -210 -138 -386
-352 -448 -76 -22 -111 -20 -212 9 -96 28 -162 68 -221 133 l-38 43 21 94 c24
103 27 177 12 274 -6 35 -9 65 -7 68 3 2 49 5 103 6 80 2 109 7 152 27 28 13
52 27 52 32 0 4 6 8 14 8 8 0 32 21 54 47 l40 47 35 -56 c47 -72 61 -130 55
-227 -3 -60 -11 -93 -33 -137 -50 -103 -167 -190 -270 -202 -25 -2 -45 -9 -45
-14 0 -5 21 -19 48 -31 37 -16 67 -21 137 -21 78 0 99 4 152 28 76 35 144 104
181 184 21 47 26 72 26 137 0 97 -14 148 -59 215 -19 29 -35 56 -35 61 0 5 13
9 29 9 92 0 226 82 279 171 59 97 71 220 33 321 -27 70 -96 149 -165 189 -82
47 -108 37 -62 -24 45 -61 59 -117 54 -219 -6 -116 -30 -173 -105 -245 -64
-63 -120 -92 -189 -100 l-51 -6 -5 89 c-6 112 -35 175 -119 256 -32 32 -59 60
-59 62 0 2 19 16 42 31 62 41 153 137 198 208 22 34 44 68 50 75 13 15 126 16
187 2z m-2643 -24 c45 -19 66 -52 66 -102 0 -108 -133 -152 -200 -66 -23 28
-26 85 -7 121 12 24 70 61 95 61 7 0 28 -6 46 -14z m389 -76 c35 -39 36 -93 4
-141 -20 -30 -29 -34 -72 -37 -57 -4 -91 11 -111 50 -30 58 -6 135 50 159 40
17 99 3 129 -31z m-732 -144 c38 -52 96 -102 193 -169 20 -13 30 5 -211 -382
-17 -27 -75 -124 -128 -213 -106 -178 -168 -253 -255 -312 -176 -119 -359
-139 -552 -58 -39 17 -50 27 -67 67 -30 71 -40 127 -41 221 0 159 55 292 169
408 77 77 129 122 143 122 12 0 190 103 333 194 109 68 241 150 313 193 34 21
38 21 47 6 6 -9 31 -44 56 -77z m1286 -24 c103 -65 270 -167 371 -227 202
-121 269 -174 328 -262 21 -32 41 -60 44 -63 3 -3 11 -21 19 -40 50 -130 55
-287 14 -411 -24 -74 -29 -82 -67 -101 -23 -12 -74 -29 -115 -40 -76 -19 -206
-25 -215 -9 -3 4 -24 11 -48 15 -67 11 -196 84 -266 150 -39 37 -84 96 -119
155 -87 147 -314 517 -366 598 -26 39 -47 73 -47 76 0 2 24 19 53 37 60 39
156 136 195 197 15 24 28 43 29 43 0 0 86 -53 190 -118z m-2518 -144 c9 -10
60 -13 185 -13 l172 0 -62 -47 c-61 -47 -159 -155 -185 -206 -26 -49 -42 -60
-119 -73 -65 -10 -83 -10 -130 4 -151 44 -150 172 0 294 67 54 112 67 139 41z
m3574 1 c82 -43 177 -164 177 -225 0 -30 -44 -81 -84 -98 -53 -22 -146 -27
-203 -10 -43 13 -56 21 -69 49 -25 54 -136 177 -205 230 l-64 48 39 -7 c47 -9
247 -9 294 0 18 4 35 10 38 15 7 13 51 11 77 -2z m-1900 -80 c73 -10 204 -1
253 18 8 3 16 -1 18 -8 8 -28 49 -205 53 -231 2 -15 36 -152 75 -305 63 -243
72 -292 76 -387 3 -90 0 -120 -18 -179 -22 -72 -63 -157 -103 -213 -33 -46
-133 -122 -211 -160 l-68 -33 -85 40 c-142 68 -245 188 -299 349 -25 76 -26
283 -2 355 10 28 19 63 22 78 3 15 12 53 21 83 9 30 20 73 24 97 11 53 97 418
113 475 9 37 14 43 32 38 12 -4 56 -11 99 -17z m-513 -833 c-11 -88 -3 -201
20 -287 8 -29 8 -45 -1 -61 -24 -45 -65 -92 -112 -130 -43 -33 -55 -38 -102
-38 -46 0 -58 4 -79 26 -35 39 -50 102 -43 192 3 42 8 84 11 92 4 8 32 31 63
50 62 39 184 155 223 212 14 20 26 35 28 33 2 -1 -2 -41 -8 -89z m1203 41 c44
-66 113 -131 204 -191 67 -45 71 -50 77 -93 10 -72 7 -160 -6 -190 -6 -15 -23
-40 -37 -55 -62 -70 -201 -9 -279 122 -20 34 -20 38 -5 105 17 81 20 250 5
313 -5 23 -6 42 -2 42 4 0 24 -24 43 -53z m-2056 -303 c44 -13 89 -15 212 -12
l156 4 0 -101 c0 -88 4 -107 28 -158 16 -33 49 -79 77 -106 l50 -48 -32 -25
c-73 -55 -96 -62 -213 -62 -100 0 -115 2 -166 27 -107 53 -189 161 -205 270
-3 26 -10 47 -15 47 -16 0 -39 -58 -49 -128 -30 -190 78 -359 259 -407 102
-27 240 0 329 64 l39 29 7 -54 c13 -110 98 -230 199 -280 41 -21 72 -27 147
-31 85 -5 101 -3 150 19 70 32 147 102 183 167 41 76 35 101 -14 62 -13 -10
-44 -28 -69 -40 -58 -29 -191 -32 -265 -6 -128 44 -245 187 -245 301 l0 34 67
0 c63 0 173 26 173 41 0 4 11 10 24 13 13 3 49 33 79 66 31 33 58 60 60 60 2
0 16 -18 30 -39 42 -63 144 -158 225 -208 l75 -47 -6 -100 c-6 -108 -18 -148
-70 -231 -36 -57 -60 -80 -132 -129 -135 -91 -340 -92 -479 -1 -90 58 -130
104 -167 190 -30 69 -38 71 -129 36 -94 -36 -234 -25 -336 27 -55 28 -136 102
-174 160 -79 119 -92 292 -32 424 30 67 134 188 161 188 7 0 38 -7 68 -16z
m3015 -42 c97 -102 134 -205 125 -348 -16 -268 -273 -459 -539 -403 -29 6 -70
20 -90 30 -21 11 -39 19 -42 19 -2 0 -10 -17 -17 -37 -25 -79 -99 -173 -172
-221 -23 -15 -44 -29 -47 -33 -7 -7 -115 -36 -167 -43 -56 -8 -180 17 -244 49
-129 66 -226 215 -236 364 -7 103 -2 122 44 146 97 52 184 133 264 247 l17 23
48 -54 c82 -91 175 -133 296 -133 80 0 81 -3 47 -95 -42 -113 -100 -175 -207
-226 -53 -25 -76 -30 -140 -30 -96 0 -146 14 -213 58 -28 20 -54 33 -56 31 -3
-3 6 -30 20 -60 34 -74 103 -146 174 -181 49 -25 73 -30 151 -33 88 -4 97 -2
155 26 99 49 159 114 196 212 12 30 21 70 21 88 0 17 4 32 9 32 5 0 32 -16 61
-35 150 -101 354 -78 473 54 69 77 103 174 95 275 -6 65 -35 143 -53 139 -9
-2 -13 -12 -29 -84 -11 -49 -84 -145 -139 -183 -122 -84 -297 -89 -413 -12
l-56 37 51 50 c84 82 129 200 116 308 l-6 56 158 -3 c118 -2 169 1 203 11 73
24 83 22 142 -41z"/>
</g>
</svg>
