<?xml version="1.0" standalone="no"?>
<!DOCTYPE svg PUBLIC "-//W3C//DTD SVG 20010904//EN"
 "http://www.w3.org/TR/2001/REC-SVG-20010904/DTD/svg10.dtd">
<svg version="1.0" xmlns="http://www.w3.org/2000/svg"
 width="641.000000pt" height="641.000000pt" viewBox="0 0 641.000000 641.000000"
 preserveAspectRatio="xMidYMid meet">

<g transform="translate(0.000000,641.000000) scale(0.100000,-0.100000)"
fill="#000000" stroke="none">
<path d="M4295 6188 c-16 -5 -57 -28 -90 -50 -49 -34 -71 -58 -120 -137 -33
-52 -69 -123 -80 -156 -28 -82 -31 -85 -78 -85 -55 0 -214 -43 -274 -74 -27
-13 -86 -54 -133 -91 -97 -76 -155 -153 -195 -260 -15 -38 -33 -83 -41 -98
-20 -41 -19 -367 1 -473 34 -180 75 -250 187 -324 33 -22 63 -40 68 -40 13 0
56 -24 73 -42 22 -21 169 -33 239 -19 29 6 64 12 78 13 19 2 37 21 73 74 48
70 48 72 54 166 7 111 -5 170 -45 227 -47 68 -89 85 -222 89 -89 3 -125 0
-160 -13 -70 -26 -72 -25 -97 35 -42 103 -24 273 37 351 43 53 158 136 221
158 30 10 68 26 84 35 19 10 55 16 100 16 63 0 77 -4 125 -34 30 -19 104 -62
164 -97 117 -69 144 -98 198 -212 25 -52 28 -70 28 -155 0 -98 -22 -218 -55
-295 -9 -21 -52 -77 -95 -123 -44 -46 -209 -240 -368 -431 -267 -321 -392
-453 -428 -453 -8 0 -14 -7 -14 -16 0 -19 -24 -44 -43 -44 -8 0 -17 -9 -20
-20 -6 -22 -2 -23 -105 26 -1 1 40 65 93 143 52 77 95 145 95 150 0 5 7 14 15
21 33 27 18 69 -50 142 -36 38 -102 115 -147 171 -44 56 -103 124 -130 151
-48 48 -50 49 -68 30 -42 -43 -175 -281 -225 -401 l-53 -128 31 -45 c17 -25
44 -62 61 -82 70 -85 86 -106 86 -116 0 -5 6 -15 14 -21 12 -10 12 -16 0 -39
-7 -16 -24 -38 -37 -50 l-24 -23 -89 87 c-110 107 -290 267 -404 357 -47 37
-91 80 -99 94 -12 25 -101 112 -142 141 -11 7 -19 18 -19 24 0 6 -28 41 -63
77 -35 37 -76 85 -93 107 -16 21 -55 73 -88 114 -72 92 -89 129 -109 250 -17
104 -17 180 2 280 15 79 31 110 72 144 62 53 258 139 354 157 108 20 297 -28
326 -84 7 -11 31 -41 53 -66 23 -25 48 -65 56 -88 26 -84 -5 -301 -42 -288 -7
2 -69 6 -137 9 -108 4 -131 2 -175 -16 -63 -24 -94 -51 -116 -103 -22 -50 -34
-158 -24 -222 6 -42 15 -55 72 -110 76 -73 136 -107 215 -123 65 -13 161 -5
177 16 7 7 35 28 63 46 49 31 117 93 117 107 0 3 17 31 38 61 72 105 111 226
126 391 7 76 -10 257 -29 309 -7 19 -23 62 -35 94 -81 221 -330 359 -646 361
l-120 0 -11 68 c-14 89 -62 185 -116 231 -23 20 -53 47 -67 59 -14 12 -44 31
-67 41 -35 15 -47 16 -76 7 -45 -15 -103 -78 -116 -128 -26 -91 -5 -245 45
-345 l24 -48 -117 0 c-65 0 -147 -5 -183 -11 -112 -17 -272 -60 -329 -87 -49
-23 -69 -26 -151 -26 -81 1 -108 6 -182 32 -49 18 -95 32 -103 32 -20 0 -30
-27 -17 -43 14 -17 16 -79 7 -272 -8 -175 -28 -298 -75 -475 -25 -92 -32 -143
-37 -253 -5 -121 -8 -137 -22 -132 -43 17 -146 26 -241 20 -124 -8 -174 -19
-201 -46 -40 -40 -14 -140 65 -244 45 -61 256 -184 313 -185 37 0 63 -34 63
-83 0 -24 11 -80 24 -124 49 -162 99 -231 262 -359 81 -63 139 -91 242 -115
77 -19 109 -20 282 -16 168 4 209 8 294 30 108 29 107 28 187 108 60 59 75 83
108 170 34 87 25 294 -15 371 -8 16 -38 44 -67 63 -46 31 -64 36 -134 42 -174
13 -293 -43 -324 -152 -19 -67 -13 -224 12 -290 12 -31 17 -61 13 -65 -5 -5
-33 -18 -62 -29 -99 -39 -269 -21 -340 36 -48 39 -138 150 -152 188 -7 17 -22
54 -36 82 -48 107 -44 190 15 280 21 32 61 101 90 154 40 73 64 104 99 131
115 85 225 109 380 82 158 -27 200 -46 298 -136 49 -44 121 -106 159 -137 466
-369 628 -504 729 -603 116 -114 119 -118 124 -168 l5 -50 -34 0 c-24 0 -59
17 -129 63 -177 118 -248 158 -273 152 -13 -4 -52 -35 -87 -71 -36 -36 -107
-100 -159 -142 -131 -107 -191 -167 -191 -190 0 -28 260 -176 406 -232 l110
-42 65 38 c35 21 80 50 99 64 19 15 58 43 86 62 47 33 52 35 77 21 15 -7 27
-20 27 -28 0 -7 3 -20 6 -29 4 -10 -6 -21 -33 -34 -21 -11 -110 -89 -198 -174
-88 -84 -231 -215 -317 -290 -86 -76 -159 -146 -163 -158 -3 -11 -13 -20 -20
-20 -8 0 -42 -25 -77 -55 -35 -31 -82 -68 -105 -83 -24 -15 -73 -49 -110 -75
-101 -73 -138 -88 -243 -103 -109 -16 -201 -11 -310 18 -95 25 -132 53 -172
131 -42 83 -94 240 -103 308 -14 114 42 285 106 323 18 11 49 34 68 51 20 18
54 38 76 44 78 21 216 8 282 -27 18 -10 20 -17 13 -54 -4 -24 -11 -91 -15
-149 -6 -88 -4 -112 9 -137 36 -70 172 -139 286 -147 88 -5 103 2 193 103 45
51 62 79 79 136 25 80 27 169 5 195 -8 9 -29 41 -46 71 -17 30 -45 70 -63 88
-36 35 -103 82 -118 82 -6 0 -10 6 -10 13 -1 17 -145 85 -200 93 -25 4 -49 10
-55 14 -5 5 -102 9 -215 10 -193 2 -209 1 -275 -22 -245 -84 -395 -315 -414
-643 l-6 -99 -85 -13 c-107 -17 -178 -52 -240 -120 -27 -29 -52 -53 -57 -53
-12 0 -43 -81 -43 -114 0 -71 79 -138 185 -155 79 -12 203 4 273 35 29 13 54
24 56 24 2 0 1 -60 -2 -133 -5 -141 5 -222 65 -501 34 -160 25 -225 -59 -403
-16 -33 -3 -57 25 -47 30 10 116 9 212 -4 44 -6 120 -11 168 -11 75 -1 99 -5
155 -30 133 -58 214 -74 545 -107 49 -5 58 -8 52 -22 -35 -93 -32 -270 8 -381
14 -41 33 -81 42 -90 36 -36 208 38 262 114 60 84 125 194 135 230 17 58 25
65 77 65 72 0 221 35 281 65 66 33 95 56 183 143 89 88 131 151 167 246 43
117 53 198 48 402 -5 197 -24 282 -76 355 -28 39 -126 116 -173 136 -15 6 -37
21 -49 33 -30 30 -129 43 -253 34 l-98 -6 -40 -51 c-71 -89 -74 -99 -74 -237
0 -123 1 -126 30 -170 38 -56 82 -85 146 -99 72 -16 199 -14 249 4 58 20 59
20 76 -20 32 -77 37 -131 19 -217 -21 -104 -32 -124 -100 -187 -74 -67 -120
-93 -230 -130 -138 -47 -205 -41 -300 28 -27 20 -85 59 -128 85 -88 54 -128
101 -182 213 -44 91 -46 163 -11 307 36 143 64 193 152 273 42 37 107 103 146
147 365 415 671 731 763 787 36 23 100 25 108 5 3 -8 4 -27 1 -42 -5 -29 -79
-146 -125 -199 -34 -39 -109 -162 -109 -178 0 -6 19 -32 41 -57 23 -25 81 -99
130 -165 49 -66 98 -131 109 -144 11 -13 25 -32 31 -42 5 -11 21 -26 34 -35
21 -14 28 -14 42 -3 36 30 190 281 245 402 l59 127 -41 59 c-22 33 -45 63 -50
66 -10 6 -32 37 -82 114 -20 31 -23 91 -5 114 20 28 67 26 86 -3 25 -39 133
-150 146 -150 11 0 74 -63 201 -200 28 -30 83 -81 122 -114 40 -32 72 -65 72
-74 0 -8 40 -56 88 -106 49 -51 97 -105 108 -121 10 -17 38 -52 62 -79 24 -28
52 -66 63 -85 11 -20 38 -58 60 -86 62 -78 87 -139 102 -250 22 -153 -4 -330
-57 -400 -29 -38 -106 -80 -241 -131 -93 -36 -107 -38 -205 -38 -93 0 -113 3
-173 28 -56 24 -75 38 -106 80 -21 28 -45 57 -54 64 -37 31 -53 241 -25 317
17 45 -2 42 223 35 102 -4 114 -2 167 22 31 14 63 37 71 50 9 12 25 64 38 113
31 128 24 171 -44 242 -107 113 -245 174 -348 154 -108 -21 -297 -188 -366
-324 -25 -49 -48 -163 -63 -308 -20 -194 27 -433 107 -538 45 -59 201 -148
333 -189 108 -34 161 -43 260 -42 l96 1 17 -92 c22 -114 53 -173 131 -246 104
-98 169 -113 236 -56 57 47 75 96 74 203 0 127 -12 182 -59 274 l-15 28 32 -6
c83 -17 227 -18 305 -2 44 9 91 16 105 16 13 0 28 3 31 7 16 15 189 54 268 59
73 6 98 3 160 -15 41 -13 84 -29 97 -37 12 -8 39 -16 60 -17 34 -2 37 0 33 23
-20 139 25 498 98 770 12 46 23 137 29 233 6 87 13 161 16 164 3 4 41 -9 84
-28 74 -33 82 -34 206 -36 71 0 140 3 153 8 13 5 31 24 40 44 24 51 6 139 -45
217 -31 46 -58 71 -135 122 -84 56 -187 106 -218 106 -14 0 -25 38 -28 93 -3
70 -35 186 -72 258 -22 44 -59 91 -118 150 -107 105 -164 145 -250 175 -36 13
-70 29 -76 36 -8 10 -64 13 -245 13 -217 0 -241 -2 -317 -23 -45 -13 -102 -37
-127 -52 -44 -28 -110 -114 -150 -195 -11 -21 -28 -47 -37 -56 -25 -25 -34
-152 -18 -256 l13 -85 50 -37 c87 -64 91 -65 226 -66 124 0 125 0 177 33 77
49 97 96 101 243 4 100 1 123 -16 162 -23 52 -22 54 52 82 73 27 215 17 291
-19 89 -44 163 -146 226 -310 45 -120 34 -203 -40 -300 -21 -28 -47 -67 -56
-86 -61 -120 -114 -171 -233 -222 -76 -33 -169 -37 -289 -12 -145 30 -179 48
-288 154 -55 53 -165 152 -245 220 -80 69 -221 191 -314 273 -93 81 -188 160
-210 175 -23 15 -69 66 -103 112 -35 47 -69 92 -78 101 -21 21 -20 69 1 69 9
0 42 -15 73 -34 46 -27 203 -109 283 -148 36 -17 58 -6 143 67 48 41 131 107
184 147 112 84 184 153 179 170 -11 33 -393 250 -495 282 -24 8 -158 -52 -294
-130 -42 -24 -78 -44 -81 -44 -2 0 -15 14 -27 31 l-23 31 157 162 c182 187
197 203 300 326 43 50 87 95 99 100 12 5 55 42 96 84 41 42 79 76 84 76 5 0
40 30 78 66 39 36 93 80 122 99 28 18 58 40 64 48 7 9 42 34 77 57 109 71 303
98 464 65 127 -27 162 -56 221 -180 70 -149 90 -218 90 -308 0 -86 -15 -159
-44 -214 -17 -34 -102 -108 -134 -117 -103 -28 -223 -48 -269 -43 -81 8 -86
16 -79 112 14 160 11 210 -13 249 -40 65 -165 136 -243 138 -99 4 -121 -3
-171 -51 -81 -77 -115 -132 -137 -218 -14 -53 -18 -92 -14 -121 10 -66 125
-229 184 -260 66 -34 80 -44 80 -53 0 -5 6 -9 13 -9 6 0 37 -13 68 -30 96 -50
186 -63 402 -56 163 4 192 8 220 25 18 10 50 23 72 27 23 4 68 28 107 56 117
85 204 234 233 398 3 19 10 53 15 75 5 22 14 81 21 131 l11 91 72 11 c41 7 92
24 121 41 54 31 155 134 180 183 52 104 -32 204 -186 223 -72 9 -197 -16 -276
-54 -32 -16 -59 -28 -61 -26 -1 1 3 26 9 56 7 33 10 96 6 162 -5 86 -11 118
-31 164 -15 31 -29 74 -32 97 -3 23 -12 64 -20 91 -7 28 -18 91 -23 140 -12
98 -2 165 38 257 30 72 37 116 17 124 -9 3 -23 1 -31 -6 -11 -9 -65 -9 -242 0
-196 10 -245 16 -348 42 -187 47 -239 56 -398 63 -81 4 -147 9 -147 11 0 2 7
29 15 61 10 39 15 107 15 214 0 155 0 158 -26 188 -22 27 -32 31 -72 30 -26 0
-60 -5 -77 -11z m606 -777 c52 -16 138 -39 192 -51 82 -19 109 -30 159 -67 77
-57 101 -110 123 -270 16 -110 18 -274 4 -287 -3 -4 -28 3 -55 14 -149 64
-319 68 -524 11 -41 -11 -77 -21 -79 -21 -4 0 2 41 24 150 27 137 11 267 -52
431 -19 48 -35 75 -50 82 -13 6 -23 16 -23 24 0 10 22 13 94 13 75 0 112 -6
187 -29z m-3245 -144 c4 -3 -6 -46 -22 -94 -26 -80 -29 -100 -28 -223 1 -121
4 -146 32 -240 17 -57 29 -106 27 -108 -2 -3 -33 2 -67 11 -97 24 -204 31
-291 17 -63 -9 -237 -61 -319 -95 -16 -6 -18 1 -18 73 0 95 42 252 118 446 44
111 51 122 87 143 55 32 122 50 245 67 104 15 223 16 236 3z m1752 -1759 c157
-105 209 -268 134 -421 -58 -116 -143 -167 -281 -167 -88 1 -182 29 -235 72
-51 41 -79 121 -80 233 -1 78 3 97 25 145 33 69 79 116 144 147 44 21 61 24
151 21 90 -3 106 -6 142 -30z m2082 -1838 c0 -65 -7 -102 -41 -207 -22 -70
-47 -157 -55 -192 -14 -59 -50 -122 -100 -173 -36 -37 -125 -60 -296 -76 -136
-12 -172 -13 -197 -2 -36 15 -37 19 -12 68 62 121 72 319 27 497 -14 54 -23
101 -20 104 2 3 46 -6 97 -20 161 -42 343 -25 513 50 38 16 72 30 77 30 4 1 7
-35 7 -79z m-4265 -9 c96 -34 274 -35 414 -2 51 12 96 20 99 17 3 -3 -5 -38
-17 -78 -16 -50 -25 -110 -28 -188 -5 -103 -3 -128 22 -225 15 -61 38 -131 51
-158 l23 -47 -77 1 c-63 1 -102 10 -223 50 -80 27 -167 53 -195 59 -33 8 -68
27 -111 60 -50 41 -65 59 -83 107 -33 88 -53 378 -30 438 l10 25 37 -16 c21
-10 70 -29 108 -43z"/>
</g>
</svg>
