<?xml version="1.0" standalone="no"?>
<!DOCTYPE svg PUBLIC "-//W3C//DTD SVG 20010904//EN"
 "http://www.w3.org/TR/2001/REC-SVG-20010904/DTD/svg10.dtd">
<svg version="1.0" xmlns="http://www.w3.org/2000/svg"
 width="641.000000pt" height="641.000000pt" viewBox="0 0 641.000000 641.000000"
 preserveAspectRatio="xMidYMid meet">

<g transform="translate(0.000000,641.000000) scale(0.100000,-0.100000)"
fill="" stroke="none">
<path d="M5395 6030 c-44 -5 -114 -17 -155 -25 l-75 -17 -100 -102 c-108 -111
-96 -105 -257 -136 -138 -27 -194 -118 -205 -337 -6 -105 -7 -112 -28 -117
-18 -5 -37 8 -91 59 -162 156 -411 288 -665 355 -164 43 -181 54 -278 176 -96
121 -87 120 -141 9 -87 -176 -93 -412 -15 -540 14 -22 46 -66 72 -98 l46 -57
-14 -88 c-7 -48 -12 -96 -11 -107 10 -78 121 -208 217 -256 81 -39 179 -43
249 -9 155 75 239 295 180 472 -36 108 -146 185 -273 191 -50 2 -55 0 -83 -34
-27 -34 -29 -39 -19 -76 6 -22 20 -48 30 -57 28 -25 88 -30 141 -12 43 15 45
14 68 -7 36 -34 52 -71 52 -124 0 -50 -19 -134 -39 -170 -24 -46 -209 -88
-290 -66 -28 7 -39 19 -64 67 -35 70 -44 150 -28 254 l11 73 -60 66 c-33 37
-75 95 -92 131 -29 58 -32 75 -36 178 l-5 114 40 0 c54 0 93 -15 188 -71 44
-25 157 -77 250 -114 94 -37 188 -76 210 -87 177 -89 323 -210 406 -335 49
-76 103 -208 114 -285 l7 -45 -44 -12 c-23 -6 -122 -18 -218 -26 -96 -9 -201
-23 -234 -32 -61 -17 -144 -67 -286 -173 -82 -60 -190 -120 -219 -120 -23 0
-182 124 -249 194 -35 36 -72 85 -83 110 -15 34 -27 47 -47 52 -15 3 -32 7
-38 9 -7 2 -29 -22 -50 -52 -21 -31 -94 -105 -162 -166 -67 -60 -127 -118
-133 -128 -17 -32 -48 -22 -138 45 -180 133 -334 219 -461 255 -36 11 -130 24
-210 31 -165 13 -210 24 -210 49 0 82 128 307 243 428 74 77 171 148 253 184
27 11 119 46 204 76 189 66 293 117 382 184 38 28 75 49 84 47 9 -2 26 -15 37
-31 20 -26 20 -32 9 -122 -22 -171 -75 -283 -151 -314 -34 -15 -41 -41 -29
-108 21 -121 21 -167 0 -209 -35 -67 -84 -106 -144 -115 -117 -17 -147 -12
-215 32 l-63 41 0 88 c0 120 9 177 29 185 9 4 60 11 115 16 134 11 134 12 142
66 8 53 1 69 -46 101 -24 16 -47 22 -86 22 -50 0 -57 -3 -126 -61 -121 -100
-153 -166 -146 -294 7 -126 81 -240 193 -295 41 -20 65 -25 135 -25 73 0 93 4
141 28 66 32 126 93 166 169 26 49 28 61 28 168 l0 116 67 77 c82 94 102 149
101 282 0 104 -29 227 -74 323 -43 90 -62 87 -155 -21 l-72 -82 -288 -104
-289 -104 -120 -97 c-66 -52 -150 -119 -187 -148 l-67 -53 -16 32 c-9 17 -23
88 -31 157 -23 198 -57 236 -254 291 l-103 29 -86 86 c-93 92 -108 100 -219
122 -92 17 -539 19 -659 3 -91 -13 -87 -9 -108 -109 -52 -247 -40 -652 22
-778 10 -20 38 -51 63 -70 109 -79 109 -80 121 -167 13 -97 34 -149 85 -205
62 -68 189 -120 295 -120 65 0 110 -10 116 -27 3 -7 -34 -65 -84 -131 -187
-244 -227 -318 -309 -578 -31 -98 -62 -191 -70 -205 -7 -15 -44 -50 -83 -78
-69 -52 -92 -77 -105 -118 -6 -20 2 -26 86 -67 160 -77 311 -94 448 -49 40 13
72 34 124 83 l69 65 136 0 c128 0 139 2 187 27 110 58 182 176 191 314 10 133
-39 219 -154 276 -58 28 -78 33 -165 36 -82 4 -110 1 -169 -18 -132 -43 -208
-140 -196 -253 10 -97 28 -117 110 -117 29 0 46 7 68 29 34 34 35 46 13 116
-24 74 -14 102 43 127 100 44 252 -3 303 -95 44 -77 6 -226 -74 -294 -28 -23
-35 -25 -110 -20 -45 2 -106 10 -137 17 l-57 14 -73 -67 c-112 -101 -154 -120
-271 -125 -54 -2 -108 -2 -122 2 -34 8 -37 37 -9 82 49 79 107 202 185 393
101 248 174 390 252 486 118 145 249 218 438 240 52 7 58 5 59 -11 11 -265 18
-334 43 -419 50 -169 148 -345 286 -515 19 -24 20 -28 6 -68 -8 -23 -29 -62
-45 -86 -43 -62 -170 -178 -257 -232 -95 -61 -96 -74 -6 -117 61 -29 77 -44
180 -167 157 -187 147 -170 124 -222 -10 -24 -51 -81 -90 -127 -149 -177 -211
-363 -228 -695 l-7 -136 -48 0 c-109 0 -283 103 -440 259 -162 163 -266 346
-333 586 -43 152 -71 217 -115 267 -45 52 -41 72 17 89 26 8 79 14 117 13 58
0 83 -6 138 -32 67 -31 160 -114 172 -153 8 -23 12 -23 105 1 41 11 95 20 119
20 112 0 201 -97 201 -219 0 -33 -9 -66 -31 -109 -28 -57 -34 -62 -86 -82 -83
-31 -162 -30 -213 4 l-39 26 6 77 c10 133 -27 181 -117 154 -22 -6 -49 -24
-60 -39 -19 -23 -21 -35 -16 -82 8 -71 47 -150 93 -191 180 -157 517 -77 579
139 40 136 -23 311 -140 391 -67 46 -109 54 -247 52 l-125 -2 -53 56 c-123
133 -310 150 -563 53 -73 -27 -77 -31 -91 -71 l-14 -42 44 -33 c97 -74 153
-172 243 -422 75 -206 101 -254 249 -445 l132 -170 -29 -12 c-16 -7 -83 -19
-148 -28 -132 -19 -164 -29 -212 -70 -43 -36 -58 -67 -82 -172 -30 -125 -49
-160 -127 -218 -36 -27 -75 -61 -85 -75 -49 -66 -73 -276 -57 -504 11 -175 35
-366 46 -376 12 -11 117 -29 248 -41 143 -14 366 -6 483 16 140 27 166 43 253
157 25 32 34 36 125 52 119 21 158 40 218 107 58 65 86 151 95 293 5 84 9 101
23 104 10 2 92 -57 200 -144 101 -80 203 -155 228 -166 25 -11 130 -49 234
-84 104 -36 212 -77 240 -92 28 -14 86 -61 129 -104 45 -45 86 -78 98 -78 12
0 30 17 50 48 85 134 110 394 50 526 -10 23 -47 74 -81 114 l-62 72 7 93 c5
79 4 100 -13 143 -45 121 -132 199 -252 230 -131 33 -251 -5 -317 -100 -46
-66 -58 -116 -57 -226 1 -111 24 -183 79 -248 54 -62 92 -81 177 -88 l74 -7
25 39 c14 22 28 54 31 72 7 51 -21 64 -147 71 -57 3 -108 11 -113 16 -21 23
-32 83 -32 171 l0 92 61 51 61 51 90 0 89 0 65 -57 64 -57 -1 -75 c0 -42 -6
-110 -14 -151 -9 -54 -10 -76 -2 -79 32 -12 111 -101 137 -155 31 -66 60 -188
60 -259 0 -40 -3 -45 -35 -60 l-36 -17 -107 54 c-59 29 -177 84 -262 121 -301
131 -406 192 -518 299 -86 82 -151 172 -213 294 -45 90 -50 107 -44 142 4 22
10 40 13 40 21 0 364 62 416 76 217 54 345 116 456 221 43 40 82 73 87 73 19
0 189 -129 246 -185 31 -31 68 -81 83 -111 45 -93 91 -100 144 -22 19 28 89
100 156 159 67 60 129 120 138 134 9 14 24 25 34 25 9 0 69 -34 132 -76 139
-91 265 -153 390 -194 92 -30 296 -72 418 -85 55 -6 62 -9 62 -29 0 -45 -43
-174 -86 -258 -110 -211 -285 -335 -716 -504 -103 -40 -202 -87 -246 -115 -73
-48 -128 -68 -142 -53 -17 20 -33 92 -32 153 0 113 59 228 152 299 l49 37 -7
60 c-11 95 -5 195 15 255 17 48 25 58 63 77 57 30 145 31 198 4 79 -41 152
-145 152 -216 0 -50 -31 -119 -62 -139 -20 -13 -33 -14 -79 -4 -44 9 -66 9
-102 -2 -43 -11 -48 -16 -58 -54 -21 -79 34 -132 136 -130 137 2 247 140 249
314 1 102 -22 166 -86 235 -51 56 -149 119 -213 136 -81 23 -225 -56 -298
-163 -60 -87 -66 -112 -49 -221 l15 -93 -61 -77 c-33 -42 -70 -101 -81 -132
-44 -118 -37 -267 20 -441 30 -90 70 -149 87 -128 5 5 38 48 74 95 105 135
144 158 360 209 261 62 306 84 454 218 116 105 193 162 218 162 18 0 29 -37
51 -178 35 -230 99 -303 274 -318 l82 -7 84 -89 c100 -106 131 -121 290 -139
84 -9 156 -9 329 0 121 6 244 14 273 17 52 6 52 7 68 53 65 197 72 565 14 783
-21 77 -22 78 -114 163 l-93 85 -21 82 c-36 136 -49 165 -98 208 -59 51 -121
70 -255 77 -70 4 -112 10 -119 19 -8 10 10 36 76 111 100 113 202 261 244 354
16 35 52 132 81 214 28 83 64 172 78 199 33 60 110 147 158 176 19 12 34 30
34 40 0 25 -51 62 -141 104 -98 44 -167 60 -264 60 -113 0 -168 -21 -270 -105
l-84 -69 -110 0 c-137 0 -197 -20 -275 -91 -79 -72 -101 -127 -101 -259 0 -97
2 -109 27 -152 40 -67 101 -115 176 -138 148 -46 298 -5 406 110 66 71 80 104
70 171 -8 48 -13 56 -44 72 -41 21 -136 19 -152 -4 -5 -8 -7 -58 -4 -120 l6
-107 -31 -11 c-68 -23 -125 -24 -198 -2 -38 12 -77 28 -85 37 -9 8 -23 41 -32
72 -14 49 -15 67 -4 140 12 79 14 84 49 107 67 44 109 50 208 30 112 -21 127
-16 238 84 105 94 157 114 278 109 138 -7 145 -26 51 -150 -47 -62 -60 -90
-95 -203 -22 -71 -52 -168 -66 -213 -51 -161 -198 -377 -337 -493 -104 -88
-282 -169 -369 -169 -32 0 -39 28 -31 118 10 102 -28 274 -101 467 -48 124
-113 231 -189 311 l-65 67 13 39 c21 59 82 131 202 238 68 60 119 115 133 142
l24 44 -69 65 c-38 36 -95 90 -128 120 -71 66 -176 194 -176 216 0 8 35 63 78
122 133 181 190 287 238 448 24 78 27 106 28 243 1 91 5 158 11 162 25 18 79
4 184 -47 142 -69 218 -121 302 -205 138 -138 241 -330 312 -580 40 -142 49
-164 106 -248 34 -51 59 -97 56 -102 -4 -6 -25 -20 -48 -31 -97 -50 -248 2
-376 130 l-75 74 -80 -12 c-100 -14 -169 -13 -220 2 -72 22 -108 129 -86 257
11 67 14 72 52 96 111 70 221 72 282 6 15 -18 18 -34 15 -108 -4 -83 -3 -87
21 -105 14 -10 48 -21 76 -25 l51 -6 26 45 c15 25 27 59 27 74 0 52 -31 122
-75 171 -156 173 -483 136 -581 -65 -25 -51 -29 -69 -29 -148 0 -82 3 -97 33
-157 36 -75 88 -123 168 -160 41 -20 67 -23 164 -24 63 0 120 -1 127 -2 6 -1
43 -31 82 -66 51 -48 84 -69 121 -80 200 -59 466 -3 533 112 l17 31 -93 73
-94 73 -73 220 c-40 121 -92 258 -116 305 -50 97 -141 222 -238 326 -36 40
-66 76 -66 82 0 13 31 20 147 32 131 13 151 18 201 47 58 33 86 79 121 203
l30 105 93 92 c51 50 98 104 105 120 58 143 66 493 17 766 -19 101 -19 101
-127 123 -88 17 -412 26 -522 14z m-4298 -130 c156 -16 253 -65 313 -158 l32
-50 81 -12 c112 -17 176 -43 220 -88 33 -34 38 -45 44 -104 3 -38 0 -93 -7
-132 -11 -62 -15 -68 -60 -101 -72 -53 -115 -68 -182 -63 -99 7 -137 54 -105
130 13 31 13 38 -4 71 -26 50 -52 64 -130 72 l-67 7 -21 -56 c-12 -31 -21 -61
-21 -65 0 -22 -60 -70 -100 -81 -109 -29 -131 -130 -46 -209 24 -23 29 -23
116 -17 l90 7 12 -28 c6 -15 13 -60 16 -98 7 -116 -32 -180 -144 -235 -58 -28
-73 -32 -120 -27 -65 7 -127 40 -165 87 -34 42 -59 133 -59 211 l0 57 -87 59
c-85 56 -88 60 -105 116 -30 100 -41 221 -35 402 5 150 22 273 40 292 4 3 82
9 174 13 92 4 182 7 198 8 17 1 71 -3 122 -8z m4732 -8 l85 -7 18 -53 c38
-111 39 -371 2 -520 -34 -135 -92 -228 -160 -257 -30 -12 -33 -17 -38 -72 -19
-189 -42 -234 -139 -283 -48 -24 -73 -30 -123 -30 -74 0 -103 10 -156 51 -50
40 -79 98 -85 169 -7 69 10 125 44 147 21 14 31 15 74 4 50 -13 51 -13 107 22
l57 35 3 55 c3 51 1 56 -32 85 -19 17 -62 41 -96 53 -49 18 -61 27 -66 48 -23
103 -42 123 -122 129 -50 3 -60 1 -79 -20 -19 -20 -23 -36 -25 -122 -3 -94 -4
-100 -30 -119 -38 -29 -148 -28 -203 0 -85 45 -135 128 -135 228 0 75 24 128
78 177 47 43 102 60 188 60 58 0 62 2 78 33 25 47 91 107 166 154 l65 40 220
-1 c121 0 258 -3 304 -6z m-4023 -764 c16 -25 4 -106 -31 -201 -20 -56 -40
-109 -44 -117 -12 -24 -209 -118 -285 -137 -107 -26 -113 -16 -80 140 8 38 14
117 14 177 l0 108 133 -4 c121 -4 137 -3 197 19 78 29 87 30 96 15z m3024 -13
c47 -9 138 -18 203 -22 102 -5 117 -8 112 -22 -16 -41 -17 -190 -1 -281 16
-90 16 -95 -1 -108 -28 -21 -119 -1 -280 59 l-83 31 -26 87 c-14 47 -34 115
-45 150 -22 74 -23 93 -7 109 15 15 26 15 128 -3z m-2720 -465 c224 -43 441
-138 590 -257 240 -193 351 -461 320 -769 -14 -139 -19 -149 -77 -168 -253
-84 -527 14 -794 285 -97 97 -206 254 -249 356 -75 179 -102 505 -48 571 15
17 111 10 258 -18z m2487 13 l82 -6 12 -55 c20 -99 -27 -360 -100 -547 -85
-220 -239 -394 -436 -493 -136 -68 -337 -112 -511 -112 l-92 0 -28 38 c-29 36
-29 39 -29 167 1 111 5 144 28 227 59 208 138 358 256 481 149 156 294 235
510 278 148 29 185 32 308 22z m-1232 -138 c53 -36 99 -81 158 -155 l36 -46
-64 -122 c-64 -121 -64 -124 -105 -335 -47 -243 -49 -247 -135 -247 -30 0 -57
5 -62 13 -6 6 -29 98 -53 202 -52 229 -48 218 -116 332 -34 55 -58 107 -61
133 -7 51 8 68 153 181 55 43 106 85 113 93 12 14 17 14 49 0 21 -8 60 -30 87
-49z m-1088 -1046 c54 -29 110 -58 125 -66 15 -8 111 -31 213 -52 195 -41 219
-51 230 -101 8 -35 -13 -120 -32 -127 -7 -3 -105 -24 -217 -47 -195 -41 -207
-45 -281 -91 -68 -42 -147 -75 -180 -75 -15 0 -249 277 -253 299 -1 9 50 81
118 164 106 129 124 147 150 147 17 0 74 -23 127 -51z m2236 -90 c94 -111 118
-145 113 -162 -8 -34 -70 -132 -121 -191 -117 -138 -183 -143 -355 -26 -91 61
-112 69 -277 96 -87 14 -163 30 -169 35 -33 28 -42 124 -15 167 4 8 67 27 138
42 207 46 362 101 448 159 18 12 47 20 75 20 l45 0 118 -140z m-1163 -19 c35
-39 77 -78 94 -87 29 -15 55 -40 56 -54 0 -4 -35 -33 -77 -65 -43 -32 -96 -77
-119 -101 -23 -24 -51 -43 -62 -43 -12 0 -46 29 -85 74 -37 40 -80 79 -97 86
-16 7 -30 15 -30 19 0 3 -3 15 -6 27 -4 17 3 26 39 48 25 14 78 61 119 105 57
62 76 77 89 70 9 -4 45 -40 79 -79z m-368 -384 c29 -42 51 -130 55 -216 4 -77
1 -113 -16 -180 -107 -426 -586 -830 -983 -830 -114 0 -174 15 -196 48 -14 21
-17 50 -16 147 3 405 232 804 549 956 121 59 321 96 480 91 73 -3 123 -9 127
-16z m873 -2 c206 -34 385 -119 521 -247 200 -189 295 -431 320 -810 l6 -107
-35 -15 c-59 -24 -209 -20 -346 11 -372 83 -588 249 -754 580 -62 123 -81 220
-74 373 5 119 21 187 55 224 15 17 27 18 117 12 55 -3 141 -13 190 -21z m-564
-154 c34 0 38 -4 53 -41 9 -23 26 -96 36 -163 34 -208 40 -227 110 -364 l69
-133 -32 -36 c-27 -31 -204 -190 -241 -217 -25 -18 -119 39 -221 133 -55 51
-101 98 -103 105 -2 9 189 571 239 705 7 18 14 22 32 17 12 -3 38 -6 58 -6z
m-2151 -1062 c47 -20 83 -56 111 -109 19 -36 23 -60 23 -136 1 -50 -3 -95 -7
-100 -5 -4 -51 -8 -104 -8 l-94 0 -40 -42 c-32 -34 -39 -50 -39 -81 0 -37 6
-45 85 -117 47 -42 101 -103 121 -136 32 -52 41 -59 68 -59 82 1 141 32 171
91 12 22 12 32 0 65 -36 99 -15 116 139 117 l99 1 35 -40 c93 -107 113 -241
49 -335 -36 -53 -67 -68 -176 -89 -57 -11 -114 -26 -127 -35 -13 -8 -45 -48
-72 -88 -27 -40 -60 -77 -73 -84 -16 -8 -136 -13 -361 -17 l-338 -6 -14 28
c-33 64 -49 189 -43 346 6 161 24 252 72 345 25 50 95 121 120 121 25 0 35 36
35 125 0 130 17 156 158 236 59 32 68 35 115 28 29 -3 68 -13 87 -21z m4415
10 c24 -6 56 -26 81 -52 47 -46 68 -103 85 -226 6 -41 16 -77 22 -79 6 -2 35
-26 63 -53 59 -55 103 -138 130 -243 23 -87 26 -362 6 -472 -12 -66 -16 -72
-43 -82 -138 -48 -581 -35 -703 20 -17 8 -46 44 -77 96 -28 46 -51 83 -52 83
-52 2 -236 34 -255 44 -38 20 -68 54 -91 106 -76 168 65 340 279 340 79 0 73
8 89 -133 14 -120 35 -141 141 -135 l55 3 25 70 c25 69 26 70 87 100 85 41
105 63 113 125 5 39 2 57 -11 79 -16 27 -20 28 -124 34 -60 3 -112 10 -117 15
-17 17 -28 123 -17 173 13 60 43 97 129 161 70 51 80 52 185 26z m-414 -9 c14
-26 8 -67 -21 -144 -24 -66 -22 -106 11 -202 10 -31 18 -58 16 -59 -2 -2 -105
-6 -230 -10 l-227 -7 0 25 c0 39 36 172 59 217 28 54 70 84 178 125 50 19 109
44 130 55 49 26 70 26 84 0z m-3626 -15 c33 -14 90 -37 127 -52 l67 -27 40
-85 c45 -96 74 -197 69 -244 -4 -37 -15 -38 -103 -5 -47 17 -82 22 -160 22
-55 1 -117 -3 -137 -7 l-38 -7 0 113 c0 68 -8 151 -19 208 -10 52 -17 98 -14
103 10 17 110 6 168 -19z"/>
</g>
</svg>
