<?xml version="1.0" standalone="no"?>
<!DOCTYPE svg PUBLIC "-//W3C//DTD SVG 20010904//EN"
 "http://www.w3.org/TR/2001/REC-SVG-20010904/DTD/svg10.dtd">
<svg version="1.0" xmlns="http://www.w3.org/2000/svg"
 width="64.000000pt" height="64.000000pt" viewBox="0 0 64.000000 64.000000"
 preserveAspectRatio="xMidYMid meet">

<g transform="translate(0.000000,64.000000) scale(0.100000,-0.100000)"
fill="" stroke="none">
<path d="M243 521 c-145 -37 -253 -214 -197 -322 10 -21 34 -39 72 -57 53 -25
66 -27 202 -27 136 0 149 2 202 27 71 33 93 69 85 140 -11 92 -71 174 -159
219 -44 23 -154 33 -205 20z m7 -31 c0 -5 -4 -10 -10 -10 -5 0 -10 5 -10 10 0
6 5 10 10 10 6 0 10 -4 10 -10z m-40 -19 c0 -5 -9 -12 -19 -16 -11 -3 -36 -24
-56 -46 -37 -42 -55 -47 -36 -11 23 44 111 101 111 73z m174 -75 c40 -17 76
-60 76 -93 0 -13 -11 -34 -25 -47 -14 -13 -25 -28 -25 -35 0 -18 -38 -51 -60
-51 -10 0 -33 13 -50 30 -17 16 -40 30 -51 30 -11 0 -31 11 -44 25 -81 80 60
191 179 141z"/>
<path d="M270 383 c-30 -11 -70 -57 -70 -80 0 -24 29 -48 72 -58 15 -4 34 -18
43 -31 24 -37 75 -26 75 17 0 9 11 24 25 33 57 37 4 116 -82 122 -26 2 -55 1
-63 -3z m130 -103 c0 -5 -4 -10 -10 -10 -5 0 -10 5 -10 10 0 6 5 10 10 10 6 0
10 -4 10 -10z m-39 -63 c-17 -17 -24 -1 -10 25 12 21 14 21 17 4 2 -10 -1 -23
-7 -29z"/>
</g>
</svg>
